<?xml version="1.0" encoding="UTF-8" standalone="no"?>
<svg
xmlns="http://www.w3.org/2000/svg"
version="1.0"
width="800" height="800"
id="c120.svg">
<g style="stroke:#000000;stroke-width:1;stroke-opacity:1.0;">
<line x1="743.937" y1="400.000" x2="692.490" y2="453.141"/>
<line x1="743.937" y1="400.000" x2="770.294" y2="453.141"/>
<line x1="743.937" y1="400.000" x2="731.392" y2="385.761"/>
<line x1="743.937" y1="400.000" x2="731.392" y2="307.957"/>
<line x1="692.490" y1="453.141" x2="687.051" y2="539.126"/>
<line x1="692.490" y1="453.141" x2="648.149" y2="471.745"/>
<line x1="692.490" y1="453.141" x2="648.149" y2="393.941"/>
<line x1="770.294" y1="453.141" x2="735.137" y2="539.126"/>
<line x1="770.294" y1="453.141" x2="774.039" y2="471.745"/>
<line x1="770.294" y1="453.141" x2="774.039" y2="393.941"/>
<line x1="687.051" y1="539.126" x2="735.137" y2="539.126"/>
<line x1="687.051" y1="539.126" x2="639.349" y2="610.871"/>
<line x1="687.051" y1="539.126" x2="639.349" y2="533.067"/>
<line x1="735.137" y1="539.126" x2="717.153" y2="610.871"/>
<line x1="735.137" y1="539.126" x2="717.153" y2="533.067"/>
<line x1="654.208" y1="501.847" x2="702.294" y2="501.847"/>
<line x1="654.208" y1="501.847" x2="672.192" y2="430.102"/>
<line x1="654.208" y1="501.847" x2="619.051" y2="587.831"/>
<line x1="654.208" y1="501.847" x2="586.208" y2="472.749"/>
<line x1="702.294" y1="501.847" x2="749.996" y2="430.102"/>
<line x1="702.294" y1="501.847" x2="696.855" y2="587.831"/>
<line x1="702.294" y1="501.847" x2="664.012" y2="472.749"/>
<line x1="731.392" y1="385.761" x2="672.192" y2="430.102"/>
<line x1="731.392" y1="385.761" x2="749.996" y2="430.102"/>
<line x1="731.392" y1="385.761" x2="711.094" y2="284.917"/>
<line x1="672.192" y1="430.102" x2="648.149" y2="471.745"/>
<line x1="672.192" y1="430.102" x2="615.306" y2="356.662"/>
<line x1="749.996" y1="430.102" x2="774.039" y2="471.745"/>
<line x1="749.996" y1="430.102" x2="741.196" y2="356.662"/>
<line x1="645.408" y1="640.973" x2="619.051" y2="587.831"/>
<line x1="645.408" y1="640.973" x2="696.855" y2="587.831"/>
<line x1="645.408" y1="640.973" x2="657.953" y2="655.212"/>
<line x1="645.408" y1="640.973" x2="571.969" y2="697.858"/>
<line x1="619.051" y1="587.831" x2="615.306" y2="569.227"/>
<line x1="619.051" y1="587.831" x2="529.322" y2="611.874"/>
<line x1="696.855" y1="587.831" x2="741.196" y2="569.227"/>
<line x1="696.855" y1="587.831" x2="655.212" y2="611.874"/>
<line x1="648.149" y1="471.745" x2="615.306" y2="569.227"/>
<line x1="648.149" y1="471.745" x2="576.404" y2="424.043"/>
<line x1="774.039" y1="471.745" x2="741.196" y2="569.227"/>
<line x1="774.039" y1="471.745" x2="780.098" y2="424.043"/>
<line x1="657.953" y1="655.212" x2="639.349" y2="610.871"/>
<line x1="657.953" y1="655.212" x2="717.153" y2="610.871"/>
<line x1="657.953" y1="655.212" x2="592.267" y2="720.898"/>
<line x1="615.306" y1="569.227" x2="639.349" y2="610.871"/>
<line x1="615.306" y1="569.227" x2="523.263" y2="581.772"/>
<line x1="639.349" y1="610.871" x2="562.165" y2="649.153"/>
<line x1="741.196" y1="569.227" x2="717.153" y2="610.871"/>
<line x1="741.196" y1="569.227" x2="726.957" y2="581.772"/>
<line x1="717.153" y1="610.871" x2="688.055" y2="649.153"/>
<line x1="654.208" y1="298.153" x2="702.294" y2="298.153"/>
<line x1="654.208" y1="298.153" x2="672.192" y2="304.212"/>
<line x1="654.208" y1="298.153" x2="619.051" y2="384.137"/>
<line x1="654.208" y1="298.153" x2="586.208" y2="220.969"/>
<line x1="702.294" y1="298.153" x2="749.996" y2="304.212"/>
<line x1="702.294" y1="298.153" x2="696.855" y2="384.137"/>
<line x1="702.294" y1="298.153" x2="664.012" y2="220.969"/>
<line x1="731.392" y1="307.957" x2="672.192" y2="304.212"/>
<line x1="731.392" y1="307.957" x2="749.996" y2="304.212"/>
<line x1="731.392" y1="307.957" x2="711.094" y2="236.832"/>
<line x1="672.192" y1="304.212" x2="648.149" y2="393.941"/>
<line x1="672.192" y1="304.212" x2="615.306" y2="230.773"/>
<line x1="749.996" y1="304.212" x2="774.039" y2="393.941"/>
<line x1="749.996" y1="304.212" x2="741.196" y2="230.773"/>
<line x1="645.408" y1="437.279" x2="619.051" y2="384.137"/>
<line x1="645.408" y1="437.279" x2="696.855" y2="384.137"/>
<line x1="645.408" y1="437.279" x2="657.953" y2="529.322"/>
<line x1="645.408" y1="437.279" x2="571.969" y2="446.079"/>
<line x1="619.051" y1="384.137" x2="615.306" y2="443.338"/>
<line x1="619.051" y1="384.137" x2="529.322" y2="360.095"/>
<line x1="696.855" y1="384.137" x2="741.196" y2="443.338"/>
<line x1="696.855" y1="384.137" x2="655.212" y2="360.095"/>
<line x1="648.149" y1="393.941" x2="615.306" y2="443.338"/>
<line x1="648.149" y1="393.941" x2="576.404" y2="375.957"/>
<line x1="774.039" y1="393.941" x2="741.196" y2="443.338"/>
<line x1="774.039" y1="393.941" x2="780.098" y2="375.957"/>
<line x1="657.953" y1="529.322" x2="639.349" y2="533.067"/>
<line x1="657.953" y1="529.322" x2="717.153" y2="533.067"/>
<line x1="657.953" y1="529.322" x2="592.267" y2="595.008"/>
<line x1="615.306" y1="443.338" x2="639.349" y2="533.067"/>
<line x1="615.306" y1="443.338" x2="523.263" y2="455.883"/>
<line x1="639.349" y1="533.067" x2="562.165" y2="601.067"/>
<line x1="741.196" y1="443.338" x2="717.153" y2="533.067"/>
<line x1="741.196" y1="443.338" x2="726.957" y2="455.883"/>
<line x1="717.153" y1="533.067" x2="688.055" y2="601.067"/>
<line x1="400.000" y1="743.937" x2="414.239" y2="731.392"/>
<line x1="400.000" y1="743.937" x2="492.043" y2="731.392"/>
<line x1="400.000" y1="743.937" x2="346.859" y2="770.294"/>
<line x1="400.000" y1="743.937" x2="346.859" y2="692.490"/>
<line x1="414.239" y1="731.392" x2="515.083" y2="711.094"/>
<line x1="414.239" y1="731.392" x2="369.898" y2="749.996"/>
<line x1="414.239" y1="731.392" x2="369.898" y2="672.192"/>
<line x1="492.043" y1="731.392" x2="563.168" y2="711.094"/>
<line x1="492.043" y1="731.392" x2="495.788" y2="749.996"/>
<line x1="492.043" y1="731.392" x2="495.788" y2="672.192"/>
<line x1="515.083" y1="711.094" x2="563.168" y2="711.094"/>
<line x1="515.083" y1="711.094" x2="533.067" y2="717.153"/>
<line x1="515.083" y1="711.094" x2="533.067" y2="639.349"/>
<line x1="563.168" y1="711.094" x2="610.871" y2="717.153"/>
<line x1="563.168" y1="711.094" x2="610.871" y2="639.349"/>
<line x1="375.957" y1="780.098" x2="424.043" y2="780.098"/>
<line x1="375.957" y1="780.098" x2="328.255" y2="774.039"/>
<line x1="375.957" y1="780.098" x2="447.082" y2="759.800"/>
<line x1="375.957" y1="780.098" x2="307.957" y2="751.000"/>
<line x1="424.043" y1="780.098" x2="406.059" y2="774.039"/>
<line x1="424.043" y1="780.098" x2="524.886" y2="759.800"/>
<line x1="424.043" y1="780.098" x2="385.761" y2="751.000"/>
<line x1="346.859" y1="770.294" x2="328.255" y2="774.039"/>
<line x1="346.859" y1="770.294" x2="406.059" y2="774.039"/>
<line x1="346.859" y1="770.294" x2="260.874" y2="735.137"/>
<line x1="328.255" y1="774.039" x2="369.898" y2="749.996"/>
<line x1="328.255" y1="774.039" x2="230.773" y2="741.196"/>
<line x1="406.059" y1="774.039" x2="495.788" y2="749.996"/>
<line x1="406.059" y1="774.039" x2="356.662" y2="741.196"/>
<line x1="539.126" y1="747.255" x2="447.082" y2="759.800"/>
<line x1="539.126" y1="747.255" x2="524.886" y2="759.800"/>
<line x1="539.126" y1="747.255" x2="592.267" y2="720.898"/>
<line x1="539.126" y1="747.255" x2="571.969" y2="697.858"/>
<line x1="447.082" y1="759.800" x2="443.338" y2="741.196"/>
<line x1="447.082" y1="759.800" x2="423.039" y2="718.157"/>
<line x1="524.886" y1="759.800" x2="569.227" y2="741.196"/>
<line x1="524.886" y1="759.800" x2="548.929" y2="718.157"/>
<line x1="369.898" y1="749.996" x2="443.338" y2="741.196"/>
<line x1="369.898" y1="749.996" x2="298.153" y2="702.294"/>
<line x1="495.788" y1="749.996" x2="569.227" y2="741.196"/>
<line x1="495.788" y1="749.996" x2="501.847" y2="702.294"/>
<line x1="592.267" y1="720.898" x2="533.067" y2="717.153"/>
<line x1="592.267" y1="720.898" x2="610.871" y2="717.153"/>
<line x1="443.338" y1="741.196" x2="533.067" y2="717.153"/>
<line x1="443.338" y1="741.196" x2="416.980" y2="688.055"/>
<line x1="533.067" y1="717.153" x2="562.165" y2="649.153"/>
<line x1="569.227" y1="741.196" x2="610.871" y2="717.153"/>
<line x1="569.227" y1="741.196" x2="620.674" y2="688.055"/>
<line x1="610.871" y1="717.153" x2="688.055" y2="649.153"/>
<line x1="375.957" y1="576.404" x2="424.043" y2="576.404"/>
<line x1="375.957" y1="576.404" x2="328.255" y2="648.149"/>
<line x1="375.957" y1="576.404" x2="447.082" y2="556.106"/>
<line x1="375.957" y1="576.404" x2="307.957" y2="499.220"/>
<line x1="424.043" y1="576.404" x2="406.059" y2="648.149"/>
<line x1="424.043" y1="576.404" x2="524.886" y2="556.106"/>
<line x1="424.043" y1="576.404" x2="385.761" y2="499.220"/>
<line x1="346.859" y1="692.490" x2="328.255" y2="648.149"/>
<line x1="346.859" y1="692.490" x2="406.059" y2="648.149"/>
<line x1="346.859" y1="692.490" x2="260.874" y2="687.051"/>
<line x1="328.255" y1="648.149" x2="369.898" y2="672.192"/>
<line x1="328.255" y1="648.149" x2="230.773" y2="615.306"/>
<line x1="406.059" y1="648.149" x2="495.788" y2="672.192"/>
<line x1="406.059" y1="648.149" x2="356.662" y2="615.306"/>
<line x1="539.126" y1="543.561" x2="447.082" y2="556.106"/>
<line x1="539.126" y1="543.561" x2="524.886" y2="556.106"/>
<line x1="539.126" y1="543.561" x2="592.267" y2="595.008"/>
<line x1="539.126" y1="543.561" x2="571.969" y2="446.079"/>
<line x1="447.082" y1="556.106" x2="443.338" y2="615.306"/>
<line x1="447.082" y1="556.106" x2="423.039" y2="466.377"/>
<line x1="524.886" y1="556.106" x2="569.227" y2="615.306"/>
<line x1="524.886" y1="556.106" x2="548.929" y2="466.377"/>
<line x1="369.898" y1="672.192" x2="443.338" y2="615.306"/>
<line x1="369.898" y1="672.192" x2="298.153" y2="654.208"/>
<line x1="495.788" y1="672.192" x2="569.227" y2="615.306"/>
<line x1="495.788" y1="672.192" x2="501.847" y2="654.208"/>
<line x1="592.267" y1="595.008" x2="533.067" y2="639.349"/>
<line x1="592.267" y1="595.008" x2="610.871" y2="639.349"/>
<line x1="443.338" y1="615.306" x2="533.067" y2="639.349"/>
<line x1="443.338" y1="615.306" x2="416.980" y2="562.165"/>
<line x1="533.067" y1="639.349" x2="562.165" y2="601.067"/>
<line x1="569.227" y1="615.306" x2="610.871" y2="639.349"/>
<line x1="569.227" y1="615.306" x2="620.674" y2="562.165"/>
<line x1="610.871" y1="639.349" x2="688.055" y2="601.067"/>
<line x1="400.000" y1="56.063" x2="307.957" y2="68.608"/>
<line x1="400.000" y1="56.063" x2="385.761" y2="68.608"/>
<line x1="400.000" y1="56.063" x2="453.141" y2="107.510"/>
<line x1="400.000" y1="56.063" x2="453.141" y2="29.706"/>
<line x1="307.957" y1="68.608" x2="236.832" y2="88.906"/>
<line x1="307.957" y1="68.608" x2="304.212" y2="127.808"/>
<line x1="307.957" y1="68.608" x2="304.212" y2="50.004"/>
<line x1="385.761" y1="68.608" x2="284.917" y2="88.906"/>
<line x1="385.761" y1="68.608" x2="430.102" y2="127.808"/>
<line x1="385.761" y1="68.608" x2="430.102" y2="50.004"/>
<line x1="236.832" y1="88.906" x2="284.917" y2="88.906"/>
<line x1="236.832" y1="88.906" x2="189.129" y2="160.651"/>
<line x1="236.832" y1="88.906" x2="189.129" y2="82.847"/>
<line x1="284.917" y1="88.906" x2="266.933" y2="160.651"/>
<line x1="284.917" y1="88.906" x2="266.933" y2="82.847"/>
<line x1="375.957" y1="223.596" x2="424.043" y2="223.596"/>
<line x1="375.957" y1="223.596" x2="393.941" y2="151.851"/>
<line x1="375.957" y1="223.596" x2="275.114" y2="243.894"/>
<line x1="375.957" y1="223.596" x2="414.239" y2="300.780"/>
<line x1="424.043" y1="223.596" x2="471.745" y2="151.851"/>
<line x1="424.043" y1="223.596" x2="352.918" y2="243.894"/>
<line x1="424.043" y1="223.596" x2="492.043" y2="300.780"/>
<line x1="453.141" y1="107.510" x2="393.941" y2="151.851"/>
<line x1="453.141" y1="107.510" x2="471.745" y2="151.851"/>
<line x1="453.141" y1="107.510" x2="539.126" y2="112.949"/>
<line x1="393.941" y1="151.851" x2="304.212" y2="127.808"/>
<line x1="393.941" y1="151.851" x2="443.338" y2="184.694"/>
<line x1="471.745" y1="151.851" x2="430.102" y2="127.808"/>
<line x1="471.745" y1="151.851" x2="569.227" y2="184.694"/>
<line x1="260.874" y1="256.439" x2="275.114" y2="243.894"/>
<line x1="260.874" y1="256.439" x2="352.918" y2="243.894"/>
<line x1="260.874" y1="256.439" x2="207.733" y2="204.992"/>
<line x1="260.874" y1="256.439" x2="228.031" y2="353.921"/>
<line x1="275.114" y1="243.894" x2="230.773" y2="184.694"/>
<line x1="275.114" y1="243.894" x2="251.071" y2="333.623"/>
<line x1="352.918" y1="243.894" x2="356.662" y2="184.694"/>
<line x1="352.918" y1="243.894" x2="376.961" y2="333.623"/>
<line x1="304.212" y1="127.808" x2="230.773" y2="184.694"/>
<line x1="304.212" y1="127.808" x2="298.153" y2="145.792"/>
<line x1="430.102" y1="127.808" x2="356.662" y2="184.694"/>
<line x1="430.102" y1="127.808" x2="501.847" y2="145.792"/>
<line x1="207.733" y1="204.992" x2="189.129" y2="160.651"/>
<line x1="207.733" y1="204.992" x2="266.933" y2="160.651"/>
<line x1="207.733" y1="204.992" x2="142.047" y2="270.678"/>
<line x1="230.773" y1="184.694" x2="189.129" y2="160.651"/>
<line x1="230.773" y1="184.694" x2="179.326" y2="237.835"/>
<line x1="189.129" y1="160.651" x2="111.945" y2="198.933"/>
<line x1="356.662" y1="184.694" x2="266.933" y2="160.651"/>
<line x1="356.662" y1="184.694" x2="383.020" y2="237.835"/>
<line x1="266.933" y1="160.651" x2="237.835" y2="198.933"/>
<line x1="375.957" y1="19.902" x2="424.043" y2="19.902"/>
<line x1="375.957" y1="19.902" x2="393.941" y2="25.961"/>
<line x1="375.957" y1="19.902" x2="275.114" y2="40.200"/>
<line x1="375.957" y1="19.902" x2="414.239" y2="49.000"/>
<line x1="424.043" y1="19.902" x2="471.745" y2="25.961"/>
<line x1="424.043" y1="19.902" x2="352.918" y2="40.200"/>
<line x1="424.043" y1="19.902" x2="492.043" y2="49.000"/>
<line x1="453.141" y1="29.706" x2="393.941" y2="25.961"/>
<line x1="453.141" y1="29.706" x2="471.745" y2="25.961"/>
<line x1="453.141" y1="29.706" x2="539.126" y2="64.863"/>
<line x1="393.941" y1="25.961" x2="304.212" y2="50.004"/>
<line x1="393.941" y1="25.961" x2="443.338" y2="58.804"/>
<line x1="471.745" y1="25.961" x2="430.102" y2="50.004"/>
<line x1="471.745" y1="25.961" x2="569.227" y2="58.804"/>
<line x1="260.874" y1="52.745" x2="275.114" y2="40.200"/>
<line x1="260.874" y1="52.745" x2="352.918" y2="40.200"/>
<line x1="260.874" y1="52.745" x2="207.733" y2="79.102"/>
<line x1="260.874" y1="52.745" x2="228.031" y2="102.142"/>
<line x1="275.114" y1="40.200" x2="230.773" y2="58.804"/>
<line x1="275.114" y1="40.200" x2="251.071" y2="81.843"/>
<line x1="352.918" y1="40.200" x2="356.662" y2="58.804"/>
<line x1="352.918" y1="40.200" x2="376.961" y2="81.843"/>
<line x1="304.212" y1="50.004" x2="230.773" y2="58.804"/>
<line x1="304.212" y1="50.004" x2="298.153" y2="97.706"/>
<line x1="430.102" y1="50.004" x2="356.662" y2="58.804"/>
<line x1="430.102" y1="50.004" x2="501.847" y2="97.706"/>
<line x1="207.733" y1="79.102" x2="189.129" y2="82.847"/>
<line x1="207.733" y1="79.102" x2="266.933" y2="82.847"/>
<line x1="207.733" y1="79.102" x2="142.047" y2="144.788"/>
<line x1="230.773" y1="58.804" x2="189.129" y2="82.847"/>
<line x1="230.773" y1="58.804" x2="179.326" y2="111.945"/>
<line x1="189.129" y1="82.847" x2="111.945" y2="150.847"/>
<line x1="356.662" y1="58.804" x2="266.933" y2="82.847"/>
<line x1="356.662" y1="58.804" x2="383.020" y2="111.945"/>
<line x1="266.933" y1="82.847" x2="237.835" y2="150.847"/>
<line x1="56.063" y1="400.000" x2="29.706" y2="346.859"/>
<line x1="56.063" y1="400.000" x2="107.510" y2="346.859"/>
<line x1="56.063" y1="400.000" x2="68.608" y2="492.043"/>
<line x1="56.063" y1="400.000" x2="68.608" y2="414.239"/>
<line x1="29.706" y1="346.859" x2="64.863" y2="260.874"/>
<line x1="29.706" y1="346.859" x2="25.961" y2="406.059"/>
<line x1="29.706" y1="346.859" x2="25.961" y2="328.255"/>
<line x1="107.510" y1="346.859" x2="112.949" y2="260.874"/>
<line x1="107.510" y1="346.859" x2="151.851" y2="406.059"/>
<line x1="107.510" y1="346.859" x2="151.851" y2="328.255"/>
<line x1="64.863" y1="260.874" x2="112.949" y2="260.874"/>
<line x1="64.863" y1="260.874" x2="82.847" y2="266.933"/>
<line x1="64.863" y1="260.874" x2="82.847" y2="189.129"/>
<line x1="112.949" y1="260.874" x2="160.651" y2="266.933"/>
<line x1="112.949" y1="260.874" x2="160.651" y2="189.129"/>
<line x1="97.706" y1="501.847" x2="145.792" y2="501.847"/>
<line x1="97.706" y1="501.847" x2="50.004" y2="495.788"/>
<line x1="97.706" y1="501.847" x2="103.145" y2="415.863"/>
<line x1="97.706" y1="501.847" x2="135.988" y2="579.031"/>
<line x1="145.792" y1="501.847" x2="127.808" y2="495.788"/>
<line x1="145.792" y1="501.847" x2="180.949" y2="415.863"/>
<line x1="145.792" y1="501.847" x2="213.792" y2="579.031"/>
<line x1="68.608" y1="492.043" x2="50.004" y2="495.788"/>
<line x1="68.608" y1="492.043" x2="127.808" y2="495.788"/>
<line x1="68.608" y1="492.043" x2="88.906" y2="563.168"/>
<line x1="50.004" y1="495.788" x2="25.961" y2="406.059"/>
<line x1="50.004" y1="495.788" x2="58.804" y2="569.227"/>
<line x1="127.808" y1="495.788" x2="151.851" y2="406.059"/>
<line x1="127.808" y1="495.788" x2="184.694" y2="569.227"/>
<line x1="154.592" y1="362.721" x2="103.145" y2="415.863"/>
<line x1="154.592" y1="362.721" x2="180.949" y2="415.863"/>
<line x1="154.592" y1="362.721" x2="142.047" y2="270.678"/>
<line x1="154.592" y1="362.721" x2="228.031" y2="353.921"/>
<line x1="103.145" y1="415.863" x2="58.804" y2="356.662"/>
<line x1="103.145" y1="415.863" x2="144.788" y2="439.905"/>
<line x1="180.949" y1="415.863" x2="184.694" y2="356.662"/>
<line x1="180.949" y1="415.863" x2="270.678" y2="439.905"/>
<line x1="25.961" y1="406.059" x2="58.804" y2="356.662"/>
<line x1="25.961" y1="406.059" x2="19.902" y2="424.043"/>
<line x1="151.851" y1="406.059" x2="184.694" y2="356.662"/>
<line x1="151.851" y1="406.059" x2="223.596" y2="424.043"/>
<line x1="142.047" y1="270.678" x2="82.847" y2="266.933"/>
<line x1="142.047" y1="270.678" x2="160.651" y2="266.933"/>
<line x1="58.804" y1="356.662" x2="82.847" y2="266.933"/>
<line x1="58.804" y1="356.662" x2="73.043" y2="344.117"/>
<line x1="82.847" y1="266.933" x2="111.945" y2="198.933"/>
<line x1="184.694" y1="356.662" x2="160.651" y2="266.933"/>
<line x1="184.694" y1="356.662" x2="276.737" y2="344.117"/>
<line x1="160.651" y1="266.933" x2="237.835" y2="198.933"/>
<line x1="97.706" y1="298.153" x2="145.792" y2="298.153"/>
<line x1="97.706" y1="298.153" x2="50.004" y2="369.898"/>
<line x1="97.706" y1="298.153" x2="103.145" y2="212.169"/>
<line x1="97.706" y1="298.153" x2="135.988" y2="327.251"/>
<line x1="145.792" y1="298.153" x2="127.808" y2="369.898"/>
<line x1="145.792" y1="298.153" x2="180.949" y2="212.169"/>
<line x1="145.792" y1="298.153" x2="213.792" y2="327.251"/>
<line x1="68.608" y1="414.239" x2="50.004" y2="369.898"/>
<line x1="68.608" y1="414.239" x2="127.808" y2="369.898"/>
<line x1="68.608" y1="414.239" x2="88.906" y2="515.083"/>
<line x1="50.004" y1="369.898" x2="25.961" y2="328.255"/>
<line x1="50.004" y1="369.898" x2="58.804" y2="443.338"/>
<line x1="127.808" y1="369.898" x2="151.851" y2="328.255"/>
<line x1="127.808" y1="369.898" x2="184.694" y2="443.338"/>
<line x1="154.592" y1="159.027" x2="103.145" y2="212.169"/>
<line x1="154.592" y1="159.027" x2="180.949" y2="212.169"/>
<line x1="154.592" y1="159.027" x2="142.047" y2="144.788"/>
<line x1="154.592" y1="159.027" x2="228.031" y2="102.142"/>
<line x1="103.145" y1="212.169" x2="58.804" y2="230.773"/>
<line x1="103.145" y1="212.169" x2="144.788" y2="188.126"/>
<line x1="180.949" y1="212.169" x2="184.694" y2="230.773"/>
<line x1="180.949" y1="212.169" x2="270.678" y2="188.126"/>
<line x1="25.961" y1="328.255" x2="58.804" y2="230.773"/>
<line x1="25.961" y1="328.255" x2="19.902" y2="375.957"/>
<line x1="151.851" y1="328.255" x2="184.694" y2="230.773"/>
<line x1="151.851" y1="328.255" x2="223.596" y2="375.957"/>
<line x1="142.047" y1="144.788" x2="82.847" y2="189.129"/>
<line x1="142.047" y1="144.788" x2="160.651" y2="189.129"/>
<line x1="58.804" y1="230.773" x2="82.847" y2="189.129"/>
<line x1="58.804" y1="230.773" x2="73.043" y2="218.228"/>
<line x1="82.847" y1="189.129" x2="111.945" y2="150.847"/>
<line x1="184.694" y1="230.773" x2="160.651" y2="189.129"/>
<line x1="184.694" y1="230.773" x2="276.737" y2="218.228"/>
<line x1="160.651" y1="189.129" x2="237.835" y2="150.847"/>
<line x1="571.969" y1="353.921" x2="553.365" y2="309.580"/>
<line x1="571.969" y1="353.921" x2="631.169" y2="309.580"/>
<line x1="571.969" y1="353.921" x2="592.267" y2="454.765"/>
<line x1="571.969" y1="353.921" x2="485.984" y2="348.482"/>
<line x1="553.365" y1="309.580" x2="601.067" y2="237.835"/>
<line x1="553.365" y1="309.580" x2="562.165" y2="383.020"/>
<line x1="553.365" y1="309.580" x2="455.883" y2="276.737"/>
<line x1="631.169" y1="309.580" x2="649.153" y2="237.835"/>
<line x1="631.169" y1="309.580" x2="688.055" y2="383.020"/>
<line x1="631.169" y1="309.580" x2="581.772" y2="276.737"/>
<line x1="601.067" y1="237.835" x2="649.153" y2="237.835"/>
<line x1="601.067" y1="237.835" x2="639.349" y2="266.933"/>
<line x1="601.067" y1="237.835" x2="533.067" y2="160.651"/>
<line x1="649.153" y1="237.835" x2="717.153" y2="266.933"/>
<line x1="649.153" y1="237.835" x2="610.871" y2="160.651"/>
<line x1="592.267" y1="454.765" x2="586.208" y2="472.749"/>
<line x1="592.267" y1="454.765" x2="664.012" y2="472.749"/>
<line x1="592.267" y1="454.765" x2="518.827" y2="511.651"/>
<line x1="586.208" y1="472.749" x2="562.165" y2="383.020"/>
<line x1="586.208" y1="472.749" x2="509.024" y2="540.749"/>
<line x1="664.012" y1="472.749" x2="688.055" y2="383.020"/>
<line x1="664.012" y1="472.749" x2="634.914" y2="540.749"/>
<line x1="711.094" y1="284.917" x2="639.349" y2="266.933"/>
<line x1="711.094" y1="284.917" x2="717.153" y2="266.933"/>
<line x1="711.094" y1="284.917" x2="711.094" y2="236.832"/>
<line x1="615.306" y1="356.662" x2="639.349" y2="266.933"/>
<line x1="615.306" y1="356.662" x2="562.165" y2="383.020"/>
<line x1="615.306" y1="356.662" x2="556.106" y2="352.918"/>
<line x1="639.349" y1="266.933" x2="595.008" y2="207.733"/>
<line x1="741.196" y1="356.662" x2="717.153" y2="266.933"/>
<line x1="741.196" y1="356.662" x2="688.055" y2="383.020"/>
<line x1="741.196" y1="356.662" x2="759.800" y2="352.918"/>
<line x1="717.153" y1="266.933" x2="720.898" y2="207.733"/>
<line x1="562.165" y1="383.020" x2="470.122" y2="395.565"/>
<line x1="688.055" y1="383.020" x2="673.816" y2="395.565"/>
<line x1="571.969" y1="102.142" x2="553.365" y2="105.886"/>
<line x1="571.969" y1="102.142" x2="631.169" y2="105.886"/>
<line x1="571.969" y1="102.142" x2="592.267" y2="173.267"/>
<line x1="571.969" y1="102.142" x2="485.984" y2="66.984"/>
<line x1="553.365" y1="105.886" x2="601.067" y2="111.945"/>
<line x1="553.365" y1="105.886" x2="562.165" y2="179.326"/>
<line x1="553.365" y1="105.886" x2="455.883" y2="73.043"/>
<line x1="631.169" y1="105.886" x2="649.153" y2="111.945"/>
<line x1="631.169" y1="105.886" x2="688.055" y2="179.326"/>
<line x1="631.169" y1="105.886" x2="581.772" y2="73.043"/>
<line x1="601.067" y1="111.945" x2="649.153" y2="111.945"/>
<line x1="601.067" y1="111.945" x2="639.349" y2="189.129"/>
<line x1="601.067" y1="111.945" x2="533.067" y2="82.847"/>
<line x1="649.153" y1="111.945" x2="717.153" y2="189.129"/>
<line x1="649.153" y1="111.945" x2="610.871" y2="82.847"/>
<line x1="592.267" y1="173.267" x2="586.208" y2="220.969"/>
<line x1="592.267" y1="173.267" x2="664.012" y2="220.969"/>
<line x1="592.267" y1="173.267" x2="518.827" y2="182.067"/>
<line x1="586.208" y1="220.969" x2="562.165" y2="179.326"/>
<line x1="586.208" y1="220.969" x2="509.024" y2="259.251"/>
<line x1="664.012" y1="220.969" x2="688.055" y2="179.326"/>
<line x1="664.012" y1="220.969" x2="634.914" y2="259.251"/>
<line x1="711.094" y1="236.832" x2="639.349" y2="189.129"/>
<line x1="711.094" y1="236.832" x2="717.153" y2="189.129"/>
<line x1="615.306" y1="230.773" x2="639.349" y2="189.129"/>
<line x1="615.306" y1="230.773" x2="562.165" y2="179.326"/>
<line x1="615.306" y1="230.773" x2="556.106" y2="275.114"/>
<line x1="639.349" y1="189.129" x2="595.008" y2="207.733"/>
<line x1="741.196" y1="230.773" x2="717.153" y2="189.129"/>
<line x1="741.196" y1="230.773" x2="688.055" y2="179.326"/>
<line x1="741.196" y1="230.773" x2="759.800" y2="275.114"/>
<line x1="717.153" y1="189.129" x2="720.898" y2="207.733"/>
<line x1="562.165" y1="179.326" x2="470.122" y2="191.871"/>
<line x1="688.055" y1="179.326" x2="673.816" y2="191.871"/>
<line x1="228.031" y1="697.858" x2="168.831" y2="694.114"/>
<line x1="228.031" y1="697.858" x2="246.635" y2="694.114"/>
<line x1="228.031" y1="697.858" x2="314.016" y2="733.016"/>
<line x1="228.031" y1="697.858" x2="207.733" y2="626.733"/>
<line x1="168.831" y1="694.114" x2="150.847" y2="688.055"/>
<line x1="168.831" y1="694.114" x2="218.228" y2="726.957"/>
<line x1="168.831" y1="694.114" x2="111.945" y2="620.674"/>
<line x1="246.635" y1="694.114" x2="198.933" y2="688.055"/>
<line x1="246.635" y1="694.114" x2="344.117" y2="726.957"/>
<line x1="246.635" y1="694.114" x2="237.835" y2="620.674"/>
<line x1="150.847" y1="688.055" x2="198.933" y2="688.055"/>
<line x1="150.847" y1="688.055" x2="189.129" y2="717.153"/>
<line x1="150.847" y1="688.055" x2="82.847" y2="610.871"/>
<line x1="198.933" y1="688.055" x2="266.933" y2="717.153"/>
<line x1="198.933" y1="688.055" x2="160.651" y2="610.871"/>
<line x1="314.016" y1="733.016" x2="307.957" y2="751.000"/>
<line x1="314.016" y1="733.016" x2="385.761" y2="751.000"/>
<line x1="314.016" y1="733.016" x2="346.859" y2="683.619"/>
<line x1="307.957" y1="751.000" x2="218.228" y2="726.957"/>
<line x1="307.957" y1="751.000" x2="337.055" y2="712.718"/>
<line x1="385.761" y1="751.000" x2="344.117" y2="726.957"/>
<line x1="385.761" y1="751.000" x2="462.945" y2="712.718"/>
<line x1="260.874" y1="735.137" x2="189.129" y2="717.153"/>
<line x1="260.874" y1="735.137" x2="266.933" y2="717.153"/>
<line x1="260.874" y1="735.137" x2="260.874" y2="687.051"/>
<line x1="230.773" y1="741.196" x2="189.129" y2="717.153"/>
<line x1="230.773" y1="741.196" x2="218.228" y2="726.957"/>
<line x1="230.773" y1="741.196" x2="212.169" y2="696.855"/>
<line x1="189.129" y1="717.153" x2="144.788" y2="657.953"/>
<line x1="356.662" y1="741.196" x2="266.933" y2="717.153"/>
<line x1="356.662" y1="741.196" x2="344.117" y2="726.957"/>
<line x1="356.662" y1="741.196" x2="415.863" y2="696.855"/>
<line x1="266.933" y1="717.153" x2="270.678" y2="657.953"/>
<line x1="218.228" y1="726.957" x2="191.871" y2="673.816"/>
<line x1="344.117" y1="726.957" x2="395.565" y2="673.816"/>
<line x1="228.031" y1="446.079" x2="168.831" y2="490.420"/>
<line x1="228.031" y1="446.079" x2="246.635" y2="490.420"/>
<line x1="228.031" y1="446.079" x2="314.016" y2="451.518"/>
<line x1="228.031" y1="446.079" x2="207.733" y2="345.235"/>
<line x1="168.831" y1="490.420" x2="150.847" y2="562.165"/>
<line x1="168.831" y1="490.420" x2="218.228" y2="523.263"/>
<line x1="168.831" y1="490.420" x2="111.945" y2="416.980"/>
<line x1="246.635" y1="490.420" x2="198.933" y2="562.165"/>
<line x1="246.635" y1="490.420" x2="344.117" y2="523.263"/>
<line x1="246.635" y1="490.420" x2="237.835" y2="416.980"/>
<line x1="150.847" y1="562.165" x2="198.933" y2="562.165"/>
<line x1="150.847" y1="562.165" x2="189.129" y2="639.349"/>
<line x1="150.847" y1="562.165" x2="82.847" y2="533.067"/>
<line x1="198.933" y1="562.165" x2="266.933" y2="639.349"/>
<line x1="198.933" y1="562.165" x2="160.651" y2="533.067"/>
<line x1="314.016" y1="451.518" x2="307.957" y2="499.220"/>
<line x1="314.016" y1="451.518" x2="385.761" y2="499.220"/>
<line x1="314.016" y1="451.518" x2="346.859" y2="354.036"/>
<line x1="307.957" y1="499.220" x2="218.228" y2="523.263"/>
<line x1="307.957" y1="499.220" x2="337.055" y2="431.220"/>
<line x1="385.761" y1="499.220" x2="344.117" y2="523.263"/>
<line x1="385.761" y1="499.220" x2="462.945" y2="431.220"/>
<line x1="260.874" y1="687.051" x2="189.129" y2="639.349"/>
<line x1="260.874" y1="687.051" x2="266.933" y2="639.349"/>
<line x1="230.773" y1="615.306" x2="189.129" y2="639.349"/>
<line x1="230.773" y1="615.306" x2="218.228" y2="523.263"/>
<line x1="230.773" y1="615.306" x2="212.169" y2="619.051"/>
<line x1="189.129" y1="639.349" x2="144.788" y2="657.953"/>
<line x1="356.662" y1="615.306" x2="266.933" y2="639.349"/>
<line x1="356.662" y1="615.306" x2="344.117" y2="523.263"/>
<line x1="356.662" y1="615.306" x2="415.863" y2="619.051"/>
<line x1="266.933" y1="639.349" x2="270.678" y2="657.953"/>
<line x1="218.228" y1="523.263" x2="191.871" y2="470.122"/>
<line x1="344.117" y1="523.263" x2="395.565" y2="470.122"/>
<line x1="485.984" y1="348.482" x2="414.239" y2="300.780"/>
<line x1="485.984" y1="348.482" x2="492.043" y2="300.780"/>
<line x1="485.984" y1="348.482" x2="453.141" y2="445.964"/>
<line x1="414.239" y1="300.780" x2="455.883" y2="276.737"/>
<line x1="414.239" y1="300.780" x2="337.055" y2="368.780"/>
<line x1="492.043" y1="300.780" x2="581.772" y2="276.737"/>
<line x1="492.043" y1="300.780" x2="462.945" y2="368.780"/>
<line x1="539.126" y1="112.949" x2="533.067" y2="160.651"/>
<line x1="539.126" y1="112.949" x2="610.871" y2="160.651"/>
<line x1="539.126" y1="112.949" x2="539.126" y2="64.863"/>
<line x1="443.338" y1="184.694" x2="533.067" y2="160.651"/>
<line x1="443.338" y1="184.694" x2="455.883" y2="276.737"/>
<line x1="443.338" y1="184.694" x2="384.137" y2="180.949"/>
<line x1="533.067" y1="160.651" x2="529.322" y2="142.047"/>
<line x1="569.227" y1="184.694" x2="610.871" y2="160.651"/>
<line x1="569.227" y1="184.694" x2="581.772" y2="276.737"/>
<line x1="569.227" y1="184.694" x2="587.831" y2="180.949"/>
<line x1="610.871" y1="160.651" x2="655.212" y2="142.047"/>
<line x1="455.883" y1="276.737" x2="404.435" y2="329.878"/>
<line x1="581.772" y1="276.737" x2="608.129" y2="329.878"/>
<line x1="485.984" y1="66.984" x2="414.239" y2="49.000"/>
<line x1="485.984" y1="66.984" x2="492.043" y2="49.000"/>
<line x1="485.984" y1="66.984" x2="453.141" y2="116.381"/>
<line x1="414.239" y1="49.000" x2="455.883" y2="73.043"/>
<line x1="414.239" y1="49.000" x2="337.055" y2="87.282"/>
<line x1="492.043" y1="49.000" x2="581.772" y2="73.043"/>
<line x1="492.043" y1="49.000" x2="462.945" y2="87.282"/>
<line x1="539.126" y1="64.863" x2="533.067" y2="82.847"/>
<line x1="539.126" y1="64.863" x2="610.871" y2="82.847"/>
<line x1="443.338" y1="58.804" x2="533.067" y2="82.847"/>
<line x1="443.338" y1="58.804" x2="455.883" y2="73.043"/>
<line x1="443.338" y1="58.804" x2="384.137" y2="103.145"/>
<line x1="533.067" y1="82.847" x2="529.322" y2="142.047"/>
<line x1="569.227" y1="58.804" x2="610.871" y2="82.847"/>
<line x1="569.227" y1="58.804" x2="581.772" y2="73.043"/>
<line x1="569.227" y1="58.804" x2="587.831" y2="103.145"/>
<line x1="610.871" y1="82.847" x2="655.212" y2="142.047"/>
<line x1="455.883" y1="73.043" x2="404.435" y2="126.184"/>
<line x1="581.772" y1="73.043" x2="608.129" y2="126.184"/>
<line x1="207.733" y1="626.733" x2="135.988" y2="579.031"/>
<line x1="207.733" y1="626.733" x2="213.792" y2="579.031"/>
<line x1="207.733" y1="626.733" x2="281.173" y2="617.933"/>
<line x1="135.988" y1="579.031" x2="111.945" y2="620.674"/>
<line x1="135.988" y1="579.031" x2="165.086" y2="540.749"/>
<line x1="213.792" y1="579.031" x2="237.835" y2="620.674"/>
<line x1="213.792" y1="579.031" x2="290.976" y2="540.749"/>
<line x1="88.906" y1="563.168" x2="82.847" y2="610.871"/>
<line x1="88.906" y1="563.168" x2="160.651" y2="610.871"/>
<line x1="88.906" y1="563.168" x2="88.906" y2="515.083"/>
<line x1="58.804" y1="569.227" x2="82.847" y2="610.871"/>
<line x1="58.804" y1="569.227" x2="111.945" y2="620.674"/>
<line x1="58.804" y1="569.227" x2="40.200" y2="524.886"/>
<line x1="82.847" y1="610.871" x2="79.102" y2="592.267"/>
<line x1="184.694" y1="569.227" x2="160.651" y2="610.871"/>
<line x1="184.694" y1="569.227" x2="237.835" y2="620.674"/>
<line x1="184.694" y1="569.227" x2="243.894" y2="524.886"/>
<line x1="160.651" y1="610.871" x2="204.992" y2="592.267"/>
<line x1="111.945" y1="620.674" x2="126.184" y2="608.129"/>
<line x1="237.835" y1="620.674" x2="329.878" y2="608.129"/>
<line x1="207.733" y1="345.235" x2="135.988" y2="327.251"/>
<line x1="207.733" y1="345.235" x2="213.792" y2="327.251"/>
<line x1="207.733" y1="345.235" x2="281.173" y2="288.349"/>
<line x1="135.988" y1="327.251" x2="111.945" y2="416.980"/>
<line x1="135.988" y1="327.251" x2="165.086" y2="259.251"/>
<line x1="213.792" y1="327.251" x2="237.835" y2="416.980"/>
<line x1="213.792" y1="327.251" x2="290.976" y2="259.251"/>
<line x1="88.906" y1="515.083" x2="82.847" y2="533.067"/>
<line x1="88.906" y1="515.083" x2="160.651" y2="533.067"/>
<line x1="58.804" y1="443.338" x2="82.847" y2="533.067"/>
<line x1="58.804" y1="443.338" x2="111.945" y2="416.980"/>
<line x1="58.804" y1="443.338" x2="40.200" y2="447.082"/>
<line x1="82.847" y1="533.067" x2="79.102" y2="592.267"/>
<line x1="184.694" y1="443.338" x2="160.651" y2="533.067"/>
<line x1="184.694" y1="443.338" x2="237.835" y2="416.980"/>
<line x1="184.694" y1="443.338" x2="243.894" y2="447.082"/>
<line x1="160.651" y1="533.067" x2="204.992" y2="592.267"/>
<line x1="111.945" y1="416.980" x2="126.184" y2="404.435"/>
<line x1="237.835" y1="416.980" x2="329.878" y2="404.435"/>
<line x1="571.969" y1="697.858" x2="500.223" y2="679.875"/>
<line x1="571.969" y1="697.858" x2="578.028" y2="679.875"/>
<line x1="500.223" y1="679.875" x2="461.942" y2="650.776"/>
<line x1="500.223" y1="679.875" x2="529.322" y2="611.874"/>
<line x1="500.223" y1="679.875" x2="423.039" y2="718.157"/>
<line x1="578.028" y1="679.875" x2="510.027" y2="650.776"/>
<line x1="578.028" y1="679.875" x2="655.212" y2="611.874"/>
<line x1="578.028" y1="679.875" x2="548.929" y2="718.157"/>
<line x1="461.942" y1="650.776" x2="510.027" y2="650.776"/>
<line x1="461.942" y1="650.776" x2="467.380" y2="564.792"/>
<line x1="461.942" y1="650.776" x2="361.098" y2="671.074"/>
<line x1="510.027" y1="650.776" x2="545.185" y2="564.792"/>
<line x1="510.027" y1="650.776" x2="438.902" y2="671.074"/>
<line x1="529.322" y1="611.874" x2="509.024" y2="540.749"/>
<line x1="529.322" y1="611.874" x2="470.122" y2="608.129"/>
<line x1="655.212" y1="611.874" x2="634.914" y2="540.749"/>
<line x1="655.212" y1="611.874" x2="673.816" y2="608.129"/>
<line x1="518.827" y1="511.651" x2="467.380" y2="564.792"/>
<line x1="518.827" y1="511.651" x2="545.185" y2="564.792"/>
<line x1="518.827" y1="511.651" x2="453.141" y2="445.964"/>
<line x1="509.024" y1="540.749" x2="467.380" y2="564.792"/>
<line x1="509.024" y1="540.749" x2="437.279" y2="493.047"/>
<line x1="467.380" y1="564.792" x2="369.898" y2="531.949"/>
<line x1="634.914" y1="540.749" x2="545.185" y2="564.792"/>
<line x1="634.914" y1="540.749" x2="640.973" y2="493.047"/>
<line x1="545.185" y1="564.792" x2="495.788" y2="531.949"/>
<line x1="571.969" y1="446.079" x2="500.223" y2="398.376"/>
<line x1="571.969" y1="446.079" x2="578.028" y2="398.376"/>
<line x1="500.223" y1="398.376" x2="461.942" y2="321.192"/>
<line x1="500.223" y1="398.376" x2="529.322" y2="360.095"/>
<line x1="500.223" y1="398.376" x2="423.039" y2="466.377"/>
<line x1="578.028" y1="398.376" x2="510.027" y2="321.192"/>
<line x1="578.028" y1="398.376" x2="655.212" y2="360.095"/>
<line x1="578.028" y1="398.376" x2="548.929" y2="466.377"/>
<line x1="461.942" y1="321.192" x2="510.027" y2="321.192"/>
<line x1="461.942" y1="321.192" x2="467.380" y2="235.208"/>
<line x1="461.942" y1="321.192" x2="361.098" y2="341.491"/>
<line x1="510.027" y1="321.192" x2="545.185" y2="235.208"/>
<line x1="510.027" y1="321.192" x2="438.902" y2="341.491"/>
<line x1="529.322" y1="360.095" x2="509.024" y2="259.251"/>
<line x1="529.322" y1="360.095" x2="470.122" y2="404.435"/>
<line x1="655.212" y1="360.095" x2="634.914" y2="259.251"/>
<line x1="655.212" y1="360.095" x2="673.816" y2="404.435"/>
<line x1="518.827" y1="182.067" x2="467.380" y2="235.208"/>
<line x1="518.827" y1="182.067" x2="545.185" y2="235.208"/>
<line x1="518.827" y1="182.067" x2="453.141" y2="116.381"/>
<line x1="509.024" y1="259.251" x2="467.380" y2="235.208"/>
<line x1="509.024" y1="259.251" x2="437.279" y2="241.267"/>
<line x1="467.380" y1="235.208" x2="369.898" y2="202.365"/>
<line x1="634.914" y1="259.251" x2="545.185" y2="235.208"/>
<line x1="634.914" y1="259.251" x2="640.973" y2="241.267"/>
<line x1="545.185" y1="235.208" x2="495.788" y2="202.365"/>
<line x1="423.039" y1="718.157" x2="337.055" y2="712.718"/>
<line x1="423.039" y1="718.157" x2="404.435" y2="673.816"/>
<line x1="548.929" y1="718.157" x2="462.945" y2="712.718"/>
<line x1="548.929" y1="718.157" x2="608.129" y2="673.816"/>
<line x1="346.859" y1="683.619" x2="361.098" y2="671.074"/>
<line x1="346.859" y1="683.619" x2="438.902" y2="671.074"/>
<line x1="346.859" y1="683.619" x2="281.173" y2="617.933"/>
<line x1="337.055" y1="712.718" x2="361.098" y2="671.074"/>
<line x1="337.055" y1="712.718" x2="265.310" y2="665.015"/>
<line x1="361.098" y1="671.074" x2="304.212" y2="597.635"/>
<line x1="462.945" y1="712.718" x2="438.902" y2="671.074"/>
<line x1="462.945" y1="712.718" x2="469.004" y2="665.015"/>
<line x1="438.902" y1="671.074" x2="430.102" y2="597.635"/>
<line x1="423.039" y1="466.377" x2="337.055" y2="431.220"/>
<line x1="423.039" y1="466.377" x2="404.435" y2="470.122"/>
<line x1="548.929" y1="466.377" x2="462.945" y2="431.220"/>
<line x1="548.929" y1="466.377" x2="608.129" y2="470.122"/>
<line x1="346.859" y1="354.036" x2="361.098" y2="341.491"/>
<line x1="346.859" y1="354.036" x2="438.902" y2="341.491"/>
<line x1="346.859" y1="354.036" x2="281.173" y2="288.349"/>
<line x1="337.055" y1="431.220" x2="361.098" y2="341.491"/>
<line x1="337.055" y1="431.220" x2="265.310" y2="413.236"/>
<line x1="361.098" y1="341.491" x2="304.212" y2="268.051"/>
<line x1="462.945" y1="431.220" x2="438.902" y2="341.491"/>
<line x1="462.945" y1="431.220" x2="469.004" y2="413.236"/>
<line x1="438.902" y1="341.491" x2="430.102" y2="268.051"/>
<line x1="228.031" y1="353.921" x2="221.972" y2="401.624"/>
<line x1="228.031" y1="353.921" x2="299.777" y2="401.624"/>
<line x1="221.972" y1="401.624" x2="289.973" y2="478.808"/>
<line x1="221.972" y1="401.624" x2="251.071" y2="333.623"/>
<line x1="221.972" y1="401.624" x2="144.788" y2="439.905"/>
<line x1="299.777" y1="401.624" x2="338.058" y2="478.808"/>
<line x1="299.777" y1="401.624" x2="376.961" y2="333.623"/>
<line x1="299.777" y1="401.624" x2="270.678" y2="439.905"/>
<line x1="289.973" y1="478.808" x2="338.058" y2="478.808"/>
<line x1="289.973" y1="478.808" x2="361.098" y2="458.509"/>
<line x1="289.973" y1="478.808" x2="254.815" y2="564.792"/>
<line x1="338.058" y1="478.808" x2="438.902" y2="458.509"/>
<line x1="338.058" y1="478.808" x2="332.620" y2="564.792"/>
<line x1="251.071" y1="333.623" x2="337.055" y2="368.780"/>
<line x1="251.071" y1="333.623" x2="191.871" y2="329.878"/>
<line x1="376.961" y1="333.623" x2="462.945" y2="368.780"/>
<line x1="376.961" y1="333.623" x2="395.565" y2="329.878"/>
<line x1="453.141" y1="445.964" x2="361.098" y2="458.509"/>
<line x1="453.141" y1="445.964" x2="438.902" y2="458.509"/>
<line x1="337.055" y1="368.780" x2="361.098" y2="458.509"/>
<line x1="337.055" y1="368.780" x2="330.996" y2="386.764"/>
<line x1="361.098" y1="458.509" x2="369.898" y2="531.949"/>
<line x1="462.945" y1="368.780" x2="438.902" y2="458.509"/>
<line x1="462.945" y1="368.780" x2="534.690" y2="386.764"/>
<line x1="438.902" y1="458.509" x2="495.788" y2="531.949"/>
<line x1="228.031" y1="102.142" x2="221.972" y2="120.125"/>
<line x1="228.031" y1="102.142" x2="299.777" y2="120.125"/>
<line x1="221.972" y1="120.125" x2="289.973" y2="149.224"/>
<line x1="221.972" y1="120.125" x2="251.071" y2="81.843"/>
<line x1="221.972" y1="120.125" x2="144.788" y2="188.126"/>
<line x1="299.777" y1="120.125" x2="338.058" y2="149.224"/>
<line x1="299.777" y1="120.125" x2="376.961" y2="81.843"/>
<line x1="299.777" y1="120.125" x2="270.678" y2="188.126"/>
<line x1="289.973" y1="149.224" x2="338.058" y2="149.224"/>
<line x1="289.973" y1="149.224" x2="361.098" y2="128.926"/>
<line x1="289.973" y1="149.224" x2="254.815" y2="235.208"/>
<line x1="338.058" y1="149.224" x2="438.902" y2="128.926"/>
<line x1="338.058" y1="149.224" x2="332.620" y2="235.208"/>
<line x1="251.071" y1="81.843" x2="337.055" y2="87.282"/>
<line x1="251.071" y1="81.843" x2="191.871" y2="126.184"/>
<line x1="376.961" y1="81.843" x2="462.945" y2="87.282"/>
<line x1="376.961" y1="81.843" x2="395.565" y2="126.184"/>
<line x1="453.141" y1="116.381" x2="361.098" y2="128.926"/>
<line x1="453.141" y1="116.381" x2="438.902" y2="128.926"/>
<line x1="337.055" y1="87.282" x2="361.098" y2="128.926"/>
<line x1="337.055" y1="87.282" x2="330.996" y2="134.985"/>
<line x1="361.098" y1="128.926" x2="369.898" y2="202.365"/>
<line x1="462.945" y1="87.282" x2="438.902" y2="128.926"/>
<line x1="462.945" y1="87.282" x2="534.690" y2="134.985"/>
<line x1="438.902" y1="128.926" x2="495.788" y2="202.365"/>
<line x1="144.788" y1="439.905" x2="165.086" y2="540.749"/>
<line x1="144.788" y1="439.905" x2="126.184" y2="395.565"/>
<line x1="270.678" y1="439.905" x2="290.976" y2="540.749"/>
<line x1="270.678" y1="439.905" x2="329.878" y2="395.565"/>
<line x1="281.173" y1="617.933" x2="254.815" y2="564.792"/>
<line x1="281.173" y1="617.933" x2="332.620" y2="564.792"/>
<line x1="165.086" y1="540.749" x2="254.815" y2="564.792"/>
<line x1="165.086" y1="540.749" x2="159.027" y2="558.733"/>
<line x1="254.815" y1="564.792" x2="304.212" y2="597.635"/>
<line x1="290.976" y1="540.749" x2="332.620" y2="564.792"/>
<line x1="290.976" y1="540.749" x2="362.721" y2="558.733"/>
<line x1="332.620" y1="564.792" x2="430.102" y2="597.635"/>
<line x1="144.788" y1="188.126" x2="165.086" y2="259.251"/>
<line x1="144.788" y1="188.126" x2="126.184" y2="191.871"/>
<line x1="270.678" y1="188.126" x2="290.976" y2="259.251"/>
<line x1="270.678" y1="188.126" x2="329.878" y2="191.871"/>
<line x1="281.173" y1="288.349" x2="254.815" y2="235.208"/>
<line x1="281.173" y1="288.349" x2="332.620" y2="235.208"/>
<line x1="165.086" y1="259.251" x2="254.815" y2="235.208"/>
<line x1="165.086" y1="259.251" x2="159.027" y2="306.953"/>
<line x1="254.815" y1="235.208" x2="304.212" y2="268.051"/>
<line x1="290.976" y1="259.251" x2="332.620" y2="235.208"/>
<line x1="290.976" y1="259.251" x2="362.721" y2="306.953"/>
<line x1="332.620" y1="235.208" x2="430.102" y2="268.051"/>
<line x1="576.404" y1="424.043" x2="576.404" y2="375.957"/>
<line x1="576.404" y1="424.043" x2="556.106" y2="352.918"/>
<line x1="576.404" y1="424.043" x2="499.220" y2="492.043"/>
<line x1="576.404" y1="375.957" x2="556.106" y2="275.114"/>
<line x1="576.404" y1="375.957" x2="499.220" y2="414.239"/>
<line x1="543.561" y1="260.874" x2="595.008" y2="207.733"/>
<line x1="543.561" y1="260.874" x2="556.106" y2="352.918"/>
<line x1="543.561" y1="260.874" x2="556.106" y2="275.114"/>
<line x1="543.561" y1="260.874" x2="446.079" y2="228.031"/>
<line x1="595.008" y1="207.733" x2="529.322" y2="142.047"/>
<line x1="556.106" y1="352.918" x2="466.377" y2="376.961"/>
<line x1="556.106" y1="275.114" x2="466.377" y2="251.071"/>
<line x1="780.098" y1="424.043" x2="780.098" y2="375.957"/>
<line x1="780.098" y1="424.043" x2="759.800" y2="352.918"/>
<line x1="780.098" y1="424.043" x2="751.000" y2="492.043"/>
<line x1="780.098" y1="375.957" x2="759.800" y2="275.114"/>
<line x1="780.098" y1="375.957" x2="751.000" y2="414.239"/>
<line x1="747.255" y1="260.874" x2="720.898" y2="207.733"/>
<line x1="747.255" y1="260.874" x2="759.800" y2="352.918"/>
<line x1="747.255" y1="260.874" x2="759.800" y2="275.114"/>
<line x1="747.255" y1="260.874" x2="697.858" y2="228.031"/>
<line x1="720.898" y1="207.733" x2="655.212" y2="142.047"/>
<line x1="759.800" y1="352.918" x2="718.157" y2="376.961"/>
<line x1="759.800" y1="275.114" x2="718.157" y2="251.071"/>
<line x1="298.153" y1="702.294" x2="298.153" y2="654.208"/>
<line x1="298.153" y1="702.294" x2="212.169" y2="696.855"/>
<line x1="298.153" y1="702.294" x2="327.251" y2="664.012"/>
<line x1="298.153" y1="654.208" x2="212.169" y2="619.051"/>
<line x1="298.153" y1="654.208" x2="327.251" y2="586.208"/>
<line x1="159.027" y1="645.408" x2="144.788" y2="657.953"/>
<line x1="159.027" y1="645.408" x2="212.169" y2="696.855"/>
<line x1="159.027" y1="645.408" x2="212.169" y2="619.051"/>
<line x1="159.027" y1="645.408" x2="102.142" y2="571.969"/>
<line x1="144.788" y1="657.953" x2="79.102" y2="592.267"/>
<line x1="212.169" y1="696.855" x2="188.126" y2="655.212"/>
<line x1="212.169" y1="619.051" x2="188.126" y2="529.322"/>
<line x1="501.847" y1="702.294" x2="501.847" y2="654.208"/>
<line x1="501.847" y1="702.294" x2="415.863" y2="696.855"/>
<line x1="501.847" y1="702.294" x2="579.031" y2="664.012"/>
<line x1="501.847" y1="654.208" x2="415.863" y2="619.051"/>
<line x1="501.847" y1="654.208" x2="579.031" y2="586.208"/>
<line x1="362.721" y1="645.408" x2="270.678" y2="657.953"/>
<line x1="362.721" y1="645.408" x2="415.863" y2="696.855"/>
<line x1="362.721" y1="645.408" x2="415.863" y2="619.051"/>
<line x1="362.721" y1="645.408" x2="353.921" y2="571.969"/>
<line x1="270.678" y1="657.953" x2="204.992" y2="592.267"/>
<line x1="415.863" y1="696.855" x2="439.905" y2="655.212"/>
<line x1="415.863" y1="619.051" x2="439.905" y2="529.322"/>
<line x1="298.153" y1="145.792" x2="298.153" y2="97.706"/>
<line x1="298.153" y1="145.792" x2="384.137" y2="180.949"/>
<line x1="298.153" y1="145.792" x2="220.969" y2="213.792"/>
<line x1="298.153" y1="97.706" x2="384.137" y2="103.145"/>
<line x1="298.153" y1="97.706" x2="220.969" y2="135.988"/>
<line x1="437.279" y1="154.592" x2="529.322" y2="142.047"/>
<line x1="437.279" y1="154.592" x2="384.137" y2="180.949"/>
<line x1="437.279" y1="154.592" x2="384.137" y2="103.145"/>
<line x1="437.279" y1="154.592" x2="446.079" y2="228.031"/>
<line x1="384.137" y1="180.949" x2="360.095" y2="270.678"/>
<line x1="384.137" y1="103.145" x2="360.095" y2="144.788"/>
<line x1="501.847" y1="145.792" x2="501.847" y2="97.706"/>
<line x1="501.847" y1="145.792" x2="587.831" y2="180.949"/>
<line x1="501.847" y1="145.792" x2="472.749" y2="213.792"/>
<line x1="501.847" y1="97.706" x2="587.831" y2="103.145"/>
<line x1="501.847" y1="97.706" x2="472.749" y2="135.988"/>
<line x1="640.973" y1="154.592" x2="655.212" y2="142.047"/>
<line x1="640.973" y1="154.592" x2="587.831" y2="180.949"/>
<line x1="640.973" y1="154.592" x2="587.831" y2="103.145"/>
<line x1="640.973" y1="154.592" x2="697.858" y2="228.031"/>
<line x1="587.831" y1="180.949" x2="611.874" y2="270.678"/>
<line x1="587.831" y1="103.145" x2="611.874" y2="144.788"/>
<line x1="19.902" y1="424.043" x2="19.902" y2="375.957"/>
<line x1="19.902" y1="424.043" x2="40.200" y2="524.886"/>
<line x1="19.902" y1="424.043" x2="49.000" y2="385.761"/>
<line x1="19.902" y1="375.957" x2="40.200" y2="447.082"/>
<line x1="19.902" y1="375.957" x2="49.000" y2="307.957"/>
<line x1="52.745" y1="539.126" x2="79.102" y2="592.267"/>
<line x1="52.745" y1="539.126" x2="40.200" y2="524.886"/>
<line x1="52.745" y1="539.126" x2="40.200" y2="447.082"/>
<line x1="52.745" y1="539.126" x2="102.142" y2="571.969"/>
<line x1="40.200" y1="524.886" x2="81.843" y2="548.929"/>
<line x1="40.200" y1="447.082" x2="81.843" y2="423.039"/>
<line x1="223.596" y1="424.043" x2="223.596" y2="375.957"/>
<line x1="223.596" y1="424.043" x2="243.894" y2="524.886"/>
<line x1="223.596" y1="424.043" x2="300.780" y2="385.761"/>
<line x1="223.596" y1="375.957" x2="243.894" y2="447.082"/>
<line x1="223.596" y1="375.957" x2="300.780" y2="307.957"/>
<line x1="256.439" y1="539.126" x2="204.992" y2="592.267"/>
<line x1="256.439" y1="539.126" x2="243.894" y2="524.886"/>
<line x1="256.439" y1="539.126" x2="243.894" y2="447.082"/>
<line x1="256.439" y1="539.126" x2="353.921" y2="571.969"/>
<line x1="243.894" y1="524.886" x2="333.623" y2="548.929"/>
<line x1="243.894" y1="447.082" x2="333.623" y2="423.039"/>
<line x1="490.420" y1="631.169" x2="562.165" y2="649.153"/>
<line x1="490.420" y1="631.169" x2="523.263" y2="581.772"/>
<line x1="490.420" y1="631.169" x2="416.980" y2="688.055"/>
<line x1="490.420" y1="631.169" x2="446.079" y2="571.969"/>
<line x1="562.165" y1="649.153" x2="562.165" y2="601.067"/>
<line x1="523.263" y1="581.772" x2="470.122" y2="608.129"/>
<line x1="523.263" y1="581.772" x2="499.220" y2="492.043"/>
<line x1="416.980" y1="688.055" x2="404.435" y2="673.816"/>
<line x1="416.980" y1="688.055" x2="327.251" y2="664.012"/>
<line x1="470.122" y1="608.129" x2="404.435" y2="673.816"/>
<line x1="470.122" y1="608.129" x2="413.236" y2="534.690"/>
<line x1="404.435" y1="673.816" x2="306.953" y2="640.973"/>
<line x1="694.114" y1="631.169" x2="688.055" y2="649.153"/>
<line x1="694.114" y1="631.169" x2="726.957" y2="581.772"/>
<line x1="694.114" y1="631.169" x2="620.674" y2="688.055"/>
<line x1="694.114" y1="631.169" x2="697.858" y2="571.969"/>
<line x1="688.055" y1="649.153" x2="688.055" y2="601.067"/>
<line x1="726.957" y1="581.772" x2="673.816" y2="608.129"/>
<line x1="726.957" y1="581.772" x2="751.000" y2="492.043"/>
<line x1="620.674" y1="688.055" x2="608.129" y2="673.816"/>
<line x1="620.674" y1="688.055" x2="579.031" y2="664.012"/>
<line x1="673.816" y1="608.129" x2="608.129" y2="673.816"/>
<line x1="673.816" y1="608.129" x2="665.015" y2="534.690"/>
<line x1="608.129" y1="673.816" x2="558.733" y2="640.973"/>
<line x1="490.420" y1="553.365" x2="562.165" y2="601.067"/>
<line x1="490.420" y1="553.365" x2="523.263" y2="455.883"/>
<line x1="490.420" y1="553.365" x2="416.980" y2="562.165"/>
<line x1="490.420" y1="553.365" x2="446.079" y2="571.969"/>
<line x1="523.263" y1="455.883" x2="470.122" y2="404.435"/>
<line x1="523.263" y1="455.883" x2="499.220" y2="414.239"/>
<line x1="416.980" y1="562.165" x2="404.435" y2="470.122"/>
<line x1="416.980" y1="562.165" x2="327.251" y2="586.208"/>
<line x1="470.122" y1="404.435" x2="404.435" y2="470.122"/>
<line x1="470.122" y1="404.435" x2="413.236" y2="330.996"/>
<line x1="404.435" y1="470.122" x2="306.953" y2="437.279"/>
<line x1="694.114" y1="553.365" x2="688.055" y2="601.067"/>
<line x1="694.114" y1="553.365" x2="726.957" y2="455.883"/>
<line x1="694.114" y1="553.365" x2="620.674" y2="562.165"/>
<line x1="694.114" y1="553.365" x2="697.858" y2="571.969"/>
<line x1="726.957" y1="455.883" x2="673.816" y2="404.435"/>
<line x1="726.957" y1="455.883" x2="751.000" y2="414.239"/>
<line x1="620.674" y1="562.165" x2="608.129" y2="470.122"/>
<line x1="620.674" y1="562.165" x2="579.031" y2="586.208"/>
<line x1="673.816" y1="404.435" x2="608.129" y2="470.122"/>
<line x1="673.816" y1="404.435" x2="665.015" y2="330.996"/>
<line x1="608.129" y1="470.122" x2="558.733" y2="437.279"/>
<line x1="105.886" y1="246.635" x2="111.945" y2="198.933"/>
<line x1="105.886" y1="246.635" x2="179.326" y2="237.835"/>
<line x1="105.886" y1="246.635" x2="73.043" y2="344.117"/>
<line x1="105.886" y1="246.635" x2="102.142" y2="228.031"/>
<line x1="111.945" y1="198.933" x2="111.945" y2="150.847"/>
<line x1="179.326" y1="237.835" x2="191.871" y2="329.878"/>
<line x1="179.326" y1="237.835" x2="220.969" y2="213.792"/>
<line x1="73.043" y1="344.117" x2="126.184" y2="395.565"/>
<line x1="73.043" y1="344.117" x2="49.000" y2="385.761"/>
<line x1="191.871" y1="329.878" x2="126.184" y2="395.565"/>
<line x1="191.871" y1="329.878" x2="241.267" y2="362.721"/>
<line x1="126.184" y1="395.565" x2="134.985" y2="469.004"/>
<line x1="309.580" y1="246.635" x2="237.835" y2="198.933"/>
<line x1="309.580" y1="246.635" x2="383.020" y2="237.835"/>
<line x1="309.580" y1="246.635" x2="276.737" y2="344.117"/>
<line x1="309.580" y1="246.635" x2="353.921" y2="228.031"/>
<line x1="237.835" y1="198.933" x2="237.835" y2="150.847"/>
<line x1="383.020" y1="237.835" x2="395.565" y2="329.878"/>
<line x1="383.020" y1="237.835" x2="472.749" y2="213.792"/>
<line x1="276.737" y1="344.117" x2="329.878" y2="395.565"/>
<line x1="276.737" y1="344.117" x2="300.780" y2="385.761"/>
<line x1="395.565" y1="329.878" x2="329.878" y2="395.565"/>
<line x1="395.565" y1="329.878" x2="493.047" y2="362.721"/>
<line x1="329.878" y1="395.565" x2="386.764" y2="469.004"/>
<line x1="105.886" y1="168.831" x2="111.945" y2="150.847"/>
<line x1="105.886" y1="168.831" x2="179.326" y2="111.945"/>
<line x1="105.886" y1="168.831" x2="73.043" y2="218.228"/>
<line x1="105.886" y1="168.831" x2="102.142" y2="228.031"/>
<line x1="179.326" y1="111.945" x2="191.871" y2="126.184"/>
<line x1="179.326" y1="111.945" x2="220.969" y2="135.988"/>
<line x1="73.043" y1="218.228" x2="126.184" y2="191.871"/>
<line x1="73.043" y1="218.228" x2="49.000" y2="307.957"/>
<line x1="191.871" y1="126.184" x2="126.184" y2="191.871"/>
<line x1="191.871" y1="126.184" x2="241.267" y2="159.027"/>
<line x1="126.184" y1="191.871" x2="134.985" y2="265.310"/>
<line x1="309.580" y1="168.831" x2="237.835" y2="150.847"/>
<line x1="309.580" y1="168.831" x2="383.020" y2="111.945"/>
<line x1="309.580" y1="168.831" x2="276.737" y2="218.228"/>
<line x1="309.580" y1="168.831" x2="353.921" y2="228.031"/>
<line x1="383.020" y1="111.945" x2="395.565" y2="126.184"/>
<line x1="383.020" y1="111.945" x2="472.749" y2="135.988"/>
<line x1="276.737" y1="218.228" x2="329.878" y2="191.871"/>
<line x1="276.737" y1="218.228" x2="300.780" y2="307.957"/>
<line x1="395.565" y1="126.184" x2="329.878" y2="191.871"/>
<line x1="395.565" y1="126.184" x2="493.047" y2="159.027"/>
<line x1="329.878" y1="191.871" x2="386.764" y2="265.310"/>
<line x1="470.122" y1="395.565" x2="404.435" y2="329.878"/>
<line x1="470.122" y1="395.565" x2="437.279" y2="493.047"/>
<line x1="470.122" y1="395.565" x2="466.377" y2="376.961"/>
<line x1="404.435" y1="329.878" x2="330.996" y2="386.764"/>
<line x1="404.435" y1="329.878" x2="360.095" y2="270.678"/>
<line x1="351.294" y1="487.608" x2="369.898" y2="531.949"/>
<line x1="351.294" y1="487.608" x2="437.279" y2="493.047"/>
<line x1="351.294" y1="487.608" x2="330.996" y2="386.764"/>
<line x1="351.294" y1="487.608" x2="274.110" y2="525.890"/>
<line x1="369.898" y1="531.949" x2="304.212" y2="597.635"/>
<line x1="437.279" y1="493.047" x2="413.236" y2="534.690"/>
<line x1="330.996" y1="386.764" x2="241.267" y2="362.721"/>
<line x1="673.816" y1="395.565" x2="608.129" y2="329.878"/>
<line x1="673.816" y1="395.565" x2="640.973" y2="493.047"/>
<line x1="673.816" y1="395.565" x2="718.157" y2="376.961"/>
<line x1="608.129" y1="329.878" x2="534.690" y2="386.764"/>
<line x1="608.129" y1="329.878" x2="611.874" y2="270.678"/>
<line x1="554.988" y1="487.608" x2="495.788" y2="531.949"/>
<line x1="554.988" y1="487.608" x2="640.973" y2="493.047"/>
<line x1="554.988" y1="487.608" x2="534.690" y2="386.764"/>
<line x1="554.988" y1="487.608" x2="525.890" y2="525.890"/>
<line x1="495.788" y1="531.949" x2="430.102" y2="597.635"/>
<line x1="640.973" y1="493.047" x2="665.015" y2="534.690"/>
<line x1="534.690" y1="386.764" x2="493.047" y2="362.721"/>
<line x1="470.122" y1="191.871" x2="404.435" y2="126.184"/>
<line x1="470.122" y1="191.871" x2="437.279" y2="241.267"/>
<line x1="470.122" y1="191.871" x2="466.377" y2="251.071"/>
<line x1="404.435" y1="126.184" x2="330.996" y2="134.985"/>
<line x1="404.435" y1="126.184" x2="360.095" y2="144.788"/>
<line x1="351.294" y1="206.110" x2="369.898" y2="202.365"/>
<line x1="351.294" y1="206.110" x2="437.279" y2="241.267"/>
<line x1="351.294" y1="206.110" x2="330.996" y2="134.985"/>
<line x1="351.294" y1="206.110" x2="274.110" y2="274.110"/>
<line x1="369.898" y1="202.365" x2="304.212" y2="268.051"/>
<line x1="437.279" y1="241.267" x2="413.236" y2="330.996"/>
<line x1="330.996" y1="134.985" x2="241.267" y2="159.027"/>
<line x1="673.816" y1="191.871" x2="608.129" y2="126.184"/>
<line x1="673.816" y1="191.871" x2="640.973" y2="241.267"/>
<line x1="673.816" y1="191.871" x2="718.157" y2="251.071"/>
<line x1="608.129" y1="126.184" x2="534.690" y2="134.985"/>
<line x1="608.129" y1="126.184" x2="611.874" y2="144.788"/>
<line x1="554.988" y1="206.110" x2="495.788" y2="202.365"/>
<line x1="554.988" y1="206.110" x2="640.973" y2="241.267"/>
<line x1="554.988" y1="206.110" x2="534.690" y2="134.985"/>
<line x1="554.988" y1="206.110" x2="525.890" y2="274.110"/>
<line x1="495.788" y1="202.365" x2="430.102" y2="268.051"/>
<line x1="640.973" y1="241.267" x2="665.015" y2="330.996"/>
<line x1="534.690" y1="134.985" x2="493.047" y2="159.027"/>
<line x1="191.871" y1="673.816" x2="126.184" y2="608.129"/>
<line x1="191.871" y1="673.816" x2="265.310" y2="665.015"/>
<line x1="191.871" y1="673.816" x2="188.126" y2="655.212"/>
<line x1="126.184" y1="608.129" x2="159.027" y2="558.733"/>
<line x1="126.184" y1="608.129" x2="81.843" y2="548.929"/>
<line x1="245.012" y1="593.890" x2="304.212" y2="597.635"/>
<line x1="245.012" y1="593.890" x2="265.310" y2="665.015"/>
<line x1="245.012" y1="593.890" x2="159.027" y2="558.733"/>
<line x1="245.012" y1="593.890" x2="274.110" y2="525.890"/>
<line x1="265.310" y1="665.015" x2="306.953" y2="640.973"/>
<line x1="159.027" y1="558.733" x2="134.985" y2="469.004"/>
<line x1="395.565" y1="673.816" x2="329.878" y2="608.129"/>
<line x1="395.565" y1="673.816" x2="469.004" y2="665.015"/>
<line x1="395.565" y1="673.816" x2="439.905" y2="655.212"/>
<line x1="329.878" y1="608.129" x2="362.721" y2="558.733"/>
<line x1="329.878" y1="608.129" x2="333.623" y2="548.929"/>
<line x1="448.706" y1="593.890" x2="430.102" y2="597.635"/>
<line x1="448.706" y1="593.890" x2="469.004" y2="665.015"/>
<line x1="448.706" y1="593.890" x2="362.721" y2="558.733"/>
<line x1="448.706" y1="593.890" x2="525.890" y2="525.890"/>
<line x1="469.004" y1="665.015" x2="558.733" y2="640.973"/>
<line x1="362.721" y1="558.733" x2="386.764" y2="469.004"/>
<line x1="191.871" y1="470.122" x2="126.184" y2="404.435"/>
<line x1="191.871" y1="470.122" x2="265.310" y2="413.236"/>
<line x1="191.871" y1="470.122" x2="188.126" y2="529.322"/>
<line x1="126.184" y1="404.435" x2="159.027" y2="306.953"/>
<line x1="126.184" y1="404.435" x2="81.843" y2="423.039"/>
<line x1="245.012" y1="312.392" x2="304.212" y2="268.051"/>
<line x1="245.012" y1="312.392" x2="265.310" y2="413.236"/>
<line x1="245.012" y1="312.392" x2="159.027" y2="306.953"/>
<line x1="245.012" y1="312.392" x2="274.110" y2="274.110"/>
<line x1="265.310" y1="413.236" x2="306.953" y2="437.279"/>
<line x1="159.027" y1="306.953" x2="134.985" y2="265.310"/>
<line x1="395.565" y1="470.122" x2="329.878" y2="404.435"/>
<line x1="395.565" y1="470.122" x2="469.004" y2="413.236"/>
<line x1="395.565" y1="470.122" x2="439.905" y2="529.322"/>
<line x1="329.878" y1="404.435" x2="362.721" y2="306.953"/>
<line x1="329.878" y1="404.435" x2="333.623" y2="423.039"/>
<line x1="448.706" y1="312.392" x2="430.102" y2="268.051"/>
<line x1="448.706" y1="312.392" x2="469.004" y2="413.236"/>
<line x1="448.706" y1="312.392" x2="362.721" y2="306.953"/>
<line x1="448.706" y1="312.392" x2="525.890" y2="274.110"/>
<line x1="469.004" y1="413.236" x2="558.733" y2="437.279"/>
<line x1="362.721" y1="306.953" x2="386.764" y2="265.310"/>
<line x1="446.079" y1="571.969" x2="451.518" y2="485.984"/>
<line x1="446.079" y1="571.969" x2="345.235" y2="592.267"/>
<line x1="451.518" y1="485.984" x2="499.220" y2="492.043"/>
<line x1="451.518" y1="485.984" x2="499.220" y2="414.239"/>
<line x1="451.518" y1="485.984" x2="354.036" y2="453.141"/>
<line x1="499.220" y1="492.043" x2="431.220" y2="462.945"/>
<line x1="499.220" y1="414.239" x2="431.220" y2="337.055"/>
<line x1="697.858" y1="571.969" x2="733.016" y2="485.984"/>
<line x1="697.858" y1="571.969" x2="626.733" y2="592.267"/>
<line x1="733.016" y1="485.984" x2="751.000" y2="492.043"/>
<line x1="733.016" y1="485.984" x2="751.000" y2="414.239"/>
<line x1="733.016" y1="485.984" x2="683.619" y2="453.141"/>
<line x1="751.000" y1="492.043" x2="712.718" y2="462.945"/>
<line x1="751.000" y1="414.239" x2="712.718" y2="337.055"/>
<line x1="345.235" y1="592.267" x2="327.251" y2="664.012"/>
<line x1="345.235" y1="592.267" x2="327.251" y2="586.208"/>
<line x1="345.235" y1="592.267" x2="288.349" y2="518.827"/>
<line x1="327.251" y1="664.012" x2="259.251" y2="634.914"/>
<line x1="327.251" y1="586.208" x2="259.251" y2="509.024"/>
<line x1="626.733" y1="592.267" x2="579.031" y2="664.012"/>
<line x1="626.733" y1="592.267" x2="579.031" y2="586.208"/>
<line x1="626.733" y1="592.267" x2="617.933" y2="518.827"/>
<line x1="579.031" y1="664.012" x2="540.749" y2="634.914"/>
<line x1="579.031" y1="586.208" x2="540.749" y2="509.024"/>
<line x1="102.142" y1="228.031" x2="173.267" y2="207.733"/>
<line x1="102.142" y1="228.031" x2="66.984" y2="314.016"/>
<line x1="173.267" y1="207.733" x2="220.969" y2="213.792"/>
<line x1="173.267" y1="207.733" x2="220.969" y2="135.988"/>
<line x1="173.267" y1="207.733" x2="182.067" y2="281.173"/>
<line x1="220.969" y1="213.792" x2="259.251" y2="290.976"/>
<line x1="220.969" y1="135.988" x2="259.251" y2="165.086"/>
<line x1="353.921" y1="228.031" x2="454.765" y2="207.733"/>
<line x1="353.921" y1="228.031" x2="348.482" y2="314.016"/>
<line x1="454.765" y1="207.733" x2="472.749" y2="213.792"/>
<line x1="454.765" y1="207.733" x2="472.749" y2="135.988"/>
<line x1="454.765" y1="207.733" x2="511.651" y2="281.173"/>
<line x1="472.749" y1="213.792" x2="540.749" y2="290.976"/>
<line x1="472.749" y1="135.988" x2="540.749" y2="165.086"/>
<line x1="66.984" y1="314.016" x2="49.000" y2="385.761"/>
<line x1="66.984" y1="314.016" x2="49.000" y2="307.957"/>
<line x1="66.984" y1="314.016" x2="116.381" y2="346.859"/>
<line x1="49.000" y1="385.761" x2="87.282" y2="462.945"/>
<line x1="49.000" y1="307.957" x2="87.282" y2="337.055"/>
<line x1="348.482" y1="314.016" x2="300.780" y2="385.761"/>
<line x1="348.482" y1="314.016" x2="300.780" y2="307.957"/>
<line x1="348.482" y1="314.016" x2="445.964" y2="346.859"/>
<line x1="300.780" y1="385.761" x2="368.780" y2="462.945"/>
<line x1="300.780" y1="307.957" x2="368.780" y2="337.055"/>
<line x1="446.079" y1="228.031" x2="398.376" y2="299.777"/>
<line x1="446.079" y1="228.031" x2="398.376" y2="221.972"/>
<line x1="398.376" y1="299.777" x2="466.377" y2="376.961"/>
<line x1="398.376" y1="299.777" x2="360.095" y2="270.678"/>
<line x1="398.376" y1="299.777" x2="321.192" y2="338.058"/>
<line x1="466.377" y1="376.961" x2="431.220" y2="462.945"/>
<line x1="360.095" y1="270.678" x2="259.251" y2="290.976"/>
<line x1="697.858" y1="228.031" x2="679.875" y2="299.777"/>
<line x1="697.858" y1="228.031" x2="679.875" y2="221.972"/>
<line x1="679.875" y1="299.777" x2="718.157" y2="376.961"/>
<line x1="679.875" y1="299.777" x2="611.874" y2="270.678"/>
<line x1="679.875" y1="299.777" x2="650.776" y2="338.058"/>
<line x1="718.157" y1="376.961" x2="712.718" y2="462.945"/>
<line x1="611.874" y1="270.678" x2="540.749" y2="290.976"/>
<line x1="398.376" y1="221.972" x2="466.377" y2="251.071"/>
<line x1="398.376" y1="221.972" x2="360.095" y2="144.788"/>
<line x1="398.376" y1="221.972" x2="321.192" y2="289.973"/>
<line x1="466.377" y1="251.071" x2="431.220" y2="337.055"/>
<line x1="360.095" y1="144.788" x2="259.251" y2="165.086"/>
<line x1="679.875" y1="221.972" x2="718.157" y2="251.071"/>
<line x1="679.875" y1="221.972" x2="611.874" y2="144.788"/>
<line x1="679.875" y1="221.972" x2="650.776" y2="289.973"/>
<line x1="718.157" y1="251.071" x2="712.718" y2="337.055"/>
<line x1="611.874" y1="144.788" x2="540.749" y2="165.086"/>
<line x1="102.142" y1="571.969" x2="120.125" y2="578.028"/>
<line x1="102.142" y1="571.969" x2="120.125" y2="500.223"/>
<line x1="120.125" y1="578.028" x2="188.126" y2="655.212"/>
<line x1="120.125" y1="578.028" x2="81.843" y2="548.929"/>
<line x1="120.125" y1="578.028" x2="149.224" y2="510.027"/>
<line x1="188.126" y1="655.212" x2="259.251" y2="634.914"/>
<line x1="81.843" y1="548.929" x2="87.282" y2="462.945"/>
<line x1="353.921" y1="571.969" x2="401.624" y2="578.028"/>
<line x1="353.921" y1="571.969" x2="401.624" y2="500.223"/>
<line x1="401.624" y1="578.028" x2="439.905" y2="655.212"/>
<line x1="401.624" y1="578.028" x2="333.623" y2="548.929"/>
<line x1="401.624" y1="578.028" x2="478.808" y2="510.027"/>
<line x1="439.905" y1="655.212" x2="540.749" y2="634.914"/>
<line x1="333.623" y1="548.929" x2="368.780" y2="462.945"/>
<line x1="120.125" y1="500.223" x2="188.126" y2="529.322"/>
<line x1="120.125" y1="500.223" x2="81.843" y2="423.039"/>
<line x1="120.125" y1="500.223" x2="149.224" y2="461.942"/>
<line x1="188.126" y1="529.322" x2="259.251" y2="509.024"/>
<line x1="81.843" y1="423.039" x2="87.282" y2="337.055"/>
<line x1="401.624" y1="500.223" x2="439.905" y2="529.322"/>
<line x1="401.624" y1="500.223" x2="333.623" y2="423.039"/>
<line x1="401.624" y1="500.223" x2="478.808" y2="461.942"/>
<line x1="439.905" y1="529.322" x2="540.749" y2="509.024"/>
<line x1="333.623" y1="423.039" x2="368.780" y2="337.055"/>
<line x1="274.110" y1="525.890" x2="312.392" y2="554.988"/>
<line x1="274.110" y1="525.890" x2="206.110" y2="448.706"/>
<line x1="312.392" y1="554.988" x2="413.236" y2="534.690"/>
<line x1="312.392" y1="554.988" x2="306.953" y2="640.973"/>
<line x1="312.392" y1="554.988" x2="268.051" y2="495.788"/>
<line x1="413.236" y1="534.690" x2="431.220" y2="462.945"/>
<line x1="306.953" y1="640.973" x2="259.251" y2="634.914"/>
<line x1="525.890" y1="525.890" x2="593.890" y2="554.988"/>
<line x1="525.890" y1="525.890" x2="487.608" y2="448.706"/>
<line x1="593.890" y1="554.988" x2="665.015" y2="534.690"/>
<line x1="593.890" y1="554.988" x2="558.733" y2="640.973"/>
<line x1="593.890" y1="554.988" x2="597.635" y2="495.788"/>
<line x1="665.015" y1="534.690" x2="712.718" y2="462.945"/>
<line x1="558.733" y1="640.973" x2="540.749" y2="634.914"/>
<line x1="274.110" y1="274.110" x2="312.392" y2="351.294"/>
<line x1="274.110" y1="274.110" x2="206.110" y2="245.012"/>
<line x1="312.392" y1="351.294" x2="413.236" y2="330.996"/>
<line x1="312.392" y1="351.294" x2="306.953" y2="437.279"/>
<line x1="312.392" y1="351.294" x2="268.051" y2="369.898"/>
<line x1="413.236" y1="330.996" x2="431.220" y2="337.055"/>
<line x1="306.953" y1="437.279" x2="259.251" y2="509.024"/>
<line x1="525.890" y1="274.110" x2="593.890" y2="351.294"/>
<line x1="525.890" y1="274.110" x2="487.608" y2="245.012"/>
<line x1="593.890" y1="351.294" x2="665.015" y2="330.996"/>
<line x1="593.890" y1="351.294" x2="558.733" y2="437.279"/>
<line x1="593.890" y1="351.294" x2="597.635" y2="369.898"/>
<line x1="665.015" y1="330.996" x2="712.718" y2="337.055"/>
<line x1="558.733" y1="437.279" x2="540.749" y2="509.024"/>
<line x1="206.110" y1="448.706" x2="241.267" y2="362.721"/>
<line x1="206.110" y1="448.706" x2="134.985" y2="469.004"/>
<line x1="206.110" y1="448.706" x2="202.365" y2="430.102"/>
<line x1="241.267" y1="362.721" x2="259.251" y2="290.976"/>
<line x1="134.985" y1="469.004" x2="87.282" y2="462.945"/>
<line x1="487.608" y1="448.706" x2="493.047" y2="362.721"/>
<line x1="487.608" y1="448.706" x2="386.764" y2="469.004"/>
<line x1="487.608" y1="448.706" x2="531.949" y2="430.102"/>
<line x1="493.047" y1="362.721" x2="540.749" y2="290.976"/>
<line x1="386.764" y1="469.004" x2="368.780" y2="462.945"/>
<line x1="206.110" y1="245.012" x2="241.267" y2="159.027"/>
<line x1="206.110" y1="245.012" x2="134.985" y2="265.310"/>
<line x1="206.110" y1="245.012" x2="202.365" y2="304.212"/>
<line x1="241.267" y1="159.027" x2="259.251" y2="165.086"/>
<line x1="134.985" y1="265.310" x2="87.282" y2="337.055"/>
<line x1="487.608" y1="245.012" x2="493.047" y2="159.027"/>
<line x1="487.608" y1="245.012" x2="386.764" y2="265.310"/>
<line x1="487.608" y1="245.012" x2="531.949" y2="304.212"/>
<line x1="493.047" y1="159.027" x2="540.749" y2="165.086"/>
<line x1="386.764" y1="265.310" x2="368.780" y2="337.055"/>
<line x1="321.192" y1="338.058" x2="321.192" y2="289.973"/>
<line x1="321.192" y1="338.058" x2="341.491" y2="438.902"/>
<line x1="321.192" y1="338.058" x2="235.208" y2="332.620"/>
<line x1="321.192" y1="289.973" x2="341.491" y2="361.098"/>
<line x1="321.192" y1="289.973" x2="235.208" y2="254.815"/>
<line x1="354.036" y1="453.141" x2="341.491" y2="438.902"/>
<line x1="354.036" y1="453.141" x2="341.491" y2="361.098"/>
<line x1="354.036" y1="453.141" x2="288.349" y2="518.827"/>
<line x1="431.220" y1="462.945" x2="341.491" y2="438.902"/>
<line x1="341.491" y1="438.902" x2="268.051" y2="495.788"/>
<line x1="431.220" y1="337.055" x2="341.491" y2="361.098"/>
<line x1="341.491" y1="361.098" x2="268.051" y2="369.898"/>
<line x1="650.776" y1="338.058" x2="650.776" y2="289.973"/>
<line x1="650.776" y1="338.058" x2="671.074" y2="438.902"/>
<line x1="650.776" y1="338.058" x2="564.792" y2="332.620"/>
<line x1="650.776" y1="289.973" x2="671.074" y2="361.098"/>
<line x1="650.776" y1="289.973" x2="564.792" y2="254.815"/>
<line x1="683.619" y1="453.141" x2="671.074" y2="438.902"/>
<line x1="683.619" y1="453.141" x2="671.074" y2="361.098"/>
<line x1="683.619" y1="453.141" x2="617.933" y2="518.827"/>
<line x1="712.718" y1="462.945" x2="671.074" y2="438.902"/>
<line x1="671.074" y1="438.902" x2="597.635" y2="495.788"/>
<line x1="712.718" y1="337.055" x2="671.074" y2="361.098"/>
<line x1="671.074" y1="361.098" x2="597.635" y2="369.898"/>
<line x1="149.224" y1="510.027" x2="149.224" y2="461.942"/>
<line x1="149.224" y1="510.027" x2="235.208" y2="545.185"/>
<line x1="149.224" y1="510.027" x2="128.926" y2="438.902"/>
<line x1="149.224" y1="461.942" x2="235.208" y2="467.380"/>
<line x1="149.224" y1="461.942" x2="128.926" y2="361.098"/>
<line x1="288.349" y1="518.827" x2="235.208" y2="545.185"/>
<line x1="288.349" y1="518.827" x2="235.208" y2="467.380"/>
<line x1="259.251" y1="634.914" x2="235.208" y2="545.185"/>
<line x1="235.208" y1="545.185" x2="268.051" y2="495.788"/>
<line x1="259.251" y1="509.024" x2="235.208" y2="467.380"/>
<line x1="235.208" y1="467.380" x2="268.051" y2="369.898"/>
<line x1="478.808" y1="510.027" x2="478.808" y2="461.942"/>
<line x1="478.808" y1="510.027" x2="564.792" y2="545.185"/>
<line x1="478.808" y1="510.027" x2="458.509" y2="438.902"/>
<line x1="478.808" y1="461.942" x2="564.792" y2="467.380"/>
<line x1="478.808" y1="461.942" x2="458.509" y2="361.098"/>
<line x1="617.933" y1="518.827" x2="564.792" y2="545.185"/>
<line x1="617.933" y1="518.827" x2="564.792" y2="467.380"/>
<line x1="540.749" y1="634.914" x2="564.792" y2="545.185"/>
<line x1="564.792" y1="545.185" x2="597.635" y2="495.788"/>
<line x1="540.749" y1="509.024" x2="564.792" y2="467.380"/>
<line x1="564.792" y1="467.380" x2="597.635" y2="369.898"/>
<line x1="182.067" y1="281.173" x2="235.208" y2="332.620"/>
<line x1="182.067" y1="281.173" x2="235.208" y2="254.815"/>
<line x1="182.067" y1="281.173" x2="116.381" y2="346.859"/>
<line x1="259.251" y1="290.976" x2="235.208" y2="332.620"/>
<line x1="235.208" y1="332.620" x2="202.365" y2="430.102"/>
<line x1="259.251" y1="165.086" x2="235.208" y2="254.815"/>
<line x1="235.208" y1="254.815" x2="202.365" y2="304.212"/>
<line x1="511.651" y1="281.173" x2="564.792" y2="332.620"/>
<line x1="511.651" y1="281.173" x2="564.792" y2="254.815"/>
<line x1="511.651" y1="281.173" x2="445.964" y2="346.859"/>
<line x1="540.749" y1="290.976" x2="564.792" y2="332.620"/>
<line x1="564.792" y1="332.620" x2="531.949" y2="430.102"/>
<line x1="540.749" y1="165.086" x2="564.792" y2="254.815"/>
<line x1="564.792" y1="254.815" x2="531.949" y2="304.212"/>
<line x1="116.381" y1="346.859" x2="128.926" y2="438.902"/>
<line x1="116.381" y1="346.859" x2="128.926" y2="361.098"/>
<line x1="87.282" y1="462.945" x2="128.926" y2="438.902"/>
<line x1="128.926" y1="438.902" x2="202.365" y2="430.102"/>
<line x1="87.282" y1="337.055" x2="128.926" y2="361.098"/>
<line x1="128.926" y1="361.098" x2="202.365" y2="304.212"/>
<line x1="445.964" y1="346.859" x2="458.509" y2="438.902"/>
<line x1="445.964" y1="346.859" x2="458.509" y2="361.098"/>
<line x1="368.780" y1="462.945" x2="458.509" y2="438.902"/>
<line x1="458.509" y1="438.902" x2="531.949" y2="430.102"/>
<line x1="368.780" y1="337.055" x2="458.509" y2="361.098"/>
<line x1="458.509" y1="361.098" x2="531.949" y2="304.212"/>
<line x1="268.051" y1="495.788" x2="202.365" y2="430.102"/>
<line x1="597.635" y1="495.788" x2="531.949" y2="430.102"/>
<line x1="268.051" y1="369.898" x2="202.365" y2="304.212"/>
<line x1="597.635" y1="369.898" x2="531.949" y2="304.212"/>
</g>
<g style="stroke:#000000;stroke-width:1;fill:#ff0000">
<circle cx="743.937" cy="400.000" r="6"/>
<circle cx="692.490" cy="453.141" r="6"/>
<circle cx="770.294" cy="453.141" r="6"/>
<circle cx="687.051" cy="539.126" r="6"/>
<circle cx="735.137" cy="539.126" r="6"/>
<circle cx="654.208" cy="501.847" r="6"/>
<circle cx="702.294" cy="501.847" r="6"/>
<circle cx="731.392" cy="385.761" r="6"/>
<circle cx="672.192" cy="430.102" r="6"/>
<circle cx="749.996" cy="430.102" r="6"/>
<circle cx="645.408" cy="640.973" r="6"/>
<circle cx="619.051" cy="587.831" r="6"/>
<circle cx="696.855" cy="587.831" r="6"/>
<circle cx="648.149" cy="471.745" r="6"/>
<circle cx="774.039" cy="471.745" r="6"/>
<circle cx="657.953" cy="655.212" r="6"/>
<circle cx="615.306" cy="569.227" r="6"/>
<circle cx="639.349" cy="610.871" r="6"/>
<circle cx="741.196" cy="569.227" r="6"/>
<circle cx="717.153" cy="610.871" r="6"/>
<circle cx="654.208" cy="298.153" r="6"/>
<circle cx="702.294" cy="298.153" r="6"/>
<circle cx="731.392" cy="307.957" r="6"/>
<circle cx="672.192" cy="304.212" r="6"/>
<circle cx="749.996" cy="304.212" r="6"/>
<circle cx="645.408" cy="437.279" r="6"/>
<circle cx="619.051" cy="384.137" r="6"/>
<circle cx="696.855" cy="384.137" r="6"/>
<circle cx="648.149" cy="393.941" r="6"/>
<circle cx="774.039" cy="393.941" r="6"/>
<circle cx="657.953" cy="529.322" r="6"/>
<circle cx="615.306" cy="443.338" r="6"/>
<circle cx="639.349" cy="533.067" r="6"/>
<circle cx="741.196" cy="443.338" r="6"/>
<circle cx="717.153" cy="533.067" r="6"/>
<circle cx="400.000" cy="743.937" r="6"/>
<circle cx="414.239" cy="731.392" r="6"/>
<circle cx="492.043" cy="731.392" r="6"/>
<circle cx="515.083" cy="711.094" r="6"/>
<circle cx="563.168" cy="711.094" r="6"/>
<circle cx="375.957" cy="780.098" r="6"/>
<circle cx="424.043" cy="780.098" r="6"/>
<circle cx="346.859" cy="770.294" r="6"/>
<circle cx="328.255" cy="774.039" r="6"/>
<circle cx="406.059" cy="774.039" r="6"/>
<circle cx="539.126" cy="747.255" r="6"/>
<circle cx="447.082" cy="759.800" r="6"/>
<circle cx="524.886" cy="759.800" r="6"/>
<circle cx="369.898" cy="749.996" r="6"/>
<circle cx="495.788" cy="749.996" r="6"/>
<circle cx="592.267" cy="720.898" r="6"/>
<circle cx="443.338" cy="741.196" r="6"/>
<circle cx="533.067" cy="717.153" r="6"/>
<circle cx="569.227" cy="741.196" r="6"/>
<circle cx="610.871" cy="717.153" r="6"/>
<circle cx="375.957" cy="576.404" r="6"/>
<circle cx="424.043" cy="576.404" r="6"/>
<circle cx="346.859" cy="692.490" r="6"/>
<circle cx="328.255" cy="648.149" r="6"/>
<circle cx="406.059" cy="648.149" r="6"/>
<circle cx="539.126" cy="543.561" r="6"/>
<circle cx="447.082" cy="556.106" r="6"/>
<circle cx="524.886" cy="556.106" r="6"/>
<circle cx="369.898" cy="672.192" r="6"/>
<circle cx="495.788" cy="672.192" r="6"/>
<circle cx="592.267" cy="595.008" r="6"/>
<circle cx="443.338" cy="615.306" r="6"/>
<circle cx="533.067" cy="639.349" r="6"/>
<circle cx="569.227" cy="615.306" r="6"/>
<circle cx="610.871" cy="639.349" r="6"/>
<circle cx="400.000" cy="56.063" r="6"/>
<circle cx="307.957" cy="68.608" r="6"/>
<circle cx="385.761" cy="68.608" r="6"/>
<circle cx="236.832" cy="88.906" r="6"/>
<circle cx="284.917" cy="88.906" r="6"/>
<circle cx="375.957" cy="223.596" r="6"/>
<circle cx="424.043" cy="223.596" r="6"/>
<circle cx="453.141" cy="107.510" r="6"/>
<circle cx="393.941" cy="151.851" r="6"/>
<circle cx="471.745" cy="151.851" r="6"/>
<circle cx="260.874" cy="256.439" r="6"/>
<circle cx="275.114" cy="243.894" r="6"/>
<circle cx="352.918" cy="243.894" r="6"/>
<circle cx="304.212" cy="127.808" r="6"/>
<circle cx="430.102" cy="127.808" r="6"/>
<circle cx="207.733" cy="204.992" r="6"/>
<circle cx="230.773" cy="184.694" r="6"/>
<circle cx="189.129" cy="160.651" r="6"/>
<circle cx="356.662" cy="184.694" r="6"/>
<circle cx="266.933" cy="160.651" r="6"/>
<circle cx="375.957" cy="19.902" r="6"/>
<circle cx="424.043" cy="19.902" r="6"/>
<circle cx="453.141" cy="29.706" r="6"/>
<circle cx="393.941" cy="25.961" r="6"/>
<circle cx="471.745" cy="25.961" r="6"/>
<circle cx="260.874" cy="52.745" r="6"/>
<circle cx="275.114" cy="40.200" r="6"/>
<circle cx="352.918" cy="40.200" r="6"/>
<circle cx="304.212" cy="50.004" r="6"/>
<circle cx="430.102" cy="50.004" r="6"/>
<circle cx="207.733" cy="79.102" r="6"/>
<circle cx="230.773" cy="58.804" r="6"/>
<circle cx="189.129" cy="82.847" r="6"/>
<circle cx="356.662" cy="58.804" r="6"/>
<circle cx="266.933" cy="82.847" r="6"/>
<circle cx="56.063" cy="400.000" r="6"/>
<circle cx="29.706" cy="346.859" r="6"/>
<circle cx="107.510" cy="346.859" r="6"/>
<circle cx="64.863" cy="260.874" r="6"/>
<circle cx="112.949" cy="260.874" r="6"/>
<circle cx="97.706" cy="501.847" r="6"/>
<circle cx="145.792" cy="501.847" r="6"/>
<circle cx="68.608" cy="492.043" r="6"/>
<circle cx="50.004" cy="495.788" r="6"/>
<circle cx="127.808" cy="495.788" r="6"/>
<circle cx="154.592" cy="362.721" r="6"/>
<circle cx="103.145" cy="415.863" r="6"/>
<circle cx="180.949" cy="415.863" r="6"/>
<circle cx="25.961" cy="406.059" r="6"/>
<circle cx="151.851" cy="406.059" r="6"/>
<circle cx="142.047" cy="270.678" r="6"/>
<circle cx="58.804" cy="356.662" r="6"/>
<circle cx="82.847" cy="266.933" r="6"/>
<circle cx="184.694" cy="356.662" r="6"/>
<circle cx="160.651" cy="266.933" r="6"/>
<circle cx="97.706" cy="298.153" r="6"/>
<circle cx="145.792" cy="298.153" r="6"/>
<circle cx="68.608" cy="414.239" r="6"/>
<circle cx="50.004" cy="369.898" r="6"/>
<circle cx="127.808" cy="369.898" r="6"/>
<circle cx="154.592" cy="159.027" r="6"/>
<circle cx="103.145" cy="212.169" r="6"/>
<circle cx="180.949" cy="212.169" r="6"/>
<circle cx="25.961" cy="328.255" r="6"/>
<circle cx="151.851" cy="328.255" r="6"/>
<circle cx="142.047" cy="144.788" r="6"/>
<circle cx="58.804" cy="230.773" r="6"/>
<circle cx="82.847" cy="189.129" r="6"/>
<circle cx="184.694" cy="230.773" r="6"/>
<circle cx="160.651" cy="189.129" r="6"/>
<circle cx="571.969" cy="353.921" r="6"/>
<circle cx="553.365" cy="309.580" r="6"/>
<circle cx="631.169" cy="309.580" r="6"/>
<circle cx="601.067" cy="237.835" r="6"/>
<circle cx="649.153" cy="237.835" r="6"/>
<circle cx="592.267" cy="454.765" r="6"/>
<circle cx="586.208" cy="472.749" r="6"/>
<circle cx="664.012" cy="472.749" r="6"/>
<circle cx="711.094" cy="284.917" r="6"/>
<circle cx="615.306" cy="356.662" r="6"/>
<circle cx="639.349" cy="266.933" r="6"/>
<circle cx="741.196" cy="356.662" r="6"/>
<circle cx="717.153" cy="266.933" r="6"/>
<circle cx="562.165" cy="383.020" r="6"/>
<circle cx="688.055" cy="383.020" r="6"/>
<circle cx="571.969" cy="102.142" r="6"/>
<circle cx="553.365" cy="105.886" r="6"/>
<circle cx="631.169" cy="105.886" r="6"/>
<circle cx="601.067" cy="111.945" r="6"/>
<circle cx="649.153" cy="111.945" r="6"/>
<circle cx="592.267" cy="173.267" r="6"/>
<circle cx="586.208" cy="220.969" r="6"/>
<circle cx="664.012" cy="220.969" r="6"/>
<circle cx="711.094" cy="236.832" r="6"/>
<circle cx="615.306" cy="230.773" r="6"/>
<circle cx="639.349" cy="189.129" r="6"/>
<circle cx="741.196" cy="230.773" r="6"/>
<circle cx="717.153" cy="189.129" r="6"/>
<circle cx="562.165" cy="179.326" r="6"/>
<circle cx="688.055" cy="179.326" r="6"/>
<circle cx="228.031" cy="697.858" r="6"/>
<circle cx="168.831" cy="694.114" r="6"/>
<circle cx="246.635" cy="694.114" r="6"/>
<circle cx="150.847" cy="688.055" r="6"/>
<circle cx="198.933" cy="688.055" r="6"/>
<circle cx="314.016" cy="733.016" r="6"/>
<circle cx="307.957" cy="751.000" r="6"/>
<circle cx="385.761" cy="751.000" r="6"/>
<circle cx="260.874" cy="735.137" r="6"/>
<circle cx="230.773" cy="741.196" r="6"/>
<circle cx="189.129" cy="717.153" r="6"/>
<circle cx="356.662" cy="741.196" r="6"/>
<circle cx="266.933" cy="717.153" r="6"/>
<circle cx="218.228" cy="726.957" r="6"/>
<circle cx="344.117" cy="726.957" r="6"/>
<circle cx="228.031" cy="446.079" r="6"/>
<circle cx="168.831" cy="490.420" r="6"/>
<circle cx="246.635" cy="490.420" r="6"/>
<circle cx="150.847" cy="562.165" r="6"/>
<circle cx="198.933" cy="562.165" r="6"/>
<circle cx="314.016" cy="451.518" r="6"/>
<circle cx="307.957" cy="499.220" r="6"/>
<circle cx="385.761" cy="499.220" r="6"/>
<circle cx="260.874" cy="687.051" r="6"/>
<circle cx="230.773" cy="615.306" r="6"/>
<circle cx="189.129" cy="639.349" r="6"/>
<circle cx="356.662" cy="615.306" r="6"/>
<circle cx="266.933" cy="639.349" r="6"/>
<circle cx="218.228" cy="523.263" r="6"/>
<circle cx="344.117" cy="523.263" r="6"/>
<circle cx="485.984" cy="348.482" r="6"/>
<circle cx="414.239" cy="300.780" r="6"/>
<circle cx="492.043" cy="300.780" r="6"/>
<circle cx="539.126" cy="112.949" r="6"/>
<circle cx="443.338" cy="184.694" r="6"/>
<circle cx="533.067" cy="160.651" r="6"/>
<circle cx="569.227" cy="184.694" r="6"/>
<circle cx="610.871" cy="160.651" r="6"/>
<circle cx="455.883" cy="276.737" r="6"/>
<circle cx="581.772" cy="276.737" r="6"/>
<circle cx="485.984" cy="66.984" r="6"/>
<circle cx="414.239" cy="49.000" r="6"/>
<circle cx="492.043" cy="49.000" r="6"/>
<circle cx="539.126" cy="64.863" r="6"/>
<circle cx="443.338" cy="58.804" r="6"/>
<circle cx="533.067" cy="82.847" r="6"/>
<circle cx="569.227" cy="58.804" r="6"/>
<circle cx="610.871" cy="82.847" r="6"/>
<circle cx="455.883" cy="73.043" r="6"/>
<circle cx="581.772" cy="73.043" r="6"/>
<circle cx="207.733" cy="626.733" r="6"/>
<circle cx="135.988" cy="579.031" r="6"/>
<circle cx="213.792" cy="579.031" r="6"/>
<circle cx="88.906" cy="563.168" r="6"/>
<circle cx="58.804" cy="569.227" r="6"/>
<circle cx="82.847" cy="610.871" r="6"/>
<circle cx="184.694" cy="569.227" r="6"/>
<circle cx="160.651" cy="610.871" r="6"/>
<circle cx="111.945" cy="620.674" r="6"/>
<circle cx="237.835" cy="620.674" r="6"/>
<circle cx="207.733" cy="345.235" r="6"/>
<circle cx="135.988" cy="327.251" r="6"/>
<circle cx="213.792" cy="327.251" r="6"/>
<circle cx="88.906" cy="515.083" r="6"/>
<circle cx="58.804" cy="443.338" r="6"/>
<circle cx="82.847" cy="533.067" r="6"/>
<circle cx="184.694" cy="443.338" r="6"/>
<circle cx="160.651" cy="533.067" r="6"/>
<circle cx="111.945" cy="416.980" r="6"/>
<circle cx="237.835" cy="416.980" r="6"/>
<circle cx="571.969" cy="697.858" r="6"/>
<circle cx="500.223" cy="679.875" r="6"/>
<circle cx="578.028" cy="679.875" r="6"/>
<circle cx="461.942" cy="650.776" r="6"/>
<circle cx="510.027" cy="650.776" r="6"/>
<circle cx="529.322" cy="611.874" r="6"/>
<circle cx="655.212" cy="611.874" r="6"/>
<circle cx="518.827" cy="511.651" r="6"/>
<circle cx="509.024" cy="540.749" r="6"/>
<circle cx="467.380" cy="564.792" r="6"/>
<circle cx="634.914" cy="540.749" r="6"/>
<circle cx="545.185" cy="564.792" r="6"/>
<circle cx="571.969" cy="446.079" r="6"/>
<circle cx="500.223" cy="398.376" r="6"/>
<circle cx="578.028" cy="398.376" r="6"/>
<circle cx="461.942" cy="321.192" r="6"/>
<circle cx="510.027" cy="321.192" r="6"/>
<circle cx="529.322" cy="360.095" r="6"/>
<circle cx="655.212" cy="360.095" r="6"/>
<circle cx="518.827" cy="182.067" r="6"/>
<circle cx="509.024" cy="259.251" r="6"/>
<circle cx="467.380" cy="235.208" r="6"/>
<circle cx="634.914" cy="259.251" r="6"/>
<circle cx="545.185" cy="235.208" r="6"/>
<circle cx="423.039" cy="718.157" r="6"/>
<circle cx="548.929" cy="718.157" r="6"/>
<circle cx="346.859" cy="683.619" r="6"/>
<circle cx="337.055" cy="712.718" r="6"/>
<circle cx="361.098" cy="671.074" r="6"/>
<circle cx="462.945" cy="712.718" r="6"/>
<circle cx="438.902" cy="671.074" r="6"/>
<circle cx="423.039" cy="466.377" r="6"/>
<circle cx="548.929" cy="466.377" r="6"/>
<circle cx="346.859" cy="354.036" r="6"/>
<circle cx="337.055" cy="431.220" r="6"/>
<circle cx="361.098" cy="341.491" r="6"/>
<circle cx="462.945" cy="431.220" r="6"/>
<circle cx="438.902" cy="341.491" r="6"/>
<circle cx="228.031" cy="353.921" r="6"/>
<circle cx="221.972" cy="401.624" r="6"/>
<circle cx="299.777" cy="401.624" r="6"/>
<circle cx="289.973" cy="478.808" r="6"/>
<circle cx="338.058" cy="478.808" r="6"/>
<circle cx="251.071" cy="333.623" r="6"/>
<circle cx="376.961" cy="333.623" r="6"/>
<circle cx="453.141" cy="445.964" r="6"/>
<circle cx="337.055" cy="368.780" r="6"/>
<circle cx="361.098" cy="458.509" r="6"/>
<circle cx="462.945" cy="368.780" r="6"/>
<circle cx="438.902" cy="458.509" r="6"/>
<circle cx="228.031" cy="102.142" r="6"/>
<circle cx="221.972" cy="120.125" r="6"/>
<circle cx="299.777" cy="120.125" r="6"/>
<circle cx="289.973" cy="149.224" r="6"/>
<circle cx="338.058" cy="149.224" r="6"/>
<circle cx="251.071" cy="81.843" r="6"/>
<circle cx="376.961" cy="81.843" r="6"/>
<circle cx="453.141" cy="116.381" r="6"/>
<circle cx="337.055" cy="87.282" r="6"/>
<circle cx="361.098" cy="128.926" r="6"/>
<circle cx="462.945" cy="87.282" r="6"/>
<circle cx="438.902" cy="128.926" r="6"/>
<circle cx="144.788" cy="439.905" r="6"/>
<circle cx="270.678" cy="439.905" r="6"/>
<circle cx="281.173" cy="617.933" r="6"/>
<circle cx="165.086" cy="540.749" r="6"/>
<circle cx="254.815" cy="564.792" r="6"/>
<circle cx="290.976" cy="540.749" r="6"/>
<circle cx="332.620" cy="564.792" r="6"/>
<circle cx="144.788" cy="188.126" r="6"/>
<circle cx="270.678" cy="188.126" r="6"/>
<circle cx="281.173" cy="288.349" r="6"/>
<circle cx="165.086" cy="259.251" r="6"/>
<circle cx="254.815" cy="235.208" r="6"/>
<circle cx="290.976" cy="259.251" r="6"/>
<circle cx="332.620" cy="235.208" r="6"/>
<circle cx="576.404" cy="424.043" r="6"/>
<circle cx="576.404" cy="375.957" r="6"/>
<circle cx="543.561" cy="260.874" r="6"/>
<circle cx="595.008" cy="207.733" r="6"/>
<circle cx="556.106" cy="352.918" r="6"/>
<circle cx="556.106" cy="275.114" r="6"/>
<circle cx="780.098" cy="424.043" r="6"/>
<circle cx="780.098" cy="375.957" r="6"/>
<circle cx="747.255" cy="260.874" r="6"/>
<circle cx="720.898" cy="207.733" r="6"/>
<circle cx="759.800" cy="352.918" r="6"/>
<circle cx="759.800" cy="275.114" r="6"/>
<circle cx="298.153" cy="702.294" r="6"/>
<circle cx="298.153" cy="654.208" r="6"/>
<circle cx="159.027" cy="645.408" r="6"/>
<circle cx="144.788" cy="657.953" r="6"/>
<circle cx="212.169" cy="696.855" r="6"/>
<circle cx="212.169" cy="619.051" r="6"/>
<circle cx="501.847" cy="702.294" r="6"/>
<circle cx="501.847" cy="654.208" r="6"/>
<circle cx="362.721" cy="645.408" r="6"/>
<circle cx="270.678" cy="657.953" r="6"/>
<circle cx="415.863" cy="696.855" r="6"/>
<circle cx="415.863" cy="619.051" r="6"/>
<circle cx="298.153" cy="145.792" r="6"/>
<circle cx="298.153" cy="97.706" r="6"/>
<circle cx="437.279" cy="154.592" r="6"/>
<circle cx="529.322" cy="142.047" r="6"/>
<circle cx="384.137" cy="180.949" r="6"/>
<circle cx="384.137" cy="103.145" r="6"/>
<circle cx="501.847" cy="145.792" r="6"/>
<circle cx="501.847" cy="97.706" r="6"/>
<circle cx="640.973" cy="154.592" r="6"/>
<circle cx="655.212" cy="142.047" r="6"/>
<circle cx="587.831" cy="180.949" r="6"/>
<circle cx="587.831" cy="103.145" r="6"/>
<circle cx="19.902" cy="424.043" r="6"/>
<circle cx="19.902" cy="375.957" r="6"/>
<circle cx="52.745" cy="539.126" r="6"/>
<circle cx="79.102" cy="592.267" r="6"/>
<circle cx="40.200" cy="524.886" r="6"/>
<circle cx="40.200" cy="447.082" r="6"/>
<circle cx="223.596" cy="424.043" r="6"/>
<circle cx="223.596" cy="375.957" r="6"/>
<circle cx="256.439" cy="539.126" r="6"/>
<circle cx="204.992" cy="592.267" r="6"/>
<circle cx="243.894" cy="524.886" r="6"/>
<circle cx="243.894" cy="447.082" r="6"/>
<circle cx="490.420" cy="631.169" r="6"/>
<circle cx="562.165" cy="649.153" r="6"/>
<circle cx="523.263" cy="581.772" r="6"/>
<circle cx="416.980" cy="688.055" r="6"/>
<circle cx="470.122" cy="608.129" r="6"/>
<circle cx="404.435" cy="673.816" r="6"/>
<circle cx="694.114" cy="631.169" r="6"/>
<circle cx="688.055" cy="649.153" r="6"/>
<circle cx="726.957" cy="581.772" r="6"/>
<circle cx="620.674" cy="688.055" r="6"/>
<circle cx="673.816" cy="608.129" r="6"/>
<circle cx="608.129" cy="673.816" r="6"/>
<circle cx="490.420" cy="553.365" r="6"/>
<circle cx="562.165" cy="601.067" r="6"/>
<circle cx="523.263" cy="455.883" r="6"/>
<circle cx="416.980" cy="562.165" r="6"/>
<circle cx="470.122" cy="404.435" r="6"/>
<circle cx="404.435" cy="470.122" r="6"/>
<circle cx="694.114" cy="553.365" r="6"/>
<circle cx="688.055" cy="601.067" r="6"/>
<circle cx="726.957" cy="455.883" r="6"/>
<circle cx="620.674" cy="562.165" r="6"/>
<circle cx="673.816" cy="404.435" r="6"/>
<circle cx="608.129" cy="470.122" r="6"/>
<circle cx="105.886" cy="246.635" r="6"/>
<circle cx="111.945" cy="198.933" r="6"/>
<circle cx="179.326" cy="237.835" r="6"/>
<circle cx="73.043" cy="344.117" r="6"/>
<circle cx="191.871" cy="329.878" r="6"/>
<circle cx="126.184" cy="395.565" r="6"/>
<circle cx="309.580" cy="246.635" r="6"/>
<circle cx="237.835" cy="198.933" r="6"/>
<circle cx="383.020" cy="237.835" r="6"/>
<circle cx="276.737" cy="344.117" r="6"/>
<circle cx="395.565" cy="329.878" r="6"/>
<circle cx="329.878" cy="395.565" r="6"/>
<circle cx="105.886" cy="168.831" r="6"/>
<circle cx="111.945" cy="150.847" r="6"/>
<circle cx="179.326" cy="111.945" r="6"/>
<circle cx="73.043" cy="218.228" r="6"/>
<circle cx="191.871" cy="126.184" r="6"/>
<circle cx="126.184" cy="191.871" r="6"/>
<circle cx="309.580" cy="168.831" r="6"/>
<circle cx="237.835" cy="150.847" r="6"/>
<circle cx="383.020" cy="111.945" r="6"/>
<circle cx="276.737" cy="218.228" r="6"/>
<circle cx="395.565" cy="126.184" r="6"/>
<circle cx="329.878" cy="191.871" r="6"/>
<circle cx="470.122" cy="395.565" r="6"/>
<circle cx="404.435" cy="329.878" r="6"/>
<circle cx="351.294" cy="487.608" r="6"/>
<circle cx="369.898" cy="531.949" r="6"/>
<circle cx="437.279" cy="493.047" r="6"/>
<circle cx="330.996" cy="386.764" r="6"/>
<circle cx="673.816" cy="395.565" r="6"/>
<circle cx="608.129" cy="329.878" r="6"/>
<circle cx="554.988" cy="487.608" r="6"/>
<circle cx="495.788" cy="531.949" r="6"/>
<circle cx="640.973" cy="493.047" r="6"/>
<circle cx="534.690" cy="386.764" r="6"/>
<circle cx="470.122" cy="191.871" r="6"/>
<circle cx="404.435" cy="126.184" r="6"/>
<circle cx="351.294" cy="206.110" r="6"/>
<circle cx="369.898" cy="202.365" r="6"/>
<circle cx="437.279" cy="241.267" r="6"/>
<circle cx="330.996" cy="134.985" r="6"/>
<circle cx="673.816" cy="191.871" r="6"/>
<circle cx="608.129" cy="126.184" r="6"/>
<circle cx="554.988" cy="206.110" r="6"/>
<circle cx="495.788" cy="202.365" r="6"/>
<circle cx="640.973" cy="241.267" r="6"/>
<circle cx="534.690" cy="134.985" r="6"/>
<circle cx="191.871" cy="673.816" r="6"/>
<circle cx="126.184" cy="608.129" r="6"/>
<circle cx="245.012" cy="593.890" r="6"/>
<circle cx="304.212" cy="597.635" r="6"/>
<circle cx="265.310" cy="665.015" r="6"/>
<circle cx="159.027" cy="558.733" r="6"/>
<circle cx="395.565" cy="673.816" r="6"/>
<circle cx="329.878" cy="608.129" r="6"/>
<circle cx="448.706" cy="593.890" r="6"/>
<circle cx="430.102" cy="597.635" r="6"/>
<circle cx="469.004" cy="665.015" r="6"/>
<circle cx="362.721" cy="558.733" r="6"/>
<circle cx="191.871" cy="470.122" r="6"/>
<circle cx="126.184" cy="404.435" r="6"/>
<circle cx="245.012" cy="312.392" r="6"/>
<circle cx="304.212" cy="268.051" r="6"/>
<circle cx="265.310" cy="413.236" r="6"/>
<circle cx="159.027" cy="306.953" r="6"/>
<circle cx="395.565" cy="470.122" r="6"/>
<circle cx="329.878" cy="404.435" r="6"/>
<circle cx="448.706" cy="312.392" r="6"/>
<circle cx="430.102" cy="268.051" r="6"/>
<circle cx="469.004" cy="413.236" r="6"/>
<circle cx="362.721" cy="306.953" r="6"/>
<circle cx="446.079" cy="571.969" r="6"/>
<circle cx="451.518" cy="485.984" r="6"/>
<circle cx="499.220" cy="492.043" r="6"/>
<circle cx="499.220" cy="414.239" r="6"/>
<circle cx="697.858" cy="571.969" r="6"/>
<circle cx="733.016" cy="485.984" r="6"/>
<circle cx="751.000" cy="492.043" r="6"/>
<circle cx="751.000" cy="414.239" r="6"/>
<circle cx="345.235" cy="592.267" r="6"/>
<circle cx="327.251" cy="664.012" r="6"/>
<circle cx="327.251" cy="586.208" r="6"/>
<circle cx="626.733" cy="592.267" r="6"/>
<circle cx="579.031" cy="664.012" r="6"/>
<circle cx="579.031" cy="586.208" r="6"/>
<circle cx="102.142" cy="228.031" r="6"/>
<circle cx="173.267" cy="207.733" r="6"/>
<circle cx="220.969" cy="213.792" r="6"/>
<circle cx="220.969" cy="135.988" r="6"/>
<circle cx="353.921" cy="228.031" r="6"/>
<circle cx="454.765" cy="207.733" r="6"/>
<circle cx="472.749" cy="213.792" r="6"/>
<circle cx="472.749" cy="135.988" r="6"/>
<circle cx="66.984" cy="314.016" r="6"/>
<circle cx="49.000" cy="385.761" r="6"/>
<circle cx="49.000" cy="307.957" r="6"/>
<circle cx="348.482" cy="314.016" r="6"/>
<circle cx="300.780" cy="385.761" r="6"/>
<circle cx="300.780" cy="307.957" r="6"/>
<circle cx="446.079" cy="228.031" r="6"/>
<circle cx="398.376" cy="299.777" r="6"/>
<circle cx="466.377" cy="376.961" r="6"/>
<circle cx="360.095" cy="270.678" r="6"/>
<circle cx="697.858" cy="228.031" r="6"/>
<circle cx="679.875" cy="299.777" r="6"/>
<circle cx="718.157" cy="376.961" r="6"/>
<circle cx="611.874" cy="270.678" r="6"/>
<circle cx="398.376" cy="221.972" r="6"/>
<circle cx="466.377" cy="251.071" r="6"/>
<circle cx="360.095" cy="144.788" r="6"/>
<circle cx="679.875" cy="221.972" r="6"/>
<circle cx="718.157" cy="251.071" r="6"/>
<circle cx="611.874" cy="144.788" r="6"/>
<circle cx="102.142" cy="571.969" r="6"/>
<circle cx="120.125" cy="578.028" r="6"/>
<circle cx="188.126" cy="655.212" r="6"/>
<circle cx="81.843" cy="548.929" r="6"/>
<circle cx="353.921" cy="571.969" r="6"/>
<circle cx="401.624" cy="578.028" r="6"/>
<circle cx="439.905" cy="655.212" r="6"/>
<circle cx="333.623" cy="548.929" r="6"/>
<circle cx="120.125" cy="500.223" r="6"/>
<circle cx="188.126" cy="529.322" r="6"/>
<circle cx="81.843" cy="423.039" r="6"/>
<circle cx="401.624" cy="500.223" r="6"/>
<circle cx="439.905" cy="529.322" r="6"/>
<circle cx="333.623" cy="423.039" r="6"/>
<circle cx="274.110" cy="525.890" r="6"/>
<circle cx="312.392" cy="554.988" r="6"/>
<circle cx="413.236" cy="534.690" r="6"/>
<circle cx="306.953" cy="640.973" r="6"/>
<circle cx="525.890" cy="525.890" r="6"/>
<circle cx="593.890" cy="554.988" r="6"/>
<circle cx="665.015" cy="534.690" r="6"/>
<circle cx="558.733" cy="640.973" r="6"/>
<circle cx="274.110" cy="274.110" r="6"/>
<circle cx="312.392" cy="351.294" r="6"/>
<circle cx="413.236" cy="330.996" r="6"/>
<circle cx="306.953" cy="437.279" r="6"/>
<circle cx="525.890" cy="274.110" r="6"/>
<circle cx="593.890" cy="351.294" r="6"/>
<circle cx="665.015" cy="330.996" r="6"/>
<circle cx="558.733" cy="437.279" r="6"/>
<circle cx="206.110" cy="448.706" r="6"/>
<circle cx="241.267" cy="362.721" r="6"/>
<circle cx="134.985" cy="469.004" r="6"/>
<circle cx="487.608" cy="448.706" r="6"/>
<circle cx="493.047" cy="362.721" r="6"/>
<circle cx="386.764" cy="469.004" r="6"/>
<circle cx="206.110" cy="245.012" r="6"/>
<circle cx="241.267" cy="159.027" r="6"/>
<circle cx="134.985" cy="265.310" r="6"/>
<circle cx="487.608" cy="245.012" r="6"/>
<circle cx="493.047" cy="159.027" r="6"/>
<circle cx="386.764" cy="265.310" r="6"/>
<circle cx="321.192" cy="338.058" r="6"/>
<circle cx="321.192" cy="289.973" r="6"/>
<circle cx="354.036" cy="453.141" r="6"/>
<circle cx="431.220" cy="462.945" r="6"/>
<circle cx="341.491" cy="438.902" r="6"/>
<circle cx="431.220" cy="337.055" r="6"/>
<circle cx="341.491" cy="361.098" r="6"/>
<circle cx="650.776" cy="338.058" r="6"/>
<circle cx="650.776" cy="289.973" r="6"/>
<circle cx="683.619" cy="453.141" r="6"/>
<circle cx="712.718" cy="462.945" r="6"/>
<circle cx="671.074" cy="438.902" r="6"/>
<circle cx="712.718" cy="337.055" r="6"/>
<circle cx="671.074" cy="361.098" r="6"/>
<circle cx="149.224" cy="510.027" r="6"/>
<circle cx="149.224" cy="461.942" r="6"/>
<circle cx="288.349" cy="518.827" r="6"/>
<circle cx="259.251" cy="634.914" r="6"/>
<circle cx="235.208" cy="545.185" r="6"/>
<circle cx="259.251" cy="509.024" r="6"/>
<circle cx="235.208" cy="467.380" r="6"/>
<circle cx="478.808" cy="510.027" r="6"/>
<circle cx="478.808" cy="461.942" r="6"/>
<circle cx="617.933" cy="518.827" r="6"/>
<circle cx="540.749" cy="634.914" r="6"/>
<circle cx="564.792" cy="545.185" r="6"/>
<circle cx="540.749" cy="509.024" r="6"/>
<circle cx="564.792" cy="467.380" r="6"/>
<circle cx="182.067" cy="281.173" r="6"/>
<circle cx="259.251" cy="290.976" r="6"/>
<circle cx="235.208" cy="332.620" r="6"/>
<circle cx="259.251" cy="165.086" r="6"/>
<circle cx="235.208" cy="254.815" r="6"/>
<circle cx="511.651" cy="281.173" r="6"/>
<circle cx="540.749" cy="290.976" r="6"/>
<circle cx="564.792" cy="332.620" r="6"/>
<circle cx="540.749" cy="165.086" r="6"/>
<circle cx="564.792" cy="254.815" r="6"/>
<circle cx="116.381" cy="346.859" r="6"/>
<circle cx="87.282" cy="462.945" r="6"/>
<circle cx="128.926" cy="438.902" r="6"/>
<circle cx="87.282" cy="337.055" r="6"/>
<circle cx="128.926" cy="361.098" r="6"/>
<circle cx="445.964" cy="346.859" r="6"/>
<circle cx="368.780" cy="462.945" r="6"/>
<circle cx="458.509" cy="438.902" r="6"/>
<circle cx="368.780" cy="337.055" r="6"/>
<circle cx="458.509" cy="361.098" r="6"/>
<circle cx="268.051" cy="495.788" r="6"/>
<circle cx="597.635" cy="495.788" r="6"/>
<circle cx="268.051" cy="369.898" r="6"/>
<circle cx="597.635" cy="369.898" r="6"/>
<circle cx="202.365" cy="430.102" r="6"/>
<circle cx="531.949" cy="430.102" r="6"/>
<circle cx="202.365" cy="304.212" r="6"/>
<circle cx="531.949" cy="304.212" r="6"/>
</g>
</svg>
