<?xml version="1.0" encoding="UTF-8" standalone="no"?>
<!-- Creator: fig2dev Version 3.2 Patchlevel 5e -->

<!-- CreationDate: Mon Jan 11 13:16:21 2016 -->

<!-- Magnification: 1.050 -->

<svg
   xmlns:dc="http://purl.org/dc/elements/1.1/"
   xmlns:cc="http://creativecommons.org/ns#"
   xmlns:rdf="http://www.w3.org/1999/02/22-rdf-syntax-ns#"
   xmlns:svg="http://www.w3.org/2000/svg"
   xmlns="http://www.w3.org/2000/svg"
   xmlns:sodipodi="http://sodipodi.sourceforge.net/DTD/sodipodi-0.dtd"
   xmlns:inkscape="http://www.inkscape.org/namespaces/inkscape"
   width="372.28604"
   height="406.93481"
   viewBox="912 -3083 4931.7559 5366.1961"
   id="svg2"
   version="1.1"
   inkscape:version="0.48.5 r10040"
   sodipodi:docname="kardioide-kreise.svg">
  <metadata
     id="metadata124">
    <rdf:RDF>
      <cc:Work
         rdf:about="">
        <dc:format>image/svg+xml</dc:format>
        <dc:type
           rdf:resource="http://purl.org/dc/dcmitype/StillImage" />
      </cc:Work>
    </rdf:RDF>
  </metadata>
  <defs
     id="defs122" />
  <sodipodi:namedview
     pagecolor="#ffffff"
     bordercolor="#666666"
     borderopacity="1"
     objecttolerance="10"
     gridtolerance="10"
     guidetolerance="10"
     inkscape:pageopacity="0"
     inkscape:pageshadow="2"
     inkscape:window-width="1209"
     inkscape:window-height="564"
     id="namedview120"
     showgrid="false"
     units="mm"
     fit-margin-top="2"
     fit-margin-left="2"
     fit-margin-right="2"
     fit-margin-bottom="2"
     inkscape:zoom="0.88220518"
     inkscape:cx="166.30637"
     inkscape:cy="203.46741"
     inkscape:window-x="0"
     inkscape:window-y="0"
     inkscape:window-maximized="0"
     inkscape:current-layer="svg2" />
  <g
     style="fill:none;stroke-width:0.025in"
     id="g4"
     transform="translate(75.877953,72.928003)">
    <!-- Line -->
    <!--  polyline  -->
    <polyline
       points="4727,-3053 4727,2125 "
       style="stroke:#000000;stroke-width:8;stroke-linecap:butt;stroke-linejoin:round;stroke-dasharray:83, 41, 10, 41"
       id="polyline6" />
    <!-- Arrowhead on XXXpoint 4727 2125 - 4727 -3086-->
    <polyline
       points="4774 -2913 4727 -3070 4680 -2913 "
       style="stroke:#000000;stroke-width:8;stroke-miterlimit:8"
       id="polyline8" />
    <!-- Line -->
    <!--  polyline  -->
    <polyline
       points="946,-471 5651,-471 "
       style="stroke:#000000;stroke-width:8;stroke-linecap:butt;stroke-linejoin:round;stroke-dasharray:83, 41, 10, 41"
       id="polyline10" />
    <!-- Arrowhead on XXXpoint 946 -471 - 5685 -471-->
    <polyline
       points="5512 -423 5670 -470 5512 -517 "
       style="stroke:#000000;stroke-width:8;stroke-miterlimit:8"
       id="polyline12" />
    <!-- Line -->
    <!--  spline  -->
    <polyline
       points="4727,-433 4728,-433 4730,-434 4735,-434 4738,-435 4739,-435 4741,-435 4743,-436 4746,-437 4749,-439 4752,-441 4753,-443 4753,-444 4754,-445 4756,-448 4759,-451 4760,-452 4760,-453 4761,-454 4762,-458 4763,-462 4764,-466 4764,-469 4764,-471 4764,-472 4763,-474 4763,-479 4762,-481 4762,-482 4761,-485 4760,-487 4759,-490 4756,-493 4754,-496 4753,-497 4752,-498 4749,-500 4746,-502 4745,-503 4744,-504 4743,-506 4739,-507 4734,-508 4731,-508 4729,-508 4727,-508 4726,-508 4723,-508 4719,-507 4716,-507 4714,-507 4712,-506 4710,-504 4707,-502 4704,-500 4701,-498 4700,-497 4699,-497 4698,-496 4696,-493 4693,-490 4692,-489 4692,-488 4691,-487 4690,-482 4689,-478 4689,-475 4689,-473 4689,-471 4689,-470 4689,-467 4690,-462 4690,-459 4690,-458 4691,-456 4691,-454 4693,-451 4696,-448 4698,-445 4699,-444 4700,-443 4701,-441 4704,-439 4707,-437 4708,-437 4709,-436 4710,-436 4714,-435 4719,-434 4722,-433 4725,-433 4727,-433 "
       style="stroke:#cc0000;stroke-width:16;stroke-linecap:butt;stroke-linejoin:bevel"
       id="polyline14" />
    <!-- Line -->
    <!--  polyline  -->
    <polyline
       points="3782,473 3809,473 3843,473 3871,468 3900,465 3928,465 3956,454 3990,450 4017,446 4046,435 4075,426 4102,416 4131,407 4155,398 4183,383 4212,369 4235,355 4264,341 4287,327 4311,308 4339,295 4363,276 4382,257 4405,237 4429,218 4448,194 4472,176 4490,152 4509,129 4528,110 4546,87 4561,57 4580,34 4594,10 4607,-16 4623,-40 4637,-69 4650,-97 4661,-121 4669,-149 4679,-178 4689,-205 4698,-234 4703,-263 4708,-296 4717,-324 4717,-352 4722,-381 4727,-409 4727,-441 4727,-471 4727,-499 4727,-532 4722,-560 4717,-588 4717,-617 4708,-645 4703,-679 4698,-707 4689,-734 4679,-764 4669,-792 4661,-819 4650,-844 4637,-872 4623,-900 4607,-923 4594,-953 4580,-976 4561,-1000 4546,-1027 4528,-1051 4509,-1070 4490,-1093 4472,-1118 4448,-1137 4429,-1160 4405,-1179 4382,-1197 4363,-1216 4339,-1236 4311,-1250 4287,-1269 4264,-1282 4235,-1297 4212,-1312 4183,-1325 4155,-1340 4131,-1349 4102,-1359 4075,-1367 4046,-1378 4017,-1386 3990,-1392 3956,-1397 3928,-1405 3900,-1405 3871,-1411 3843,-1416 3809,-1416 3782,-1416 3753,-1416 3720,-1416 3692,-1411 3664,-1405 3635,-1405 3607,-1397 3574,-1392 3546,-1386 3517,-1378 3489,-1367 3461,-1359 3432,-1349 3408,-1340 3380,-1325 3352,-1312 3328,-1297 3300,-1282 3276,-1269 3253,-1250 3224,-1236 3201,-1216 3182,-1197 3158,-1179 3134,-1160 3116,-1137 3091,-1118 3072,-1093 3054,-1070 3035,-1051 3016,-1027 3002,-1000 2983,-976 2969,-953 2955,-923 2941,-900 2927,-872 2912,-844 2902,-819 2894,-792 2883,-764 2875,-734 2865,-707 2860,-679 2856,-645 2846,-617 2846,-588 2841,-560 2837,-532 2837,-499 2837,-471 2837,-441 2837,-409 2841,-381 2846,-352 2846,-324 2856,-296 2860,-263 2865,-234 2875,-205 2883,-178 2894,-149 2902,-121 2912,-97 2927,-69 2941,-40 2955,-16 2969,10 2983,34 3002,57 3016,87 3035,110 3054,129 3072,152 3091,176 3116,194 3134,218 3158,237 3182,257 3201,276 3224,295 3253,308 3276,327 3300,341 3328,355 3352,369 3380,383 3408,398 3432,407 3461,416 3489,426 3517,435 3546,446 3574,450 3607,454 3635,465 3664,465 3692,468 3720,473 3753,473 3782,473 "
       style="stroke:#00b0b0;stroke-width:16;stroke-linecap:butt;stroke-linejoin:round"
       id="polyline16" />
    <!-- Line -->
    <!--  spline  -->
    <polyline
       points="4727,-433 4728,-433 4730,-434 4735,-434 4738,-435 4739,-435 4741,-435 4743,-436 4746,-437 4749,-439 4752,-441 4753,-443 4753,-444 4754,-445 4756,-448 4759,-451 4760,-452 4760,-453 4761,-454 4762,-458 4763,-462 4764,-466 4764,-469 4764,-471 4764,-472 4763,-474 4763,-479 4762,-481 4762,-482 4761,-485 4760,-487 4759,-490 4756,-493 4754,-496 4753,-497 4752,-498 4749,-500 4746,-502 4745,-503 4744,-504 4743,-506 4739,-507 4734,-508 4731,-508 4729,-508 4727,-508 4726,-508 4723,-508 4719,-507 4716,-507 4714,-507 4712,-506 4710,-504 4707,-502 4704,-500 4701,-498 4700,-497 4699,-497 4698,-496 4696,-493 4693,-490 4692,-489 4692,-488 4691,-487 4690,-482 4689,-478 4689,-475 4689,-473 4689,-471 4689,-470 4689,-467 4690,-462 4690,-459 4690,-458 4691,-456 4691,-454 4693,-451 4696,-448 4698,-445 4699,-444 4700,-443 4701,-441 4704,-439 4707,-437 4708,-437 4709,-436 4710,-436 4714,-435 4719,-434 4722,-433 4725,-433 4727,-433 "
       style="stroke:#00cccc;stroke-width:16;stroke-linecap:butt;stroke-linejoin:bevel"
       id="polyline18" />
    <!-- Line -->
    <!--  polyline  -->
    <polyline
       points="4027,1593 4060,1593 4098,1588 4136,1588 4169,1583 4206,1580 4240,1569 4278,1565 4311,1555 4349,1546 4382,1537 4415,1522 4448,1513 4480,1499 4514,1484 4546,1465 4580,1451 4613,1433 4642,1414 4675,1394 4703,1372 4731,1352 4760,1329 4788,1306 4812,1281 4839,1253 4864,1229 4887,1202 4911,1172 4934,1144 4958,1117 4977,1087 4996,1059 5015,1026 5034,994 5053,965 5067,931 5081,898 5095,866 5109,832 5119,794 5132,762 5142,728 5147,691 5156,657 5161,620 5166,587 5171,550 5174,511 5174,478 5174,440 5174,407 5174,369 5171,331 5166,299 5161,261 5156,227 5147,191 5142,157 5132,119 5119,87 5109,53 5095,20 5081,-16 5067,-45 5053,-79 5034,-112 5015,-144 4996,-173 4977,-205 4958,-234 4934,-263 4911,-290 4887,-319 4864,-348 4839,-371 4812,-395 4788,-418 4760,-441 4731,-466 4703,-490 4675,-508 4642,-527 4613,-545 4580,-564 4546,-584 4514,-598 4480,-612 4448,-626 4415,-641 4382,-649 4349,-664 4311,-674 4278,-679 4240,-688 4206,-692 4169,-697 4136,-702 4098,-707 4060,-707 4027,-707 3990,-707 3952,-707 3919,-702 3881,-697 3848,-692 3809,-688 3777,-679 3739,-674 3706,-664 3673,-649 3635,-641 3602,-626 3569,-612 3535,-598 3503,-584 3469,-564 3442,-545 3408,-527 3380,-508 3352,-490 3322,-466 3295,-441 3267,-418 3237,-395 3215,-371 3186,-348 3163,-319 3139,-290 3116,-263 3097,-234 3072,-205 3054,-173 3035,-144 3016,-112 3002,-79 2983,-45 2969,-16 2955,20 2945,53 2931,87 2921,119 2912,157 2902,191 2898,227 2889,261 2883,299 2879,331 2879,369 2875,407 2875,440 2875,478 2879,511 2879,550 2883,587 2889,620 2898,657 2902,691 2912,728 2921,762 2931,794 2945,832 2955,866 2969,898 2983,931 3002,965 3016,994 3035,1026 3054,1059 3072,1087 3097,1117 3116,1144 3139,1172 3163,1202 3186,1229 3215,1253 3237,1281 3267,1306 3295,1329 3322,1352 3352,1372 3380,1394 3408,1414 3442,1433 3469,1451 3503,1465 3535,1484 3569,1499 3602,1513 3635,1522 3673,1537 3706,1546 3739,1555 3777,1565 3809,1569 3848,1580 3881,1583 3919,1588 3952,1588 3990,1593 4027,1593 "
       style="stroke:#cc00cc;stroke-width:8;stroke-linecap:butt;stroke-linejoin:round"
       id="polyline20" />
    <!-- Line -->
    <!--  spline  -->
    <polyline
       points="4027,465 4029,465 4033,464 4035,464 4036,462 4037,462 4038,461 4040,459 4043,457 4044,457 4045,456 4047,454 4048,452 4049,451 4049,450 4050,448 4051,446 4051,444 4051,441 4051,440 4051,438 4050,435 4050,433 4050,432 4049,430 4048,428 4047,426 4045,424 4044,424 4043,423 4040,422 4038,420 4038,419 4037,419 4035,418 4032,417 4030,417 4028,416 4027,416 4025,417 4022,417 4019,418 4018,418 4017,419 4016,420 4014,422 4012,423 4011,424 4010,424 4008,426 4007,428 4006,429 4006,430 4006,431 4005,433 4004,436 4004,437 4004,439 4004,440 4004,443 4005,446 4005,448 4005,449 4006,450 4007,452 4008,454 4010,456 4011,457 4012,457 4014,459 4016,460 4016,461 4017,462 4019,464 4022,465 4024,465 4026,465 4027,465 "
       style="fill:#cc00cc;stroke:#cc00cc;stroke-width:0;stroke-linecap:butt;stroke-linejoin:bevel"
       id="polyline22" />
    <!-- Line -->
    <!--  polyline  -->
    <polyline
       points="4254,1291 4283,1291 4316,1291 4344,1287 4372,1287 4401,1281 4429,1276 4461,1268 4490,1262 4519,1253 4546,1244 4575,1234 4604,1225 4627,1215 4656,1202 4684,1187 4708,1172 4735,1159 4760,1144 4783,1130 4812,1111 4835,1092 4854,1074 4878,1055 4900,1036 4920,1016 4943,994 4963,970 4982,951 5001,928 5020,903 5034,880 5053,851 5067,827 5081,804 5095,776 5109,747 5123,724 5132,696 5142,667 5152,639 5161,611 5171,582 5174,554 5180,525 5190,492 5190,465 5194,435 5198,407 5198,374 5198,346 5198,318 5198,289 5194,257 5190,227 5190,199 5180,172 5174,142 5171,110 5161,81 5152,53 5142,25 5132,2 5123,-27 5109,-55 5095,-82 5081,-107 5067,-135 5053,-159 5034,-183 5020,-205 5001,-229 4982,-253 4963,-277 4943,-301 4920,-319 4900,-343 4878,-362 4854,-381 4835,-399 4812,-418 4783,-433 4760,-452 4735,-466 4708,-479 4684,-494 4656,-508 4627,-518 4604,-532 4575,-542 4546,-551 4519,-560 4490,-570 4461,-575 4429,-579 4401,-584 4372,-588 4344,-594 4316,-594 4283,-598 4254,-598 4226,-598 4193,-594 4163,-594 4136,-588 4108,-584 4079,-579 4046,-575 4017,-570 3990,-560 3961,-551 3932,-542 3905,-532 3881,-518 3853,-508 3824,-494 3801,-479 3772,-466 3749,-452 3724,-433 3697,-418 3673,-399 3654,-381 3631,-362 3607,-343 3588,-319 3564,-301 3546,-277 3527,-253 3508,-229 3489,-205 3475,-183 3456,-159 3442,-135 3427,-107 3413,-82 3399,-55 3385,-27 3375,2 3365,25 3357,53 3346,81 3338,110 3333,142 3328,172 3319,199 3319,227 3314,257 3309,289 3309,318 3309,346 3309,374 3309,407 3314,435 3319,465 3319,492 3328,525 3333,554 3338,582 3346,611 3357,639 3365,667 3375,696 3385,724 3399,747 3413,776 3427,804 3442,827 3456,851 3475,880 3489,903 3508,928 3527,951 3546,970 3564,994 3588,1016 3607,1036 3631,1055 3654,1074 3673,1092 3697,1111 3724,1130 3749,1144 3772,1159 3801,1172 3824,1187 3853,1202 3881,1215 3905,1225 3932,1234 3961,1244 3990,1253 4017,1262 4046,1268 4079,1276 4108,1281 4136,1287 4163,1287 4193,1291 4226,1291 4254,1291 "
       style="stroke:#cc00cc;stroke-width:8;stroke-linecap:butt;stroke-linejoin:round"
       id="polyline24" />
    <!-- Line -->
    <!--  spline  -->
    <polyline
       points="4254,369 4256,369 4260,368 4262,368 4263,368 4264,367 4266,366 4268,365 4270,364 4270,363 4271,363 4272,361 4274,359 4275,358 4275,356 4276,355 4277,353 4278,350 4278,349 4278,347 4278,346 4278,344 4277,341 4277,339 4276,338 4276,337 4274,334 4272,332 4271,330 4270,329 4268,327 4266,326 4265,325 4264,324 4262,323 4259,322 4257,322 4255,322 4254,322 4251,322 4249,323 4247,323 4246,324 4244,324 4242,325 4240,327 4238,329 4237,329 4236,330 4235,332 4234,334 4233,335 4233,337 4232,339 4230,341 4230,343 4230,345 4230,346 4230,348 4232,351 4232,353 4232,354 4233,356 4234,359 4235,361 4236,363 4237,363 4238,364 4240,365 4242,366 4243,367 4244,367 4245,367 4247,368 4249,369 4251,369 4253,369 4254,369 "
       style="fill:#cc00cc;stroke:#cc00cc;stroke-width:0;stroke-linecap:butt;stroke-linejoin:bevel"
       id="polyline26" />
    <!-- Line -->
    <!--  polyline  -->
    <polyline
       points="4448,917 4472,917 4495,917 4519,917 4542,913 4561,913 4585,909 4607,903 4627,898 4650,889 4675,885 4693,875 4717,870 4735,861 4760,851 4779,843 4796,832 4816,818 4835,809 4854,794 4873,781 4892,766 4911,752 4930,739 4943,724 4963,709 4977,691 4991,677 5005,657 5020,639 5034,620 5048,601 5062,582 5071,563 5086,544 5095,525 5105,507 5113,483 5123,465 5128,440 5138,422 5142,398 5152,374 5156,355 5161,331 5166,308 5166,289 5171,265 5171,242 5171,218 5171,194 5171,176 5171,152 5171,129 5166,106 5166,81 5161,62 5156,39 5152,15 5142,-3 5138,-27 5128,-45 5123,-69 5113,-88 5105,-112 5095,-131 5086,-149 5071,-167 5062,-192 5048,-211 5034,-229 5020,-244 5005,-263 4991,-282 4977,-296 4963,-314 4943,-329 4930,-343 4911,-362 4892,-375 4873,-386 4854,-399 4835,-414 4816,-423 4796,-437 4779,-447 4760,-457 4735,-466 4717,-475 4693,-485 4675,-490 4650,-499 4627,-503 4607,-508 4585,-513 4561,-518 4542,-518 4519,-522 4495,-522 4472,-527 4448,-527 4429,-527 4405,-522 4382,-522 4358,-518 4334,-518 4316,-513 4291,-508 4268,-503 4248,-499 4226,-490 4206,-485 4183,-475 4163,-466 4141,-457 4121,-447 4102,-437 4083,-423 4060,-414 4041,-399 4023,-386 4008,-375 3990,-362 3971,-343 3956,-329 3938,-314 3923,-296 3909,-282 3890,-263 3876,-244 3867,-229 3853,-211 3838,-192 3828,-167 3815,-149 3805,-131 3796,-112 3785,-88 3777,-69 3767,-45 3763,-27 3753,-3 3749,15 3743,39 3739,62 3735,81 3735,106 3730,129 3730,152 3724,176 3724,194 3724,218 3730,242 3730,265 3735,289 3735,308 3739,331 3743,355 3749,374 3753,398 3763,422 3767,440 3777,465 3785,483 3796,507 3805,525 3815,544 3828,563 3838,582 3853,601 3867,620 3876,639 3890,657 3909,677 3923,691 3938,709 3956,724 3971,739 3990,752 4008,766 4023,781 4041,794 4060,809 4083,818 4102,832 4121,843 4141,851 4163,861 4183,870 4206,875 4226,885 4248,889 4268,898 4291,903 4316,909 4334,913 4358,913 4382,917 4405,917 4429,917 4448,917 "
       style="stroke:#cc00cc;stroke-width:8;stroke-linecap:butt;stroke-linejoin:round"
       id="polyline28" />
    <!-- Line -->
    <!--  spline  -->
    <polyline
       points="4448,218 4450,218 4453,217 4455,217 4456,217 4457,217 4459,216 4461,215 4464,213 4465,213 4465,212 4466,211 4467,208 4468,206 4469,205 4469,204 4470,202 4471,199 4471,197 4472,195 4472,194 4471,192 4471,190 4470,187 4470,186 4469,185 4468,183 4467,181 4466,179 4465,178 4465,177 4464,177 4461,175 4459,174 4458,174 4457,174 4455,173 4453,173 4451,172 4449,172 4448,172 4446,172 4441,173 4439,173 4438,173 4437,173 4436,174 4434,175 4432,177 4431,178 4431,179 4429,181 4428,183 4427,184 4426,185 4425,187 4424,190 4424,192 4424,193 4424,194 4424,196 4425,200 4425,202 4426,203 4426,204 4427,206 4429,208 4431,211 4431,212 4432,213 4434,215 4436,216 4437,216 4439,217 4443,217 4445,218 4447,218 4448,218 "
       style="fill:#cc00cc;stroke:#cc00cc;stroke-width:0;stroke-linecap:butt;stroke-linejoin:bevel"
       id="polyline30" />
    <!-- Line -->
    <!--  polyline  -->
    <polyline
       points="4599,492 4613,488 4632,488 4646,488 4661,488 4675,483 4693,483 4708,478 4722,473 4735,468 4750,465 4764,459 4779,454 4793,450 4807,446 4820,435 4835,431 4849,422 4864,412 4873,407 4887,398 4900,388 4911,380 4924,369 4934,355 4943,346 4958,337 4967,322 4977,313 4985,299 4996,289 5005,276 5015,261 5020,251 5028,237 5034,223 5043,209 5048,194 5053,180 5062,166 5067,152 5071,138 5071,124 5076,110 5081,91 5081,76 5086,62 5086,48 5090,34 5090,15 5090,2 5090,-12 5090,-31 5086,-45 5086,-59 5081,-74 5081,-88 5076,-107 5071,-121 5071,-135 5067,-149 5062,-163 5053,-178 5048,-192 5043,-205 5034,-220 5028,-234 5020,-248 5015,-258 5005,-271 4996,-286 4985,-296 4977,-310 4967,-319 4958,-333 4943,-343 4934,-352 4924,-367 4911,-375 4900,-386 4887,-395 4873,-405 4864,-409 4849,-418 4835,-428 4820,-433 4807,-441 4793,-447 4779,-452 4764,-457 4750,-460 4735,-466 4722,-471 4708,-475 4693,-479 4675,-479 4661,-485 4646,-485 4632,-485 4613,-485 4599,-490 4585,-485 4571,-485 4552,-485 4538,-485 4522,-479 4509,-479 4495,-475 4476,-471 4461,-466 4448,-460 4434,-457 4419,-452 4405,-447 4391,-441 4376,-433 4363,-428 4353,-418 4339,-409 4325,-405 4311,-395 4301,-386 4287,-375 4278,-367 4264,-352 4254,-343 4245,-333 4235,-319 4221,-310 4212,-296 4202,-286 4197,-271 4187,-258 4179,-248 4169,-234 4163,-220 4160,-205 4150,-192 4145,-178 4141,-163 4136,-149 4131,-135 4127,-121 4121,-107 4121,-88 4117,-74 4112,-59 4112,-45 4112,-31 4112,-12 4112,2 4112,15 4112,34 4112,48 4112,62 4117,76 4121,91 4121,110 4127,124 4131,138 4136,152 4141,166 4145,180 4150,194 4160,209 4163,223 4169,237 4179,251 4187,261 4197,276 4202,289 4212,299 4221,313 4235,322 4245,337 4254,346 4264,355 4278,369 4287,380 4301,388 4311,398 4325,407 4339,412 4353,422 4363,431 4376,435 4391,446 4405,450 4419,454 4434,459 4448,465 4461,468 4476,473 4495,478 4509,483 4522,483 4538,488 4552,488 4571,488 4585,488 4599,492 "
       style="stroke:#cc00cc;stroke-width:8;stroke-linecap:butt;stroke-linejoin:round"
       id="polyline32" />
    <!-- Line -->
    <!--  spline  -->
    <polyline
       points="4599,25 4601,25 4604,24 4606,24 4607,24 4608,23 4611,22 4613,20 4615,19 4616,18 4617,17 4618,15 4619,13 4620,12 4620,11 4620,10 4621,8 4622,6 4622,4 4623,3 4623,2 4622,0 4622,-4 4621,-6 4621,-7 4620,-8 4619,-10 4618,-12 4617,-14 4616,-14 4615,-15 4613,-16 4611,-17 4609,-18 4608,-19 4606,-20 4604,-22 4602,-22 4600,-22 4599,-22 4597,-22 4594,-20 4592,-20 4591,-19 4590,-19 4587,-17 4585,-16 4583,-15 4582,-14 4581,-14 4580,-12 4579,-10 4578,-9 4578,-8 4577,-6 4576,-3 4576,-1 4575,1 4575,2 4576,4 4576,6 4577,8 4577,9 4578,11 4579,13 4580,15 4581,17 4582,18 4583,19 4585,20 4587,22 4588,23 4590,23 4592,24 4594,25 4596,25 4598,25 4599,25 "
       style="fill:#cc00cc;stroke:#cc00cc;stroke-width:0;stroke-linecap:butt;stroke-linejoin:bevel"
       id="polyline34" />
    <!-- Line -->
    <!--  polyline  -->
    <polyline
       points="4693,20 4703,20 4708,20 4717,20 4727,20 4731,15 4741,15 4750,15 4754,10 4764,10 4769,5 4779,5 4783,2 4793,2 4796,-3 4807,-8 4812,-8 4820,-12 4826,-16 4835,-22 4839,-27 4845,-31 4849,-36 4858,-40 4864,-45 4868,-50 4873,-55 4878,-64 4882,-69 4887,-74 4892,-82 4897,-88 4900,-93 4906,-101 4911,-107 4916,-116 4916,-121 4920,-131 4924,-135 4924,-144 4930,-149 4930,-159 4934,-163 4934,-173 4934,-178 4939,-186 4939,-197 4939,-201 4939,-211 4939,-220 4939,-225 4939,-234 4939,-244 4939,-248 4939,-258 4939,-263 4934,-271 4934,-282 4934,-286 4930,-296 4930,-301 4924,-310 4924,-314 4920,-324 4916,-329 4916,-338 4911,-343 4906,-352 4900,-356 4897,-367 4892,-371 4887,-375 4882,-386 4878,-390 4873,-395 4868,-399 4864,-405 4858,-409 4849,-414 4845,-418 4839,-423 4835,-428 4826,-433 4820,-437 4812,-441 4807,-447 4796,-447 4793,-452 4783,-457 4779,-457 4769,-460 4764,-460 4754,-466 4750,-466 4741,-471 4731,-471 4727,-471 4717,-471 4708,-471 4703,-471 4693,-471 4689,-471 4679,-471 4669,-471 4665,-471 4656,-471 4646,-471 4642,-466 4632,-466 4627,-460 4618,-460 4607,-457 4604,-457 4594,-452 4590,-447 4580,-447 4575,-441 4571,-437 4561,-433 4557,-428 4546,-423 4542,-418 4538,-414 4533,-409 4522,-405 4519,-399 4514,-395 4509,-390 4504,-386 4500,-375 4495,-371 4490,-367 4486,-356 4480,-352 4476,-343 4476,-338 4472,-329 4467,-324 4467,-314 4461,-310 4461,-301 4457,-296 4457,-286 4453,-282 4453,-271 4453,-263 4448,-258 4448,-248 4448,-244 4448,-234 4448,-225 4448,-220 4448,-211 4448,-201 4448,-197 4453,-186 4453,-178 4453,-173 4457,-163 4457,-159 4461,-149 4461,-144 4467,-135 4467,-131 4472,-121 4476,-116 4476,-107 4480,-101 4486,-93 4490,-88 4495,-82 4500,-74 4504,-69 4509,-64 4514,-55 4519,-50 4522,-45 4533,-40 4538,-36 4542,-31 4546,-27 4557,-22 4561,-16 4571,-12 4575,-8 4580,-8 4590,-3 4594,2 4604,2 4607,5 4618,5 4627,10 4632,10 4642,15 4646,15 4656,15 4665,20 4669,20 4679,20 4689,20 4693,20 "
       style="stroke:#cc00cc;stroke-width:8;stroke-linecap:butt;stroke-linejoin:round"
       id="polyline36" />
    <!-- Line -->
    <!--  spline  -->
    <polyline
       points="4693,-201 4696,-202 4699,-202 4701,-203 4702,-203 4704,-203 4706,-204 4708,-205 4710,-206 4710,-207 4711,-208 4712,-211 4713,-213 4714,-214 4714,-215 4714,-216 4716,-218 4717,-221 4717,-222 4717,-224 4717,-225 4717,-227 4716,-229 4716,-232 4716,-233 4714,-235 4713,-237 4712,-239 4711,-241 4710,-242 4710,-243 4708,-244 4706,-245 4705,-246 4704,-246 4703,-246 4701,-247 4698,-248 4697,-248 4695,-248 4693,-248 4691,-248 4688,-247 4686,-247 4685,-247 4684,-246 4682,-245 4680,-244 4678,-243 4677,-242 4677,-241 4675,-239 4674,-237 4672,-236 4672,-235 4671,-234 4670,-232 4669,-229 4669,-227 4669,-226 4669,-225 4669,-223 4670,-220 4670,-218 4671,-217 4671,-215 4672,-213 4675,-211 4677,-208 4677,-207 4678,-206 4680,-205 4682,-204 4683,-204 4684,-204 4686,-203 4688,-202 4690,-202 4692,-201 4693,-201 "
       style="fill:#cc00cc;stroke:#cc00cc;stroke-width:0;stroke-linecap:butt;stroke-linejoin:bevel"
       id="polyline38" />
    <!-- Line -->
    <!--  polyline  -->
    <polyline
       points="4727,-471 "
       style="stroke:#cc00cc;stroke-width:8;stroke-linecap:butt;stroke-linejoin:round"
       id="polyline40" />
    <!-- Line -->
    <!--  spline  -->
    <polyline
       points="4727,-447 4729,-447 4731,-448 4733,-448 4734,-449 4737,-449 4739,-450 4741,-452 4743,-454 4744,-454 4744,-455 4745,-455 4746,-457 4747,-459 4748,-459 4748,-460 4749,-462 4750,-466 4750,-468 4750,-470 4750,-471 4750,-473 4749,-476 4749,-478 4749,-479 4748,-480 4747,-482 4746,-485 4745,-487 4744,-488 4743,-489 4741,-490 4739,-491 4738,-492 4737,-492 4735,-492 4733,-493 4731,-494 4729,-494 4728,-494 4727,-494 4725,-494 4721,-493 4719,-493 4718,-493 4717,-492 4714,-491 4712,-490 4710,-489 4710,-488 4709,-487 4708,-485 4707,-482 4706,-481 4705,-480 4704,-478 4703,-476 4703,-474 4703,-472 4703,-471 4703,-469 4704,-465 4704,-462 4705,-461 4705,-460 4707,-459 4708,-457 4709,-455 4710,-455 4710,-454 4712,-452 4714,-451 4716,-450 4717,-449 4719,-448 4722,-447 4724,-447 4726,-447 4727,-447 "
       style="fill:#cc00cc;stroke:#cc00cc;stroke-width:0;stroke-linecap:butt;stroke-linejoin:bevel"
       id="polyline42" />
    <!-- Line -->
    <!--  polyline  -->
    <polyline
       points="4693,-471 4703,-471 4708,-471 4717,-471 4727,-471 4731,-471 4741,-471 4750,-475 4754,-475 4764,-479 4769,-479 4779,-485 4783,-485 4793,-490 4796,-494 4807,-494 4812,-499 4820,-503 4826,-508 4835,-513 4839,-518 4845,-522 4849,-527 4858,-532 4864,-537 4868,-542 4873,-545 4878,-551 4882,-556 4887,-564 4892,-570 4897,-575 4900,-584 4906,-588 4911,-598 4916,-603 4916,-612 4920,-617 4924,-626 4924,-630 4930,-641 4930,-645 4934,-655 4934,-660 4934,-668 4939,-679 4939,-683 4939,-692 4939,-697 4939,-707 4939,-716 4939,-721 4939,-730 4939,-740 4939,-745 4939,-753 4934,-764 4934,-768 4934,-777 4930,-783 4930,-792 4924,-796 4924,-806 4920,-811 4916,-819 4916,-825 4911,-834 4906,-838 4900,-849 4897,-853 4892,-858 4887,-868 4882,-872 4878,-877 4873,-886 4868,-891 4864,-896 4858,-900 4849,-904 4845,-910 4839,-915 4835,-919 4826,-923 4820,-929 4812,-934 4807,-934 4796,-938 4793,-942 4783,-942 4779,-948 4769,-948 4764,-953 4754,-953 4750,-957 4741,-957 4731,-957 4727,-962 4717,-962 4708,-962 4703,-962 4693,-962 4689,-962 4679,-962 4669,-962 4665,-962 4656,-957 4646,-957 4642,-957 4632,-953 4627,-953 4618,-948 4607,-948 4604,-942 4594,-942 4590,-938 4580,-934 4575,-934 4571,-929 4561,-923 4557,-919 4546,-915 4542,-910 4538,-904 4533,-900 4522,-896 4519,-891 4514,-886 4509,-877 4504,-872 4500,-868 4495,-858 4490,-853 4486,-849 4480,-838 4476,-834 4476,-825 4472,-819 4467,-811 4467,-806 4461,-796 4461,-792 4457,-783 4457,-777 4453,-768 4453,-764 4453,-753 4448,-745 4448,-740 4448,-730 4448,-721 4448,-716 4448,-707 4448,-697 4448,-692 4448,-683 4453,-679 4453,-668 4453,-660 4457,-655 4457,-645 4461,-641 4461,-630 4467,-626 4467,-617 4472,-612 4476,-603 4476,-598 4480,-588 4486,-584 4490,-575 4495,-570 4500,-564 4504,-556 4509,-551 4514,-545 4519,-542 4522,-537 4533,-532 4538,-527 4542,-522 4546,-518 4557,-513 4561,-508 4571,-503 4575,-499 4580,-494 4590,-494 4594,-490 4604,-485 4607,-485 4618,-479 4627,-479 4632,-475 4642,-475 4646,-471 4656,-471 4665,-471 4669,-471 4679,-471 4689,-471 4693,-471 "
       style="stroke:#cc00cc;stroke-width:8;stroke-linecap:butt;stroke-linejoin:round"
       id="polyline44" />
    <!-- Line -->
    <!--  spline  -->
    <polyline
       points="4693,-692 4696,-692 4699,-693 4701,-693 4702,-693 4704,-695 4706,-696 4708,-697 4710,-698 4710,-699 4711,-700 4712,-702 4713,-704 4714,-705 4714,-706 4714,-707 4716,-709 4717,-711 4717,-713 4717,-714 4717,-716 4717,-718 4716,-722 4716,-724 4716,-725 4714,-726 4713,-728 4712,-730 4711,-732 4710,-732 4710,-733 4708,-734 4706,-735 4705,-737 4704,-737 4703,-738 4701,-739 4698,-740 4697,-740 4695,-740 4693,-740 4691,-740 4688,-739 4686,-739 4685,-738 4684,-738 4682,-735 4680,-734 4678,-733 4677,-732 4675,-730 4674,-728 4672,-727 4671,-726 4670,-724 4669,-721 4669,-719 4669,-717 4669,-716 4669,-713 4670,-711 4670,-709 4671,-708 4671,-706 4672,-704 4675,-702 4677,-700 4677,-699 4678,-698 4680,-697 4682,-696 4683,-695 4684,-695 4686,-693 4688,-692 4690,-692 4692,-692 4693,-692 "
       style="fill:#cc00cc;stroke:#cc00cc;stroke-width:0;stroke-linecap:butt;stroke-linejoin:bevel"
       id="polyline46" />
    <!-- Line -->
    <!--  polyline  -->
    <polyline
       points="4599,-452 4613,-457 4632,-457 4646,-457 4661,-457 4675,-460 4693,-460 4708,-466 4722,-471 4735,-475 4750,-479 4764,-485 4779,-490 4793,-494 4807,-499 4820,-508 4835,-513 4849,-522 4864,-532 4873,-537 4887,-545 4900,-556 4911,-564 4924,-575 4934,-588 4943,-598 4958,-607 4967,-622 4977,-630 4985,-645 4996,-655 5005,-668 5015,-683 5020,-692 5028,-707 5034,-721 5043,-734 5048,-749 5053,-764 5062,-777 5067,-792 5071,-806 5071,-819 5076,-834 5081,-853 5081,-868 5086,-881 5086,-896 5090,-910 5090,-929 5090,-942 5090,-957 5090,-976 5086,-990 5086,-1005 5081,-1019 5081,-1033 5076,-1051 5071,-1066 5071,-1080 5067,-1093 5062,-1108 5053,-1123 5048,-1137 5043,-1151 5034,-1165 5028,-1179 5020,-1194 5015,-1203 5005,-1216 4996,-1231 4985,-1240 4977,-1255 4967,-1264 4958,-1279 4943,-1288 4934,-1297 4924,-1312 4911,-1321 4900,-1330 4887,-1340 4873,-1349 4864,-1354 4849,-1363 4835,-1373 4820,-1378 4807,-1386 4793,-1392 4779,-1397 4764,-1401 4750,-1405 4735,-1411 4722,-1416 4708,-1420 4693,-1425 4675,-1425 4661,-1429 4646,-1429 4632,-1429 4613,-1429 4599,-1434 4585,-1429 4571,-1429 4552,-1429 4538,-1429 4522,-1425 4509,-1425 4495,-1420 4476,-1416 4461,-1411 4448,-1405 4434,-1401 4419,-1397 4405,-1392 4391,-1386 4376,-1378 4363,-1373 4353,-1363 4339,-1354 4325,-1349 4311,-1340 4301,-1330 4287,-1321 4278,-1312 4264,-1297 4254,-1288 4245,-1279 4235,-1264 4221,-1255 4212,-1240 4202,-1231 4197,-1216 4187,-1203 4179,-1194 4169,-1179 4163,-1165 4160,-1151 4150,-1137 4145,-1123 4141,-1108 4136,-1093 4131,-1080 4127,-1066 4121,-1051 4121,-1033 4117,-1019 4112,-1005 4112,-990 4112,-976 4112,-957 4112,-942 4112,-929 4112,-910 4112,-896 4112,-881 4117,-868 4121,-853 4121,-834 4127,-819 4131,-806 4136,-792 4141,-777 4145,-764 4150,-749 4160,-734 4163,-721 4169,-707 4179,-692 4187,-683 4197,-668 4202,-655 4212,-645 4221,-630 4235,-622 4245,-607 4254,-598 4264,-588 4278,-575 4287,-564 4301,-556 4311,-545 4325,-537 4339,-532 4353,-522 4363,-513 4376,-508 4391,-499 4405,-494 4419,-490 4434,-485 4448,-479 4461,-475 4476,-471 4495,-466 4509,-460 4522,-460 4538,-457 4552,-457 4571,-457 4585,-457 4599,-452 "
       style="stroke:#cc00cc;stroke-width:8;stroke-linecap:butt;stroke-linejoin:round"
       id="polyline48" />
    <!-- Line -->
    <!--  spline  -->
    <polyline
       points="4599,-919 4601,-920 4604,-920 4606,-921 4607,-921 4608,-921 4611,-922 4613,-923 4615,-924 4616,-925 4617,-927 4618,-929 4619,-931 4620,-932 4620,-933 4620,-934 4621,-936 4622,-938 4622,-940 4623,-941 4623,-942 4622,-944 4622,-949 4621,-951 4621,-952 4620,-953 4619,-955 4618,-957 4617,-959 4616,-960 4615,-961 4613,-962 4611,-963 4609,-964 4608,-964 4606,-965 4604,-966 4602,-966 4600,-966 4599,-966 4597,-966 4594,-965 4592,-965 4591,-965 4590,-964 4587,-963 4585,-962 4583,-961 4582,-960 4581,-959 4580,-957 4579,-955 4578,-954 4578,-953 4577,-951 4576,-948 4576,-945 4575,-943 4575,-942 4576,-940 4576,-938 4577,-936 4577,-935 4578,-933 4579,-931 4580,-929 4581,-927 4582,-925 4583,-924 4585,-923 4587,-922 4588,-922 4590,-922 4592,-921 4594,-920 4596,-920 4598,-919 4599,-919 "
       style="fill:#cc00cc;stroke:#cc00cc;stroke-width:0;stroke-linecap:butt;stroke-linejoin:bevel"
       id="polyline50" />
    <!-- Line -->
    <!--  polyline  -->
    <polyline
       points="4448,-414 4472,-414 4495,-418 4519,-418 4542,-423 4561,-423 4585,-428 4607,-433 4627,-437 4650,-441 4675,-452 4693,-457 4717,-466 4735,-475 4760,-485 4779,-494 4796,-503 4816,-518 4835,-527 4854,-542 4873,-556 4892,-564 4911,-579 4930,-598 4943,-612 4963,-626 4977,-645 4991,-660 5005,-679 5020,-697 5034,-711 5048,-730 5062,-749 5071,-773 5086,-792 5095,-811 5105,-830 5113,-853 5123,-872 5128,-896 5138,-915 5142,-938 5152,-957 5156,-981 5161,-1005 5166,-1023 5166,-1047 5171,-1070 5171,-1093 5171,-1118 5171,-1137 5171,-1160 5171,-1184 5171,-1208 5166,-1231 5166,-1250 5161,-1274 5156,-1297 5152,-1316 5142,-1340 5138,-1363 5128,-1382 5123,-1405 5113,-1425 5105,-1448 5095,-1468 5086,-1486 5071,-1505 5062,-1524 5048,-1543 5034,-1562 5020,-1581 5005,-1599 4991,-1618 4977,-1633 4963,-1652 4943,-1666 4930,-1679 4911,-1694 4892,-1708 4873,-1722 4854,-1737 4835,-1751 4816,-1760 4796,-1775 4779,-1784 4760,-1794 4735,-1803 4717,-1812 4693,-1817 4675,-1826 4650,-1830 4627,-1841 4607,-1845 4585,-1849 4561,-1855 4542,-1855 4519,-1860 4495,-1860 4472,-1860 4448,-1860 4429,-1860 4405,-1860 4382,-1860 4358,-1855 4334,-1855 4316,-1849 4291,-1845 4268,-1841 4248,-1830 4226,-1826 4206,-1817 4183,-1812 4163,-1803 4141,-1794 4121,-1784 4102,-1775 4083,-1760 4060,-1751 4041,-1737 4023,-1722 4008,-1708 3990,-1694 3971,-1679 3956,-1666 3938,-1652 3923,-1633 3909,-1618 3890,-1599 3876,-1581 3867,-1562 3853,-1543 3838,-1524 3828,-1505 3815,-1486 3805,-1468 3796,-1448 3785,-1425 3777,-1405 3767,-1382 3763,-1363 3753,-1340 3749,-1316 3743,-1297 3739,-1274 3735,-1250 3735,-1231 3730,-1208 3730,-1184 3724,-1160 3724,-1137 3724,-1118 3730,-1093 3730,-1070 3735,-1047 3735,-1023 3739,-1005 3743,-981 3749,-957 3753,-938 3763,-915 3767,-896 3777,-872 3785,-853 3796,-830 3805,-811 3815,-792 3828,-773 3838,-749 3853,-730 3867,-711 3876,-697 3890,-679 3909,-660 3923,-645 3938,-626 3956,-612 3971,-598 3990,-579 4008,-564 4023,-556 4041,-542 4060,-527 4083,-518 4102,-503 4121,-494 4141,-485 4163,-475 4183,-466 4206,-457 4226,-452 4248,-441 4268,-437 4291,-433 4316,-428 4334,-423 4358,-423 4382,-418 4405,-418 4429,-414 4448,-414 "
       style="stroke:#cc00cc;stroke-width:8;stroke-linecap:butt;stroke-linejoin:round"
       id="polyline52" />
    <!-- Line -->
    <!--  spline  -->
    <polyline
       points="4448,-1112 4450,-1112 4453,-1113 4455,-1113 4456,-1114 4457,-1114 4459,-1116 4461,-1118 4464,-1120 4465,-1120 4466,-1121 4467,-1123 4468,-1125 4469,-1126 4469,-1127 4470,-1129 4471,-1131 4471,-1133 4472,-1135 4472,-1137 4471,-1139 4471,-1142 4470,-1144 4470,-1145 4469,-1147 4468,-1149 4467,-1151 4466,-1153 4465,-1153 4464,-1154 4461,-1155 4459,-1156 4458,-1158 4457,-1158 4455,-1159 4453,-1160 4451,-1160 4449,-1160 4448,-1160 4446,-1160 4441,-1159 4439,-1159 4438,-1159 4437,-1158 4436,-1156 4434,-1155 4432,-1154 4432,-1153 4431,-1153 4429,-1151 4428,-1149 4427,-1148 4427,-1147 4426,-1146 4425,-1144 4424,-1141 4424,-1140 4424,-1138 4424,-1137 4424,-1134 4425,-1131 4425,-1129 4426,-1128 4426,-1127 4427,-1125 4429,-1123 4431,-1121 4431,-1120 4432,-1120 4434,-1118 4436,-1117 4436,-1116 4437,-1114 4439,-1113 4443,-1112 4445,-1112 4447,-1112 4448,-1112 "
       style="fill:#cc00cc;stroke:#cc00cc;stroke-width:0;stroke-linecap:butt;stroke-linejoin:bevel"
       id="polyline54" />
    <!-- Line -->
    <!--  polyline  -->
    <polyline
       points="4254,-343 4283,-343 4316,-348 4344,-348 4372,-352 4401,-356 4429,-362 4461,-367 4490,-371 4519,-381 4546,-390 4575,-399 4604,-409 4627,-423 4656,-433 4684,-447 4708,-460 4735,-475 4760,-490 4783,-508 4812,-522 4835,-542 4854,-560 4878,-579 4900,-598 4920,-622 4943,-641 4963,-664 4982,-688 5001,-711 5020,-734 5034,-759 5053,-783 5067,-806 5081,-834 5095,-858 5109,-886 5123,-915 5132,-942 5142,-966 5152,-995 5161,-1023 5171,-1051 5174,-1085 5180,-1112 5190,-1142 5190,-1170 5194,-1197 5198,-1231 5198,-1259 5198,-1288 5198,-1316 5198,-1349 5194,-1378 5190,-1405 5190,-1434 5180,-1468 5174,-1496 5171,-1524 5161,-1552 5152,-1581 5142,-1609 5132,-1637 5123,-1666 5109,-1690 5095,-1718 5081,-1745 5067,-1770 5053,-1794 5034,-1822 5020,-1845 5001,-1868 4982,-1892 4963,-1911 4943,-1934 4920,-1959 4900,-1977 4878,-1996 4854,-2016 4835,-2034 4812,-2053 4783,-2072 4760,-2086 4735,-2100 4708,-2115 4684,-2129 4656,-2142 4627,-2157 4604,-2166 4575,-2176 4546,-2185 4519,-2195 4490,-2205 4461,-2208 4429,-2219 4401,-2223 4372,-2227 4344,-2227 4316,-2233 4283,-2233 4254,-2233 4226,-2233 4193,-2233 4163,-2227 4136,-2227 4108,-2223 4079,-2219 4046,-2208 4017,-2205 3990,-2195 3961,-2185 3932,-2176 3905,-2166 3881,-2157 3853,-2142 3824,-2129 3801,-2115 3772,-2100 3749,-2086 3724,-2072 3697,-2053 3673,-2034 3654,-2016 3631,-1996 3607,-1977 3588,-1959 3564,-1934 3546,-1911 3527,-1892 3508,-1868 3489,-1845 3475,-1822 3456,-1794 3442,-1770 3427,-1745 3413,-1718 3399,-1690 3385,-1666 3375,-1637 3365,-1609 3357,-1581 3346,-1552 3338,-1524 3333,-1496 3328,-1468 3319,-1434 3319,-1405 3314,-1378 3309,-1349 3309,-1316 3309,-1288 3309,-1259 3309,-1231 3314,-1197 3319,-1170 3319,-1142 3328,-1112 3333,-1085 3338,-1051 3346,-1023 3357,-995 3365,-966 3375,-942 3385,-915 3399,-886 3413,-858 3427,-834 3442,-806 3456,-783 3475,-759 3489,-734 3508,-711 3527,-688 3546,-664 3564,-641 3588,-622 3607,-598 3631,-579 3654,-560 3673,-542 3697,-522 3724,-508 3749,-490 3772,-475 3801,-460 3824,-447 3853,-433 3881,-423 3905,-409 3932,-399 3961,-390 3990,-381 4017,-371 4046,-367 4079,-362 4108,-356 4136,-352 4163,-348 4193,-348 4226,-343 4254,-343 "
       style="stroke:#cc00cc;stroke-width:8;stroke-linecap:butt;stroke-linejoin:round"
       id="polyline56" />
    <!-- Line -->
    <!--  spline  -->
    <polyline
       points="4254,-1264 4256,-1265 4260,-1265 4262,-1266 4263,-1266 4264,-1267 4266,-1268 4268,-1269 4270,-1270 4270,-1271 4271,-1272 4272,-1274 4274,-1276 4275,-1277 4276,-1278 4277,-1280 4278,-1282 4278,-1285 4278,-1287 4278,-1288 4278,-1290 4277,-1293 4277,-1295 4276,-1296 4276,-1297 4274,-1299 4272,-1301 4271,-1303 4270,-1304 4270,-1306 4268,-1307 4266,-1308 4265,-1309 4264,-1309 4262,-1310 4259,-1311 4257,-1311 4255,-1312 4254,-1312 4251,-1311 4249,-1311 4247,-1310 4246,-1310 4244,-1309 4242,-1308 4240,-1307 4238,-1306 4237,-1304 4236,-1303 4235,-1301 4234,-1299 4233,-1298 4233,-1297 4232,-1295 4230,-1293 4230,-1291 4230,-1289 4230,-1288 4230,-1286 4232,-1282 4232,-1280 4232,-1279 4233,-1278 4234,-1276 4235,-1274 4236,-1272 4237,-1271 4238,-1270 4240,-1269 4242,-1268 4243,-1267 4244,-1267 4245,-1267 4247,-1266 4249,-1265 4251,-1265 4253,-1264 4254,-1264 "
       style="fill:#cc00cc;stroke:#cc00cc;stroke-width:0;stroke-linecap:butt;stroke-linejoin:bevel"
       id="polyline58" />
    <!-- Line -->
    <!--  polyline  -->
    <polyline
       points="4027,-234 4060,-234 4098,-234 4136,-239 4169,-244 4206,-248 4240,-253 4278,-263 4311,-268 4349,-277 4382,-290 4415,-301 4448,-314 4480,-329 4514,-343 4546,-356 4580,-375 4613,-395 4642,-414 4675,-433 4703,-452 4731,-475 4760,-499 4788,-522 4812,-545 4839,-570 4864,-594 4887,-622 4911,-649 4934,-679 4958,-707 4977,-734 4996,-768 5015,-796 5034,-830 5053,-862 5067,-896 5081,-923 5095,-962 5109,-995 5119,-1027 5132,-1061 5142,-1099 5147,-1131 5156,-1170 5161,-1203 5166,-1240 5171,-1274 5174,-1312 5174,-1349 5174,-1382 5174,-1420 5174,-1453 5171,-1490 5166,-1529 5161,-1562 5156,-1599 5147,-1633 5142,-1671 5132,-1703 5119,-1737 5109,-1775 5095,-1807 5081,-1841 5067,-1874 5053,-1907 5034,-1934 5015,-1968 4996,-2001 4977,-2030 4958,-2058 4934,-2086 4911,-2115 4887,-2142 4864,-2171 4839,-2195 4812,-2223 4788,-2247 4760,-2270 4731,-2293 4703,-2312 4675,-2337 4642,-2355 4613,-2374 4580,-2394 4546,-2408 4514,-2427 4480,-2440 4448,-2455 4415,-2464 4382,-2479 4349,-2488 4311,-2497 4278,-2507 4240,-2512 4206,-2521 4169,-2525 4136,-2530 4098,-2530 4060,-2535 4027,-2535 3990,-2535 3952,-2530 3919,-2530 3881,-2525 3848,-2521 3809,-2512 3777,-2507 3739,-2497 3706,-2488 3673,-2479 3635,-2464 3602,-2455 3569,-2440 3535,-2427 3503,-2408 3469,-2394 3442,-2374 3408,-2355 3380,-2337 3352,-2312 3322,-2293 3295,-2270 3267,-2247 3237,-2223 3215,-2195 3186,-2171 3163,-2142 3139,-2115 3116,-2086 3097,-2058 3072,-2030 3054,-2001 3035,-1968 3016,-1934 3002,-1907 2983,-1874 2969,-1841 2955,-1807 2945,-1775 2931,-1737 2921,-1703 2912,-1671 2902,-1633 2898,-1599 2889,-1562 2883,-1529 2879,-1490 2879,-1453 2875,-1420 2875,-1382 2875,-1349 2879,-1312 2879,-1274 2883,-1240 2889,-1203 2898,-1170 2902,-1131 2912,-1099 2921,-1061 2931,-1027 2945,-995 2955,-962 2969,-923 2983,-896 3002,-862 3016,-830 3035,-796 3054,-768 3072,-734 3097,-707 3116,-679 3139,-649 3163,-622 3186,-594 3215,-570 3237,-545 3267,-522 3295,-499 3322,-475 3352,-452 3380,-433 3408,-414 3442,-395 3469,-375 3503,-356 3535,-343 3569,-329 3602,-314 3635,-301 3673,-290 3706,-277 3739,-268 3777,-263 3809,-253 3848,-248 3881,-244 3919,-239 3952,-234 3990,-234 4027,-234 "
       style="stroke:#cc00cc;stroke-width:8;stroke-linecap:butt;stroke-linejoin:round"
       id="polyline60" />
    <!-- Line -->
    <!--  spline  -->
    <polyline
       points="4027,-1359 4029,-1359 4033,-1360 4035,-1360 4036,-1360 4037,-1361 4038,-1362 4040,-1363 4043,-1364 4044,-1365 4045,-1366 4047,-1369 4048,-1371 4049,-1372 4049,-1373 4050,-1375 4051,-1377 4051,-1379 4051,-1381 4051,-1382 4051,-1384 4050,-1387 4050,-1390 4050,-1391 4049,-1392 4048,-1394 4047,-1396 4045,-1398 4044,-1399 4043,-1399 4040,-1401 4038,-1403 4038,-1404 4037,-1404 4035,-1405 4032,-1405 4030,-1405 4028,-1405 4027,-1405 4025,-1405 4022,-1405 4019,-1405 4018,-1404 4017,-1404 4016,-1403 4014,-1401 4012,-1399 4011,-1399 4010,-1398 4008,-1396 4007,-1394 4006,-1393 4006,-1392 4005,-1390 4004,-1387 4004,-1385 4004,-1383 4004,-1382 4004,-1380 4005,-1377 4005,-1375 4005,-1374 4006,-1373 4007,-1371 4008,-1369 4010,-1366 4011,-1365 4012,-1364 4014,-1363 4016,-1362 4016,-1361 4017,-1361 4019,-1360 4022,-1359 4024,-1359 4026,-1359 4027,-1359 "
       style="fill:#cc00cc;stroke:#cc00cc;stroke-width:0;stroke-linecap:butt;stroke-linejoin:bevel"
       id="polyline62" />
    <!-- Line -->
    <!--  polyline  -->
    <polyline
       points="3782,-79 3824,-79 3867,-82 3909,-82 3947,-88 3990,-97 4032,-101 4075,-112 4112,-121 4155,-131 4193,-144 4235,-159 4272,-173 4311,-186 4349,-205 4386,-225 4424,-244 4461,-268 4500,-286 4533,-310 4565,-333 4599,-362 4632,-386 4665,-414 4698,-441 4727,-471 4754,-499 4783,-532 4812,-564 4835,-598 4864,-630 4887,-664 4911,-697 4930,-734 4953,-773 4972,-811 4991,-849 5009,-886 5024,-923 5038,-962 5053,-1005 5067,-1042 5076,-1085 5086,-1123 5095,-1165 5100,-1208 5109,-1250 5113,-1288 5113,-1330 5119,-1373 5119,-1416 5119,-1458 5113,-1501 5113,-1543 5109,-1581 5100,-1623 5095,-1666 5086,-1708 5076,-1745 5067,-1788 5053,-1826 5038,-1868 5024,-1907 5009,-1945 4991,-1982 4972,-2019 4953,-2058 4930,-2096 4911,-2134 4887,-2166 4864,-2200 4835,-2233 4812,-2266 4783,-2299 4754,-2331 4727,-2360 4698,-2389 4665,-2416 4632,-2445 4599,-2469 4565,-2497 4533,-2521 4500,-2544 4461,-2563 4424,-2586 4386,-2605 4349,-2625 4311,-2644 4272,-2658 4235,-2671 4193,-2686 4155,-2701 4112,-2710 4075,-2719 4032,-2729 3990,-2733 3947,-2743 3909,-2748 3867,-2748 3824,-2752 3782,-2752 3739,-2752 3697,-2748 3654,-2748 3616,-2743 3574,-2733 3531,-2729 3489,-2719 3450,-2710 3408,-2701 3371,-2686 3328,-2671 3290,-2658 3253,-2644 3215,-2625 3176,-2605 3139,-2586 3101,-2563 3064,-2544 3030,-2521 2997,-2497 2963,-2469 2931,-2445 2898,-2416 2865,-2389 2837,-2360 2809,-2331 2780,-2299 2752,-2266 2728,-2233 2700,-2200 2676,-2166 2653,-2134 2634,-2096 2609,-2058 2591,-2019 2572,-1982 2553,-1945 2539,-1907 2524,-1868 2511,-1826 2497,-1788 2487,-1745 2478,-1708 2468,-1666 2464,-1623 2454,-1581 2450,-1543 2450,-1501 2445,-1458 2445,-1416 2445,-1373 2450,-1330 2450,-1288 2454,-1250 2464,-1208 2468,-1165 2478,-1123 2487,-1085 2497,-1042 2511,-1005 2524,-962 2539,-923 2553,-886 2572,-849 2591,-811 2609,-773 2634,-734 2653,-697 2676,-664 2700,-630 2728,-598 2752,-564 2780,-532 2809,-499 2837,-471 2865,-441 2898,-414 2931,-386 2963,-362 2997,-333 3030,-310 3064,-286 3101,-268 3139,-244 3176,-225 3215,-205 3253,-186 3290,-173 3328,-159 3371,-144 3408,-131 3450,-121 3489,-112 3531,-101 3574,-97 3616,-88 3654,-82 3697,-82 3739,-79 3782,-79 "
       style="stroke:#cc00cc;stroke-width:8;stroke-linecap:butt;stroke-linejoin:round"
       id="polyline64" />
    <!-- Line -->
    <!--  spline  -->
    <polyline
       points="3782,-1392 3784,-1392 3786,-1393 3788,-1393 3790,-1393 3792,-1394 3794,-1395 3796,-1396 3798,-1398 3799,-1399 3800,-1400 3801,-1402 3802,-1404 3803,-1404 3803,-1405 3804,-1407 3805,-1411 3805,-1413 3805,-1415 3805,-1416 3805,-1418 3804,-1421 3804,-1423 3804,-1424 3803,-1425 3802,-1426 3801,-1428 3800,-1430 3799,-1432 3798,-1433 3796,-1435 3794,-1436 3793,-1437 3792,-1437 3791,-1437 3788,-1438 3786,-1439 3784,-1439 3783,-1439 3782,-1439 3780,-1439 3776,-1438 3774,-1438 3773,-1438 3772,-1437 3770,-1436 3767,-1435 3765,-1433 3765,-1432 3764,-1430 3763,-1428 3762,-1426 3761,-1426 3760,-1425 3759,-1423 3758,-1421 3758,-1419 3758,-1417 3758,-1416 3758,-1414 3759,-1409 3759,-1407 3760,-1406 3760,-1405 3762,-1404 3763,-1402 3764,-1400 3765,-1399 3765,-1398 3767,-1396 3770,-1395 3771,-1394 3772,-1394 3774,-1393 3777,-1392 3779,-1392 3781,-1392 3782,-1392 "
       style="fill:#cc00cc;stroke:#cc00cc;stroke-width:0;stroke-linecap:butt;stroke-linejoin:bevel"
       id="polyline66" />
    <!-- Line -->
    <!--  polyline  -->
    <polyline
       points="3535,114 3583,114 3631,114 3678,110 3724,106 3772,95 3820,91 3862,81 3909,68 3956,57 3998,44 4046,25 4089,10 4131,-8 4174,-27 4216,-45 4259,-69 4301,-93 4339,-116 4382,-144 4419,-167 4457,-197 4495,-229 4528,-258 4561,-290 4599,-324 4632,-356 4661,-390 4693,-428 4722,-466 4750,-503 4779,-542 4802,-579 4826,-622 4849,-660 4873,-702 4892,-745 4911,-787 4930,-830 4949,-877 4963,-919 4977,-966 4991,-1008 5001,-1056 5009,-1104 5020,-1151 5024,-1194 5028,-1240 5034,-1288 5034,-1335 5038,-1382 5034,-1429 5034,-1477 5028,-1524 5024,-1571 5020,-1618 5009,-1666 5001,-1708 4991,-1756 4977,-1803 4963,-1845 4949,-1892 4930,-1934 4911,-1977 4892,-2019 4873,-2062 4849,-2104 4826,-2148 4802,-2185 4779,-2227 4750,-2266 4722,-2304 4693,-2337 4661,-2374 4632,-2408 4599,-2445 4561,-2479 4528,-2507 4495,-2540 4457,-2567 4419,-2597 4382,-2625 4339,-2648 4301,-2671 4259,-2696 4216,-2719 4174,-2738 4131,-2756 4089,-2775 4046,-2795 3998,-2809 3956,-2823 3909,-2837 3862,-2847 3820,-2856 3772,-2866 3724,-2871 3678,-2875 3631,-2879 3583,-2879 3535,-2885 3489,-2879 3442,-2879 3394,-2875 3346,-2871 3304,-2866 3257,-2856 3210,-2847 3163,-2837 3120,-2823 3072,-2809 3030,-2795 2983,-2775 2941,-2756 2898,-2738 2856,-2719 2813,-2696 2774,-2671 2732,-2648 2695,-2625 2657,-2597 2620,-2567 2582,-2540 2543,-2507 2511,-2479 2478,-2445 2445,-2408 2412,-2374 2383,-2337 2350,-2304 2327,-2266 2298,-2227 2269,-2185 2246,-2148 2223,-2104 2199,-2062 2180,-2019 2161,-1977 2142,-1934 2128,-1892 2109,-1845 2095,-1803 2086,-1756 2076,-1708 2067,-1666 2057,-1618 2048,-1571 2043,-1524 2043,-1477 2038,-1429 2038,-1382 2038,-1335 2043,-1288 2043,-1240 2048,-1194 2057,-1151 2067,-1104 2076,-1056 2086,-1008 2095,-966 2109,-919 2128,-877 2142,-830 2161,-787 2180,-745 2199,-702 2223,-660 2246,-622 2269,-579 2298,-542 2327,-503 2350,-466 2383,-428 2412,-390 2445,-356 2478,-324 2511,-290 2543,-258 2582,-229 2620,-197 2657,-167 2695,-144 2732,-116 2774,-93 2813,-69 2856,-45 2898,-27 2941,-8 2983,10 3030,25 3072,44 3120,57 3163,68 3210,81 3257,91 3304,95 3346,106 3394,110 3442,114 3489,114 3535,114 "
       style="stroke:#cc00cc;stroke-width:8;stroke-linecap:butt;stroke-linejoin:round"
       id="polyline68" />
    <!-- Line -->
    <!--  spline  -->
    <polyline
       points="3535,-1359 3538,-1359 3542,-1360 3544,-1360 3545,-1360 3546,-1361 3548,-1362 3550,-1363 3552,-1364 3552,-1365 3553,-1366 3554,-1369 3555,-1371 3556,-1372 3558,-1373 3559,-1375 3560,-1377 3560,-1379 3560,-1381 3560,-1382 3560,-1384 3559,-1387 3559,-1390 3558,-1391 3558,-1392 3555,-1394 3554,-1396 3553,-1398 3552,-1399 3550,-1401 3548,-1403 3547,-1403 3547,-1404 3546,-1404 3544,-1405 3541,-1405 3539,-1405 3537,-1405 3535,-1405 3533,-1405 3531,-1405 3529,-1405 3528,-1404 3526,-1404 3524,-1403 3522,-1401 3520,-1399 3519,-1399 3518,-1398 3517,-1396 3516,-1394 3514,-1393 3514,-1392 3513,-1390 3512,-1387 3512,-1385 3511,-1383 3511,-1382 3512,-1380 3512,-1377 3513,-1375 3513,-1374 3514,-1373 3516,-1371 3517,-1369 3518,-1366 3519,-1365 3520,-1364 3522,-1363 3524,-1362 3525,-1361 3526,-1361 3527,-1361 3529,-1360 3531,-1359 3533,-1359 3534,-1359 3535,-1359 "
       style="fill:#cc00cc;stroke:#cc00cc;stroke-width:0;stroke-linecap:butt;stroke-linejoin:bevel"
       id="polyline70" />
    <!-- Line -->
    <!--  polyline  -->
    <polyline
       points="3309,346 3361,346 3413,346 3465,341 3511,331 3564,327 3616,318 3668,308 3716,295 3767,280 3815,265 3862,251 3913,233 3961,214 4004,191 4051,166 4098,142 4141,119 4187,91 4230,62 4272,34 4311,5 4353,-27 4391,-59 4429,-97 4467,-131 4504,-167 4538,-205 4571,-244 4604,-286 4632,-329 4665,-367 4689,-414 4717,-457 4746,-499 4769,-545 4788,-594 4812,-641 4831,-688 4849,-734 4864,-783 4882,-834 4897,-881 4906,-934 4916,-981 4924,-1033 4934,-1085 4939,-1137 4943,-1184 4943,-1236 4943,-1288 4943,-1340 4943,-1392 4939,-1444 4934,-1496 4924,-1543 4916,-1595 4906,-1647 4897,-1694 4882,-1745 4864,-1794 4849,-1845 4831,-1892 4812,-1940 4788,-1987 4769,-2030 4746,-2077 4717,-2123 4689,-2166 4665,-2208 4632,-2251 4604,-2293 4571,-2331 4538,-2370 4504,-2408 4467,-2445 4429,-2482 4391,-2516 4353,-2549 4311,-2582 4272,-2611 4230,-2644 4187,-2671 4141,-2696 4098,-2724 4051,-2748 4004,-2771 3961,-2790 3913,-2809 3862,-2828 3815,-2847 3767,-2860 3716,-2875 3668,-2885 3616,-2894 3564,-2903 3511,-2913 3465,-2918 3413,-2922 3361,-2922 3309,-2927 3257,-2922 3205,-2922 3153,-2918 3106,-2913 3054,-2903 3002,-2894 2950,-2885 2902,-2875 2851,-2860 2804,-2847 2756,-2828 2705,-2809 2657,-2790 2615,-2771 2567,-2748 2520,-2724 2478,-2696 2431,-2671 2388,-2644 2346,-2611 2308,-2582 2265,-2549 2227,-2516 2190,-2482 2152,-2445 2114,-2408 2080,-2370 2048,-2331 2015,-2293 1986,-2251 1953,-2208 1930,-2166 1901,-2123 1872,-2077 1849,-2030 1830,-1987 1806,-1940 1787,-1892 1769,-1845 1755,-1794 1736,-1745 1721,-1694 1713,-1647 1702,-1595 1694,-1543 1683,-1496 1679,-1444 1675,-1392 1675,-1340 1675,-1288 1675,-1236 1675,-1184 1679,-1137 1683,-1085 1694,-1033 1702,-981 1713,-934 1721,-881 1736,-834 1755,-783 1769,-734 1787,-688 1806,-641 1830,-594 1849,-545 1872,-499 1901,-457 1930,-414 1953,-367 1986,-329 2015,-286 2048,-244 2080,-205 2114,-167 2152,-131 2190,-97 2227,-59 2265,-27 2308,5 2346,34 2388,62 2431,91 2478,119 2520,142 2567,166 2615,191 2657,214 2705,233 2756,251 2804,265 2851,280 2902,295 2950,308 3002,318 3054,327 3106,331 3153,341 3205,346 3257,346 3309,346 "
       style="stroke:#cc00cc;stroke-width:8;stroke-linecap:butt;stroke-linejoin:round"
       id="polyline72" />
    <!-- Line -->
    <!--  spline  -->
    <polyline
       points="3309,-1264 3311,-1265 3315,-1265 3317,-1266 3318,-1266 3319,-1267 3320,-1268 3322,-1269 3324,-1270 3324,-1271 3325,-1271 3325,-1272 3328,-1274 3329,-1276 3330,-1277 3331,-1278 3332,-1280 3333,-1282 3333,-1285 3333,-1287 3333,-1288 3333,-1290 3332,-1293 3332,-1295 3331,-1296 3331,-1297 3330,-1299 3328,-1301 3325,-1303 3325,-1304 3324,-1304 3324,-1306 3322,-1307 3320,-1308 3320,-1309 3319,-1309 3317,-1310 3314,-1311 3312,-1311 3310,-1312 3309,-1312 3307,-1311 3303,-1311 3301,-1310 3300,-1310 3299,-1309 3297,-1308 3295,-1307 3293,-1306 3292,-1304 3291,-1303 3290,-1301 3289,-1299 3288,-1298 3288,-1297 3287,-1295 3286,-1293 3286,-1291 3286,-1289 3286,-1288 3286,-1286 3287,-1282 3287,-1280 3287,-1279 3288,-1278 3289,-1276 3290,-1274 3291,-1272 3292,-1271 3293,-1270 3295,-1269 3297,-1268 3298,-1267 3299,-1267 3301,-1266 3303,-1265 3306,-1265 3308,-1264 3309,-1264 "
       style="fill:#cc00cc;stroke:#cc00cc;stroke-width:0;stroke-linecap:butt;stroke-linejoin:bevel"
       id="polyline74" />
    <!-- Line -->
    <!--  polyline  -->
    <polyline
       points="3116,605 3168,605 3224,601 3276,596 3333,592 3385,587 3442,577 3493,563 3546,554 3602,535 3654,520 3706,502 3758,483 3805,465 3857,440 3905,416 3956,388 4004,365 4051,337 4094,303 4141,276 4183,242 4226,204 4268,172 4311,133 4349,95 4386,57 4424,15 4457,-27 4495,-69 4528,-112 4557,-159 4590,-201 4618,-248 4642,-296 4669,-348 4693,-395 4717,-447 4735,-494 4754,-545 4774,-598 4788,-649 4807,-707 4816,-759 4831,-811 4839,-868 4845,-919 4849,-976 4854,-1027 4858,-1085 4858,-1137 4858,-1194 4854,-1250 4849,-1301 4845,-1359 4839,-1411 4831,-1468 4816,-1519 4807,-1571 4788,-1628 4774,-1679 4754,-1732 4735,-1779 4717,-1830 4693,-1883 4669,-1930 4642,-1977 4618,-2030 4590,-2072 4557,-2119 4528,-2166 4495,-2208 4457,-2251 4424,-2293 4386,-2331 4349,-2374 4311,-2412 4268,-2450 4226,-2482 4183,-2516 4141,-2549 4094,-2582 4051,-2611 4004,-2644 3956,-2667 3905,-2696 3857,-2719 3805,-2743 3758,-2762 3706,-2781 3654,-2799 3602,-2814 3546,-2828 3493,-2841 3442,-2852 3385,-2860 3333,-2871 3276,-2875 3224,-2879 3168,-2885 3116,-2885 3059,-2885 3002,-2879 2950,-2875 2894,-2871 2841,-2860 2785,-2852 2732,-2841 2681,-2828 2624,-2814 2572,-2799 2520,-2781 2473,-2762 2420,-2743 2369,-2719 2322,-2696 2275,-2667 2223,-2644 2180,-2611 2133,-2582 2086,-2549 2043,-2516 2001,-2482 1958,-2450 1920,-2412 1878,-2374 1840,-2331 1802,-2293 1769,-2251 1736,-2208 1702,-2166 1670,-2119 1641,-2072 1609,-2030 1585,-1977 1556,-1930 1532,-1883 1509,-1830 1490,-1779 1471,-1732 1453,-1679 1439,-1628 1424,-1571 1409,-1519 1401,-1468 1391,-1411 1382,-1359 1377,-1301 1372,-1250 1367,-1194 1367,-1137 1367,-1085 1372,-1027 1377,-976 1382,-919 1391,-868 1401,-811 1409,-759 1424,-707 1439,-649 1453,-598 1471,-545 1490,-494 1509,-447 1532,-395 1556,-348 1585,-296 1609,-248 1641,-201 1670,-159 1702,-112 1736,-69 1769,-27 1802,15 1840,57 1878,95 1920,133 1958,172 2001,204 2043,242 2086,276 2133,303 2180,337 2223,365 2275,388 2322,416 2369,440 2420,465 2473,483 2520,502 2572,520 2624,535 2681,554 2732,563 2785,577 2841,587 2894,592 2950,596 3002,601 3059,605 3116,605 "
       style="stroke:#cc00cc;stroke-width:8;stroke-linecap:butt;stroke-linejoin:round"
       id="polyline76" />
    <!-- Line -->
    <!--  spline  -->
    <polyline
       points="3116,-1112 3118,-1112 3121,-1113 3123,-1113 3124,-1114 3126,-1114 3128,-1116 3130,-1118 3132,-1120 3133,-1121 3134,-1123 3135,-1125 3137,-1126 3137,-1127 3138,-1129 3139,-1131 3139,-1133 3139,-1135 3139,-1137 3139,-1139 3138,-1142 3138,-1144 3138,-1145 3137,-1147 3135,-1149 3134,-1151 3133,-1153 3132,-1153 3132,-1154 3130,-1155 3128,-1156 3127,-1158 3126,-1158 3125,-1158 3123,-1159 3120,-1160 3119,-1160 3117,-1160 3116,-1160 3113,-1160 3110,-1159 3108,-1159 3107,-1159 3106,-1158 3104,-1156 3102,-1155 3100,-1154 3099,-1153 3097,-1151 3096,-1149 3095,-1148 3095,-1147 3093,-1146 3092,-1144 3091,-1141 3091,-1140 3091,-1138 3091,-1137 3091,-1134 3092,-1131 3092,-1129 3093,-1128 3093,-1127 3095,-1125 3097,-1123 3099,-1121 3099,-1120 3100,-1120 3102,-1118 3104,-1117 3105,-1116 3106,-1114 3108,-1113 3110,-1112 3112,-1112 3114,-1112 3116,-1112 "
       style="fill:#cc00cc;stroke:#cc00cc;stroke-width:0;stroke-linecap:butt;stroke-linejoin:bevel"
       id="polyline78" />
    <!-- Line -->
    <!--  polyline  -->
    <polyline
       points="2963,880 3021,880 3078,880 3134,875 3191,866 3248,861 3304,851 3361,837 3418,824 3475,809 3527,790 3583,776 3635,752 3687,733 3739,709 3791,681 3843,657 3890,629 3942,596 3990,569 4037,535 4083,497 4127,465 4169,426 4212,388 4254,346 4291,303 4334,265 4368,218 4405,176 4437,129 4472,81 4504,34 4533,-12 4561,-64 4590,-116 4613,-163 4637,-220 4661,-271 4679,-324 4698,-381 4717,-433 4731,-490 4746,-545 4754,-603 4764,-660 4774,-716 4779,-773 4783,-830 4788,-886 4788,-942 4788,-1000 4783,-1056 4779,-1112 4774,-1170 4764,-1227 4754,-1282 4746,-1340 4731,-1397 4717,-1453 4698,-1505 4679,-1562 4661,-1614 4637,-1666 4613,-1722 4590,-1770 4561,-1822 4533,-1874 4504,-1921 4472,-1968 4437,-2016 4405,-2062 4368,-2104 4334,-2153 4291,-2190 4254,-2233 4212,-2275 4169,-2312 4127,-2351 4083,-2384 4037,-2422 3990,-2455 3942,-2482 3890,-2516 3843,-2544 3791,-2567 3739,-2597 3687,-2620 3635,-2639 3583,-2663 3527,-2677 3475,-2696 3418,-2710 3361,-2724 3304,-2738 3248,-2748 3191,-2752 3134,-2762 3078,-2767 3021,-2767 2963,-2767 2908,-2767 2851,-2767 2790,-2762 2732,-2752 2676,-2748 2620,-2738 2567,-2724 2511,-2710 2454,-2696 2397,-2677 2346,-2663 2293,-2639 2237,-2620 2185,-2597 2133,-2567 2086,-2544 2034,-2516 1986,-2482 1939,-2455 1891,-2422 1845,-2384 1802,-2351 1755,-2312 1713,-2275 1675,-2233 1632,-2190 1594,-2153 1556,-2104 1524,-2062 1486,-2016 1453,-1968 1424,-1921 1391,-1874 1363,-1822 1339,-1770 1311,-1722 1287,-1666 1268,-1614 1245,-1562 1226,-1505 1212,-1453 1197,-1397 1183,-1340 1169,-1282 1160,-1227 1150,-1170 1146,-1112 1141,-1056 1141,-1000 1135,-942 1141,-886 1141,-830 1146,-773 1150,-716 1160,-660 1169,-603 1183,-545 1197,-490 1212,-433 1226,-381 1245,-324 1268,-271 1287,-220 1311,-163 1339,-116 1363,-64 1391,-12 1424,34 1453,81 1486,129 1524,176 1556,218 1594,265 1632,303 1675,346 1713,388 1755,426 1802,465 1845,497 1891,535 1939,569 1986,596 2034,629 2086,657 2133,681 2185,709 2237,733 2293,752 2346,776 2397,790 2454,809 2511,824 2567,837 2620,851 2676,861 2732,866 2790,875 2851,880 2908,880 2963,880 "
       style="stroke:#cc00cc;stroke-width:8;stroke-linecap:butt;stroke-linejoin:round"
       id="polyline80" />
    <!-- Line -->
    <!--  spline  -->
    <polyline
       points="2963,-919 2965,-920 2970,-920 2972,-921 2973,-921 2974,-921 2976,-922 2978,-923 2980,-924 2981,-925 2982,-927 2983,-929 2984,-931 2985,-932 2985,-933 2985,-934 2986,-936 2987,-938 2987,-940 2987,-941 2987,-942 2987,-944 2986,-949 2986,-951 2986,-952 2985,-953 2984,-955 2983,-957 2982,-959 2981,-960 2980,-961 2978,-962 2976,-963 2975,-964 2974,-964 2972,-965 2969,-966 2966,-966 2964,-966 2963,-966 2961,-966 2959,-965 2957,-965 2956,-965 2955,-964 2953,-963 2951,-962 2949,-961 2948,-960 2946,-960 2946,-959 2944,-957 2943,-955 2943,-954 2943,-953 2942,-951 2942,-948 2941,-945 2941,-943 2941,-942 2941,-940 2942,-938 2942,-936 2942,-935 2942,-933 2943,-931 2944,-929 2946,-927 2946,-925 2948,-925 2949,-924 2951,-923 2953,-922 2954,-922 2955,-922 2957,-921 2959,-920 2961,-920 2962,-919 2963,-919 "
       style="fill:#cc00cc;stroke:#cc00cc;stroke-width:0;stroke-linecap:butt;stroke-linejoin:bevel"
       id="polyline82" />
    <!-- Line -->
    <!--  polyline  -->
    <polyline
       points="2870,1159 2927,1159 2987,1153 3045,1149 3106,1144 3163,1135 3219,1125 3276,1111 3333,1098 3390,1083 3446,1064 3503,1045 3560,1026 3612,1002 3668,979 3720,955 3772,928 3824,898 3871,866 3923,832 3971,799 4017,766 4065,728 4108,691 4150,648 4193,611 4235,569 4272,520 4311,478 4349,431 4386,383 4419,337 4453,289 4480,237 4509,185 4538,133 4565,81 4590,29 4613,-27 4632,-79 4650,-135 4669,-192 4684,-248 4698,-305 4708,-362 4722,-423 4727,-479 4735,-537 4741,-598 4741,-655 4741,-716 4741,-773 4741,-834 4735,-891 4727,-948 4722,-1008 4708,-1066 4698,-1123 4684,-1179 4669,-1236 4650,-1293 4632,-1349 4613,-1405 4590,-1458 4565,-1514 4538,-1567 4509,-1618 4480,-1671 4453,-1718 4419,-1770 4386,-1817 4349,-1864 4311,-1911 4272,-1953 4235,-1996 4193,-2038 4150,-2081 4108,-2119 4065,-2157 4017,-2195 3971,-2233 3923,-2266 3871,-2299 3824,-2327 3772,-2355 3720,-2384 3668,-2412 3612,-2436 3560,-2455 3503,-2479 3446,-2497 3390,-2516 3333,-2530 3276,-2544 3219,-2554 3163,-2563 3106,-2573 3045,-2582 2987,-2586 2927,-2586 2870,-2586 2809,-2586 2752,-2586 2690,-2582 2634,-2573 2577,-2563 2520,-2554 2458,-2544 2402,-2530 2346,-2516 2289,-2497 2232,-2479 2180,-2455 2123,-2436 2072,-2412 2019,-2384 1968,-2355 1916,-2327 1864,-2299 1816,-2266 1769,-2233 1721,-2195 1675,-2157 1632,-2119 1585,-2081 1542,-2038 1505,-1996 1462,-1953 1424,-1911 1385,-1864 1353,-1817 1320,-1770 1287,-1718 1254,-1671 1226,-1618 1197,-1567 1174,-1514 1150,-1458 1127,-1405 1108,-1349 1089,-1293 1069,-1236 1056,-1179 1042,-1123 1027,-1066 1018,-1008 1008,-948 1004,-891 999,-834 994,-773 994,-716 994,-655 999,-598 1004,-537 1008,-479 1018,-423 1027,-362 1042,-305 1056,-248 1069,-192 1089,-135 1108,-79 1127,-27 1150,29 1174,81 1197,133 1226,185 1254,237 1287,289 1320,337 1353,383 1385,431 1424,478 1462,520 1505,569 1542,611 1585,648 1632,691 1675,728 1721,766 1769,799 1816,832 1864,866 1916,898 1968,928 2019,955 2072,979 2123,1002 2180,1026 2232,1045 2289,1064 2346,1083 2402,1098 2458,1111 2520,1125 2577,1135 2634,1144 2690,1149 2752,1153 2809,1159 2870,1159 "
       style="stroke:#cc00cc;stroke-width:8;stroke-linecap:butt;stroke-linejoin:round"
       id="polyline84" />
    <!-- Line -->
    <!--  spline  -->
    <polyline
       points="2870,-692 2872,-692 2875,-693 2877,-693 2878,-693 2879,-695 2881,-696 2883,-697 2886,-698 2887,-699 2888,-700 2889,-702 2890,-704 2891,-705 2891,-706 2891,-707 2892,-709 2893,-711 2893,-713 2894,-714 2894,-716 2893,-718 2893,-722 2892,-724 2892,-725 2891,-726 2890,-728 2889,-730 2888,-732 2887,-732 2886,-733 2883,-734 2881,-735 2880,-737 2879,-738 2877,-739 2875,-740 2873,-740 2871,-740 2870,-740 2868,-740 2865,-739 2862,-739 2861,-738 2860,-738 2858,-735 2856,-734 2854,-733 2853,-732 2852,-732 2851,-730 2850,-728 2849,-727 2849,-726 2848,-724 2847,-721 2847,-719 2846,-717 2846,-716 2847,-713 2847,-711 2848,-709 2848,-708 2849,-706 2850,-704 2851,-702 2852,-700 2853,-699 2854,-698 2856,-697 2858,-696 2859,-695 2860,-695 2862,-693 2865,-692 2867,-692 2869,-692 2870,-692 "
       style="fill:#cc00cc;stroke:#cc00cc;stroke-width:0;stroke-linecap:butt;stroke-linejoin:bevel"
       id="polyline86" />
    <!-- Line -->
    <!--  polyline  -->
    <polyline
       points="2837,1418 2898,1418 2955,1414 3016,1409 3072,1404 3134,1394 3191,1385 3248,1372 3304,1357 3365,1342 3423,1324 3475,1306 3531,1287 3588,1262 3639,1239 3697,1210 3749,1187 3801,1153 3848,1125 3900,1092 3947,1059 3994,1021 4041,983 4089,946 4131,909 4174,866 4216,824 4254,781 4291,733 4330,686 4368,639 4401,592 4434,539 4461,492 4495,440 4519,388 4546,331 4571,280 4594,223 4613,166 4632,114 4650,57 4665,-3 4679,-59 4693,-116 4703,-173 4711,-234 4717,-290 4722,-352 4727,-409 4727,-471 4727,-532 4722,-588 4717,-649 4711,-707 4703,-768 4693,-825 4679,-881 4665,-938 4650,-1000 4632,-1056 4613,-1108 4594,-1165 4571,-1222 4546,-1274 4519,-1330 4495,-1382 4461,-1434 4434,-1482 4401,-1533 4368,-1581 4330,-1628 4291,-1675 4254,-1722 4216,-1764 4174,-1807 4131,-1849 4089,-1888 4041,-1926 3994,-1964 3947,-2001 3900,-2034 3848,-2067 3801,-2096 3749,-2129 3697,-2153 3639,-2181 3588,-2205 3531,-2227 3475,-2247 3423,-2266 3365,-2285 3304,-2299 3248,-2312 3191,-2327 3134,-2337 3072,-2346 3016,-2351 2955,-2355 2898,-2360 2837,-2360 2774,-2360 2719,-2355 2657,-2351 2601,-2346 2539,-2337 2482,-2327 2426,-2312 2369,-2299 2308,-2285 2250,-2266 2199,-2247 2142,-2227 2086,-2205 2034,-2181 1976,-2153 1925,-2129 1872,-2096 1826,-2067 1774,-2034 1727,-2001 1679,-1964 1632,-1926 1585,-1888 1542,-1849 1500,-1807 1457,-1764 1420,-1722 1382,-1675 1343,-1628 1306,-1581 1273,-1533 1239,-1482 1212,-1434 1179,-1382 1154,-1330 1127,-1274 1103,-1222 1079,-1165 1061,-1108 1042,-1056 1023,-1000 1008,-938 994,-881 980,-825 971,-768 961,-707 957,-649 952,-588 946,-532 946,-471 946,-409 952,-352 957,-290 961,-234 971,-173 980,-116 994,-59 1008,-3 1023,57 1042,114 1061,166 1079,223 1103,280 1127,331 1154,388 1179,440 1212,492 1239,539 1273,592 1306,639 1343,686 1382,733 1420,781 1457,824 1500,866 1542,909 1585,946 1632,983 1679,1021 1727,1059 1774,1092 1826,1125 1872,1153 1925,1187 1976,1210 2034,1239 2086,1262 2142,1287 2199,1306 2250,1324 2308,1342 2369,1357 2426,1372 2482,1385 2539,1394 2601,1404 2657,1409 2719,1414 2774,1418 2837,1418 "
       style="stroke:#cc00cc;stroke-width:8;stroke-linecap:butt;stroke-linejoin:round"
       id="polyline88" />
    <!-- Line -->
    <!--  spline  -->
    <polyline
       points="2837,-447 2839,-447 2841,-448 2844,-448 2845,-449 2847,-449 2849,-450 2851,-452 2853,-454 2854,-454 2854,-455 2855,-455 2856,-457 2857,-459 2857,-460 2858,-462 2859,-466 2859,-468 2860,-470 2860,-471 2859,-473 2859,-476 2858,-478 2858,-479 2858,-480 2857,-482 2856,-485 2855,-487 2854,-488 2853,-489 2851,-490 2849,-491 2848,-492 2847,-492 2846,-492 2844,-493 2841,-494 2839,-494 2838,-494 2837,-494 2835,-494 2831,-493 2829,-493 2828,-493 2827,-492 2825,-491 2823,-490 2820,-489 2819,-488 2818,-487 2817,-485 2816,-482 2815,-481 2815,-480 2814,-478 2813,-476 2813,-474 2813,-472 2813,-471 2813,-469 2814,-465 2814,-462 2814,-461 2815,-460 2816,-459 2817,-457 2818,-455 2819,-455 2819,-454 2820,-454 2823,-452 2825,-451 2826,-450 2827,-449 2829,-448 2832,-447 2834,-447 2836,-447 2837,-447 "
       style="fill:#cc00cc;stroke:#cc00cc;stroke-width:0;stroke-linecap:butt;stroke-linejoin:bevel"
       id="polyline90" />
    <!-- Line -->
    <!--  polyline  -->
    <polyline
       points="2870,1646 2927,1646 2987,1646 3045,1640 3106,1631 3163,1622 3219,1612 3276,1603 3333,1588 3390,1574 3446,1555 3503,1537 3560,1513 3612,1495 3668,1470 3720,1442 3772,1414 3824,1385 3871,1357 3923,1324 3971,1291 4017,1253 4065,1215 4108,1177 4150,1140 4193,1098 4235,1055 4272,1013 4311,970 4349,922 4386,875 4419,827 4453,776 4480,728 4509,677 4538,624 4565,573 4590,516 4613,465 4632,407 4650,350 4669,295 4684,237 4698,180 4708,124 4722,68 4727,5 4735,-50 4741,-107 4741,-167 4741,-225 4741,-286 4741,-343 4735,-405 4727,-460 4722,-518 4708,-579 4698,-636 4684,-692 4669,-749 4650,-806 4632,-862 4613,-915 4590,-971 4565,-1023 4538,-1075 4509,-1127 4480,-1179 4453,-1231 4419,-1279 4386,-1325 4349,-1373 4311,-1420 4272,-1463 4235,-1510 4193,-1552 4150,-1590 4108,-1633 4065,-1671 4017,-1708 3971,-1741 3923,-1775 3871,-1807 3824,-1841 3772,-1868 3720,-1897 3668,-1921 3612,-1945 3560,-1968 3503,-1987 3446,-2006 3390,-2025 3333,-2038 3276,-2053 3219,-2067 3163,-2077 3106,-2086 3045,-2091 2987,-2096 2927,-2100 2870,-2100 2809,-2100 2752,-2096 2690,-2091 2634,-2086 2577,-2077 2520,-2067 2458,-2053 2402,-2038 2346,-2025 2289,-2006 2232,-1987 2180,-1968 2123,-1945 2072,-1921 2019,-1897 1968,-1868 1916,-1841 1864,-1807 1816,-1775 1769,-1741 1721,-1708 1675,-1671 1632,-1633 1585,-1590 1542,-1552 1505,-1510 1462,-1463 1424,-1420 1385,-1373 1353,-1325 1320,-1279 1287,-1231 1254,-1179 1226,-1127 1197,-1075 1174,-1023 1150,-971 1127,-915 1108,-862 1089,-806 1069,-749 1056,-692 1042,-636 1027,-579 1018,-518 1008,-460 1004,-405 999,-343 994,-286 994,-225 994,-167 999,-107 1004,-50 1008,5 1018,68 1027,124 1042,180 1056,237 1069,295 1089,350 1108,407 1127,465 1150,516 1174,573 1197,624 1226,677 1254,728 1287,776 1320,827 1353,875 1385,922 1424,970 1462,1013 1505,1055 1542,1098 1585,1140 1632,1177 1675,1215 1721,1253 1769,1291 1816,1324 1864,1357 1916,1385 1968,1414 2019,1442 2072,1470 2123,1495 2180,1513 2232,1537 2289,1555 2346,1574 2402,1588 2458,1603 2520,1612 2577,1622 2634,1631 2690,1640 2752,1646 2809,1646 2870,1646 "
       style="stroke:#cc00cc;stroke-width:8;stroke-linecap:butt;stroke-linejoin:round"
       id="polyline92" />
    <!-- Line -->
    <!--  spline  -->
    <polyline
       points="2870,-201 2872,-202 2875,-202 2877,-203 2878,-203 2879,-203 2881,-204 2883,-205 2886,-206 2887,-207 2888,-208 2889,-211 2890,-213 2891,-214 2891,-215 2891,-216 2892,-218 2893,-221 2893,-222 2894,-224 2894,-225 2893,-227 2893,-229 2892,-232 2892,-233 2891,-235 2890,-237 2889,-239 2888,-241 2887,-242 2886,-243 2883,-244 2881,-245 2880,-246 2879,-246 2877,-247 2875,-248 2873,-248 2871,-248 2870,-248 2868,-248 2865,-247 2862,-247 2861,-247 2860,-246 2858,-245 2856,-244 2854,-243 2853,-242 2852,-241 2851,-239 2850,-237 2849,-236 2849,-235 2849,-234 2848,-232 2847,-229 2847,-227 2846,-226 2846,-225 2847,-223 2847,-220 2848,-218 2848,-217 2849,-215 2850,-213 2851,-211 2852,-208 2853,-207 2854,-206 2856,-205 2858,-204 2859,-204 2860,-204 2862,-203 2865,-202 2867,-202 2869,-201 2870,-201 "
       style="fill:#cc00cc;stroke:#cc00cc;stroke-width:0;stroke-linecap:butt;stroke-linejoin:bevel"
       id="polyline94" />
    <!-- Line -->
    <!--  polyline  -->
    <polyline
       points="2963,1824 3021,1824 3078,1824 3134,1820 3191,1811 3248,1805 3304,1796 3361,1782 3418,1769 3475,1753 3527,1735 3583,1720 3635,1697 3687,1678 3739,1654 3791,1626 3843,1603 3890,1574 3942,1541 3990,1513 4037,1479 4083,1442 4127,1409 4169,1372 4212,1333 4254,1291 4291,1248 4334,1210 4368,1163 4405,1120 4437,1074 4472,1026 4504,979 4533,931 4561,880 4590,827 4613,781 4637,724 4661,672 4679,620 4698,563 4717,511 4731,454 4746,398 4754,341 4764,284 4774,227 4779,172 4783,114 4788,57 4788,2 4788,-55 4783,-112 4779,-167 4774,-225 4764,-282 4754,-338 4746,-395 4731,-452 4717,-508 4698,-560 4679,-617 4661,-668 4637,-721 4613,-777 4590,-825 4561,-877 4533,-929 4504,-976 4472,-1023 4437,-1070 4405,-1118 4368,-1160 4334,-1208 4291,-1245 4254,-1288 4212,-1330 4169,-1367 4127,-1405 4083,-1439 4037,-1477 3990,-1510 3942,-1538 3890,-1571 3843,-1599 3791,-1623 3739,-1652 3687,-1675 3635,-1694 3583,-1718 3527,-1732 3475,-1751 3418,-1764 3361,-1779 3304,-1794 3248,-1803 3191,-1807 3134,-1817 3078,-1822 3021,-1822 2963,-1822 2908,-1822 2851,-1822 2790,-1817 2732,-1807 2676,-1803 2620,-1794 2567,-1779 2511,-1764 2454,-1751 2397,-1732 2346,-1718 2293,-1694 2237,-1675 2185,-1652 2133,-1623 2086,-1599 2034,-1571 1986,-1538 1939,-1510 1891,-1477 1845,-1439 1802,-1405 1755,-1367 1713,-1330 1675,-1288 1632,-1245 1594,-1208 1556,-1160 1524,-1118 1486,-1070 1453,-1023 1424,-976 1391,-929 1363,-877 1339,-825 1311,-777 1287,-721 1268,-668 1245,-617 1226,-560 1212,-508 1197,-452 1183,-395 1169,-338 1160,-282 1150,-225 1146,-167 1141,-112 1141,-55 1135,2 1141,57 1141,114 1146,172 1150,227 1160,284 1169,341 1183,398 1197,454 1212,511 1226,563 1245,620 1268,672 1287,724 1311,781 1339,827 1363,880 1391,931 1424,979 1453,1026 1486,1074 1524,1120 1556,1163 1594,1210 1632,1248 1675,1291 1713,1333 1755,1372 1802,1409 1845,1442 1891,1479 1939,1513 1986,1541 2034,1574 2086,1603 2133,1626 2185,1654 2237,1678 2293,1697 2346,1720 2397,1735 2454,1753 2511,1769 2567,1782 2620,1796 2676,1805 2732,1811 2790,1820 2851,1824 2908,1824 2963,1824 "
       style="stroke:#cc00cc;stroke-width:8;stroke-linecap:butt;stroke-linejoin:round"
       id="polyline96" />
    <!-- Line -->
    <!--  spline  -->
    <polyline
       points="2963,25 2965,25 2970,24 2972,24 2973,24 2974,23 2976,22 2978,20 2980,19 2981,18 2982,17 2983,15 2984,13 2985,12 2985,11 2985,10 2986,8 2987,6 2987,4 2987,3 2987,2 2987,0 2986,-4 2986,-6 2986,-7 2985,-8 2984,-10 2983,-12 2982,-14 2981,-14 2980,-15 2978,-16 2976,-17 2975,-18 2974,-19 2972,-20 2969,-22 2966,-22 2964,-22 2963,-22 2961,-22 2959,-20 2957,-20 2956,-19 2955,-19 2953,-17 2951,-16 2949,-15 2948,-14 2946,-14 2944,-12 2943,-10 2943,-9 2943,-8 2942,-6 2942,-3 2941,-1 2941,1 2941,2 2941,4 2942,6 2942,8 2942,9 2942,11 2943,13 2944,15 2946,17 2946,18 2948,18 2949,19 2951,20 2953,22 2954,23 2955,23 2957,24 2959,25 2961,25 2962,25 2963,25 "
       style="fill:#cc00cc;stroke:#cc00cc;stroke-width:0;stroke-linecap:butt;stroke-linejoin:bevel"
       id="polyline98" />
    <!-- Line -->
    <!--  polyline  -->
    <polyline
       points="3116,1942 3168,1942 3224,1939 3276,1933 3333,1928 3385,1920 3442,1909 3493,1900 3546,1886 3602,1872 3654,1857 3706,1838 3758,1820 3805,1801 3857,1777 3905,1753 3956,1725 4004,1702 4051,1668 4094,1640 4141,1607 4183,1574 4226,1541 4268,1508 4311,1470 4349,1433 4386,1391 4424,1352 4457,1310 4495,1268 4528,1225 4557,1177 4590,1130 4618,1087 4642,1036 4669,988 4693,941 4717,889 4735,837 4754,790 4774,739 4788,686 4807,629 4816,577 4831,525 4839,468 4845,416 4849,361 4854,308 4858,251 4858,194 4858,142 4854,87 4849,34 4845,-22 4839,-74 4831,-131 4816,-183 4807,-234 4788,-290 4774,-343 4754,-395 4735,-447 4717,-494 4693,-545 4669,-594 4642,-645 4618,-692 4590,-740 4557,-783 4528,-830 4495,-872 4457,-915 4424,-957 4386,-1000 4349,-1038 4311,-1075 4268,-1112 4226,-1146 4183,-1184 4141,-1216 4094,-1245 4051,-1279 4004,-1307 3956,-1330 3905,-1359 3857,-1382 3805,-1405 3758,-1425 3706,-1444 3654,-1463 3602,-1477 3546,-1496 3493,-1505 3442,-1519 3385,-1529 3333,-1533 3276,-1538 3224,-1543 3168,-1548 3116,-1548 3059,-1548 3002,-1543 2950,-1538 2894,-1533 2841,-1529 2785,-1519 2732,-1505 2681,-1496 2624,-1477 2572,-1463 2520,-1444 2473,-1425 2420,-1405 2369,-1382 2322,-1359 2275,-1330 2223,-1307 2180,-1279 2133,-1245 2086,-1216 2043,-1184 2001,-1146 1958,-1112 1920,-1075 1878,-1038 1840,-1000 1802,-957 1769,-915 1736,-872 1702,-830 1670,-783 1641,-740 1609,-692 1585,-645 1556,-594 1532,-545 1509,-494 1490,-447 1471,-395 1453,-343 1439,-290 1424,-234 1409,-183 1401,-131 1391,-74 1382,-22 1377,34 1372,87 1367,142 1367,194 1367,251 1372,308 1377,361 1382,416 1391,468 1401,525 1409,577 1424,629 1439,686 1453,739 1471,790 1490,837 1509,889 1532,941 1556,988 1585,1036 1609,1087 1641,1130 1670,1177 1702,1225 1736,1268 1769,1310 1802,1352 1840,1391 1878,1433 1920,1470 1958,1508 2001,1541 2043,1574 2086,1607 2133,1640 2180,1668 2223,1702 2275,1725 2322,1753 2369,1777 2420,1801 2473,1820 2520,1838 2572,1857 2624,1872 2681,1886 2732,1900 2785,1909 2841,1920 2894,1928 2950,1933 3002,1939 3059,1942 3116,1942 "
       style="stroke:#cc00cc;stroke-width:8;stroke-linecap:butt;stroke-linejoin:round"
       id="polyline100" />
    <!-- Line -->
    <!--  spline  -->
    <polyline
       points="3116,218 3118,218 3121,217 3123,217 3124,217 3126,217 3128,216 3130,215 3132,213 3132,212 3133,211 3134,208 3135,206 3137,205 3137,204 3138,202 3139,199 3139,197 3139,195 3139,194 3139,192 3138,190 3138,187 3138,186 3137,185 3135,183 3134,181 3133,179 3132,178 3132,177 3130,175 3128,174 3127,174 3126,174 3125,174 3123,173 3120,173 3119,172 3117,172 3116,172 3113,172 3110,173 3108,173 3107,173 3106,173 3104,174 3102,175 3100,177 3099,177 3099,178 3099,179 3097,181 3096,183 3095,184 3093,185 3092,187 3091,190 3091,192 3091,193 3091,194 3091,196 3092,200 3092,202 3093,203 3093,204 3095,206 3097,208 3099,211 3099,212 3099,213 3100,213 3102,215 3104,216 3105,216 3106,216 3108,217 3110,217 3112,218 3114,218 3116,218 "
       style="fill:#cc00cc;stroke:#cc00cc;stroke-width:0;stroke-linecap:butt;stroke-linejoin:bevel"
       id="polyline102" />
    <!-- Line -->
    <!--  polyline  -->
    <polyline
       points="3309,1985 3361,1981 3413,1981 3465,1976 3511,1971 3564,1962 3616,1952 3668,1942 3716,1933 3767,1920 3815,1905 3862,1886 3913,1867 3961,1848 4004,1829 4051,1805 4098,1782 4141,1753 4187,1731 4230,1702 4272,1668 4311,1640 4353,1607 4391,1574 4429,1541 4467,1503 4504,1465 4538,1427 4571,1391 4604,1352 4632,1310 4665,1268 4689,1225 4717,1183 4746,1135 4769,1087 4788,1045 4812,998 4831,951 4849,903 4864,851 4882,804 4897,752 4906,705 4916,654 4924,601 4934,554 4939,502 4943,450 4943,398 4943,346 4943,295 4943,242 4939,194 4934,142 4924,91 4916,39 4906,-8 4897,-59 4882,-107 4864,-159 4849,-205 4831,-253 4812,-301 4788,-348 4769,-395 4746,-441 4717,-485 4689,-527 4665,-575 4632,-612 4604,-655 4571,-697 4538,-734 4504,-773 4467,-811 4429,-844 4391,-881 4353,-915 4311,-948 4272,-976 4230,-1005 4187,-1033 4141,-1061 4098,-1085 4051,-1108 4004,-1131 3961,-1155 3913,-1174 3862,-1194 3815,-1208 3767,-1222 3716,-1236 3668,-1250 3616,-1259 3564,-1269 3511,-1274 3465,-1282 3413,-1288 3361,-1288 3309,-1288 3257,-1288 3205,-1288 3153,-1282 3106,-1274 3054,-1269 3002,-1259 2950,-1250 2902,-1236 2851,-1222 2804,-1208 2756,-1194 2705,-1174 2657,-1155 2615,-1131 2567,-1108 2520,-1085 2478,-1061 2431,-1033 2388,-1005 2346,-976 2308,-948 2265,-915 2227,-881 2190,-844 2152,-811 2114,-773 2080,-734 2048,-697 2015,-655 1986,-612 1953,-575 1930,-527 1901,-485 1872,-441 1849,-395 1830,-348 1806,-301 1787,-253 1769,-205 1755,-159 1736,-107 1721,-59 1713,-8 1702,39 1694,91 1683,142 1679,194 1675,242 1675,295 1675,346 1675,398 1675,450 1679,502 1683,554 1694,601 1702,654 1713,705 1721,752 1736,804 1755,851 1769,903 1787,951 1806,998 1830,1045 1849,1087 1872,1135 1901,1183 1930,1225 1953,1268 1986,1310 2015,1352 2048,1391 2080,1427 2114,1465 2152,1503 2190,1541 2227,1574 2265,1607 2308,1640 2346,1668 2388,1702 2431,1731 2478,1753 2520,1782 2567,1805 2615,1829 2657,1848 2705,1867 2756,1886 2804,1905 2851,1920 2902,1933 2950,1942 3002,1952 3054,1962 3106,1971 3153,1976 3205,1981 3257,1981 3309,1985 "
       style="stroke:#cc00cc;stroke-width:8;stroke-linecap:butt;stroke-linejoin:round"
       id="polyline104" />
    <!-- Line -->
    <!--  spline  -->
    <polyline
       points="3309,369 3311,369 3315,368 3317,368 3318,368 3319,367 3320,366 3322,365 3324,364 3324,363 3325,363 3328,361 3329,359 3330,358 3330,356 3331,355 3332,353 3333,350 3333,349 3333,347 3333,346 3333,344 3332,341 3332,339 3331,338 3331,337 3330,334 3328,332 3325,330 3325,329 3324,329 3322,327 3320,326 3320,325 3319,324 3317,323 3314,322 3312,322 3310,322 3309,322 3307,322 3303,323 3301,323 3300,324 3299,324 3297,325 3295,327 3293,329 3292,329 3291,330 3290,332 3289,334 3288,335 3288,337 3287,339 3286,341 3286,343 3286,345 3286,346 3286,348 3287,351 3287,353 3287,354 3288,356 3289,359 3290,361 3291,363 3292,363 3293,364 3295,365 3297,366 3298,367 3299,367 3301,368 3303,369 3306,369 3308,369 3309,369 "
       style="fill:#cc00cc;stroke:#cc00cc;stroke-width:0;stroke-linecap:butt;stroke-linejoin:bevel"
       id="polyline106" />
    <!-- Line -->
    <!--  polyline  -->
    <polyline
       points="3535,1942 3583,1939 3631,1939 3678,1933 3724,1928 3772,1924 3820,1914 3862,1905 3909,1896 3956,1881 3998,1867 4046,1854 4089,1835 4131,1815 4174,1796 4216,1777 4259,1753 4301,1731 4339,1707 4382,1683 4419,1654 4457,1626 4495,1598 4528,1565 4561,1537 4599,1503 4632,1465 4661,1433 4693,1394 4722,1361 4750,1324 4779,1287 4802,1244 4826,1205 4849,1163 4873,1120 4892,1078 4911,1036 4930,994 4949,951 4963,903 4977,861 4991,813 5001,766 5009,724 5020,677 5024,629 5028,582 5034,535 5034,488 5038,440 5034,393 5034,346 5028,299 5024,251 5020,209 5009,161 5001,114 4991,68 4977,25 4963,-22 4949,-64 4930,-112 4911,-154 4892,-197 4873,-239 4849,-282 4826,-319 4802,-362 4779,-399 4750,-437 4722,-475 4693,-513 4661,-551 4632,-584 4599,-617 4561,-649 4528,-683 4495,-711 4457,-745 4419,-773 4382,-796 4339,-825 4301,-849 4259,-872 4216,-896 4174,-915 4131,-934 4089,-953 4046,-966 3998,-985 3956,-1000 3909,-1008 3862,-1023 3820,-1033 3772,-1038 3724,-1047 3678,-1051 3631,-1056 3583,-1056 3535,-1056 3489,-1056 3442,-1056 3394,-1051 3346,-1047 3304,-1038 3257,-1033 3210,-1023 3163,-1008 3120,-1000 3072,-985 3030,-966 2983,-953 2941,-934 2898,-915 2856,-896 2813,-872 2774,-849 2732,-825 2695,-796 2657,-773 2620,-745 2582,-711 2543,-683 2511,-649 2478,-617 2445,-584 2412,-551 2383,-513 2350,-475 2327,-437 2298,-399 2269,-362 2246,-319 2223,-282 2199,-239 2180,-197 2161,-154 2142,-112 2128,-64 2109,-22 2095,25 2086,68 2076,114 2067,161 2057,209 2048,251 2043,299 2043,346 2038,393 2038,440 2038,488 2043,535 2043,582 2048,629 2057,677 2067,724 2076,766 2086,813 2095,861 2109,903 2128,951 2142,994 2161,1036 2180,1078 2199,1120 2223,1163 2246,1205 2269,1244 2298,1287 2327,1324 2350,1361 2383,1394 2412,1433 2445,1465 2478,1503 2511,1537 2543,1565 2582,1598 2620,1626 2657,1654 2695,1683 2732,1707 2774,1731 2813,1753 2856,1777 2898,1796 2941,1815 2983,1835 3030,1854 3072,1867 3120,1881 3163,1896 3210,1905 3257,1914 3304,1924 3346,1928 3394,1933 3442,1939 3489,1939 3535,1942 "
       style="stroke:#cc00cc;stroke-width:8;stroke-linecap:butt;stroke-linejoin:round"
       id="polyline108" />
    <!-- Line -->
    <!--  spline  -->
    <polyline
       points="3535,465 3538,465 3542,464 3544,464 3545,462 3546,462 3548,461 3550,459 3552,457 3553,456 3554,454 3555,452 3556,451 3558,450 3559,448 3560,446 3560,444 3560,441 3560,440 3560,438 3559,435 3559,433 3558,432 3558,430 3555,428 3554,426 3553,424 3552,424 3552,423 3550,422 3548,420 3547,419 3546,419 3544,418 3541,417 3539,417 3537,416 3535,416 3533,417 3531,417 3529,418 3528,418 3526,419 3524,420 3522,422 3520,423 3519,424 3518,424 3517,426 3516,428 3514,429 3514,430 3514,431 3513,433 3512,436 3512,437 3511,439 3511,440 3512,443 3512,446 3513,448 3513,449 3514,450 3516,452 3517,454 3518,456 3519,457 3520,457 3522,459 3524,460 3525,461 3526,461 3527,462 3529,464 3531,465 3533,465 3534,465 3535,465 "
       style="fill:#cc00cc;stroke:#cc00cc;stroke-width:0;stroke-linecap:butt;stroke-linejoin:bevel"
       id="polyline110" />
    <!-- Line -->
    <!--  polyline  -->
    <polyline
       points="3782,1811 3824,1811 3867,1805 3909,1805 3947,1801 3990,1792 4032,1787 4075,1777 4112,1769 4155,1758 4193,1744 4235,1731 4272,1716 4311,1702 4349,1683 4386,1665 4424,1646 4461,1622 4500,1603 4533,1580 4565,1555 4599,1527 4632,1503 4665,1476 4698,1446 4727,1418 4754,1391 4783,1357 4812,1324 4835,1291 4864,1257 4887,1225 4911,1191 4930,1153 4953,1117 4972,1078 4991,1040 5009,1002 5024,965 5038,928 5053,885 5067,847 5076,804 5086,766 5095,724 5100,681 5109,639 5113,601 5113,558 5119,516 5119,473 5119,431 5113,388 5113,346 5109,308 5100,265 5095,223 5086,180 5076,142 5067,100 5053,62 5038,20 5024,-16 5009,-55 4991,-93 4972,-131 4953,-167 4930,-205 4911,-244 4887,-277 4864,-310 4835,-343 4812,-375 4783,-409 4754,-441 4727,-471 4698,-499 4665,-527 4632,-556 4599,-579 4565,-607 4533,-630 4500,-655 4461,-674 4424,-697 4386,-716 4349,-734 4311,-753 4272,-768 4235,-783 4193,-796 4155,-811 4112,-819 4075,-830 4032,-838 3990,-844 3947,-853 3909,-858 3867,-858 3824,-862 3782,-862 3739,-862 3697,-858 3654,-858 3616,-853 3574,-844 3531,-838 3489,-830 3450,-819 3408,-811 3371,-796 3328,-783 3290,-768 3253,-753 3215,-734 3176,-716 3139,-697 3101,-674 3064,-655 3030,-630 2997,-607 2963,-579 2931,-556 2898,-527 2865,-499 2837,-471 2809,-441 2780,-409 2752,-375 2728,-343 2700,-310 2676,-277 2653,-244 2634,-205 2609,-167 2591,-131 2572,-93 2553,-55 2539,-16 2524,20 2511,62 2497,100 2487,142 2478,180 2468,223 2464,265 2454,308 2450,346 2450,388 2445,431 2445,473 2445,516 2450,558 2450,601 2454,639 2464,681 2468,724 2478,766 2487,804 2497,847 2511,885 2524,928 2539,965 2553,1002 2572,1040 2591,1078 2609,1117 2634,1153 2653,1191 2676,1225 2700,1257 2728,1291 2752,1324 2780,1357 2809,1391 2837,1418 2865,1446 2898,1476 2931,1503 2963,1527 2997,1555 3030,1580 3064,1603 3101,1622 3139,1646 3176,1665 3215,1683 3253,1702 3290,1716 3328,1731 3371,1744 3408,1758 3450,1769 3489,1777 3531,1787 3574,1792 3616,1801 3654,1805 3697,1805 3739,1811 3782,1811 "
       style="stroke:#cc00cc;stroke-width:8;stroke-linecap:butt;stroke-linejoin:round"
       id="polyline112" />
    <!-- Line -->
    <!--  spline  -->
    <polyline
       points="3782,497 3784,497 3786,496 3788,496 3790,495 3792,495 3794,493 3796,492 3798,491 3799,490 3800,490 3801,488 3802,486 3803,485 3803,483 3804,481 3805,478 3805,476 3805,474 3805,473 3805,471 3804,469 3804,467 3804,466 3803,464 3802,461 3801,459 3800,457 3799,456 3798,455 3796,454 3794,453 3793,452 3792,452 3791,452 3788,451 3786,450 3784,450 3783,450 3782,450 3780,450 3776,451 3774,451 3773,451 3772,452 3770,453 3767,454 3765,455 3765,456 3764,457 3763,459 3762,461 3761,462 3761,464 3760,465 3759,467 3758,469 3758,471 3758,472 3758,473 3758,475 3759,479 3759,481 3760,482 3760,483 3762,486 3763,488 3764,490 3765,490 3765,491 3767,492 3770,493 3771,494 3772,495 3774,496 3777,497 3779,497 3781,497 3782,497 "
       style="fill:#cc00cc;stroke:#cc00cc;stroke-width:0;stroke-linecap:butt;stroke-linejoin:bevel"
       id="polyline114" />
    <!-- Line -->
    <!--  polyline  -->
    <polyline
       points="4727,1418 4783,1357 4839,1295 4887,1234 4934,1168 4977,1102 5015,1036 5048,970 5081,903 5105,837 5128,771 5152,705 5166,639 5180,573 5190,511 5194,450 5198,388 5198,327 5194,270 5190,214 5185,157 5174,106 5161,57 5152,10 5132,-36 5119,-79 5100,-121 5081,-159 5062,-192 5038,-229 5020,-258 4996,-286 4977,-314 4953,-338 4930,-356 4911,-375 4887,-395 4868,-409 4849,-423 4831,-433 4816,-441 4796,-452 4783,-457 4769,-460 4760,-466 4750,-466 4741,-471 4735,-471 4731,-471 4727,-471 4731,-471 4735,-471 4741,-471 4750,-475 4760,-475 4769,-479 4783,-485 4796,-490 4816,-499 4831,-508 4849,-518 4868,-532 4887,-545 4911,-564 4930,-584 4953,-603 4977,-626 4996,-655 5020,-683 5038,-711 5062,-749 5081,-783 5100,-819 5119,-862 5132,-904 5152,-953 5161,-1000 5174,-1047 5185,-1099 5190,-1155 5194,-1212 5198,-1269 5198,-1330 5194,-1392 5190,-1453 5180,-1514 5166,-1581 5152,-1647 5128,-1713 5105,-1779 5081,-1845 5048,-1911 5015,-1977 4977,-2044 4934,-2110 4887,-2176 4839,-2238 4783,-2299 4727,-2360 4665,-2416 4599,-2474 4533,-2530 4461,-2582 4386,-2629 4306,-2677 4226,-2719 4141,-2756 4051,-2790 3961,-2823 3871,-2852 3777,-2875 3678,-2894 3579,-2908 3479,-2918 3375,-2922 3276,-2927 3172,-2922 3068,-2913 2963,-2899 2860,-2879 2756,-2856 2653,-2823 2549,-2790 2445,-2752 2346,-2705 2246,-2658 2146,-2601 2053,-2544 1963,-2479 1872,-2412 1783,-2337 1698,-2261 1617,-2181 1542,-2091 1471,-2001 1401,-1911 1335,-1812 1278,-1713 1220,-1609 1169,-1505 1122,-1397 1084,-1282 1046,-1174 1018,-1056 990,-942 971,-825 957,-707 952,-588 946,-471 952,-352 957,-234 971,-116 990,2 1018,114 1046,233 1084,341 1122,454 1169,563 1220,667 1278,771 1335,870 1401,970 1471,1059 1542,1149 1617,1239 1698,1319 1783,1394 1872,1470 1963,1537 2053,1603 2146,1659 2246,1716 2346,1763 2445,1811 2549,1848 2653,1881 2756,1914 2860,1939 2963,1958 3068,1971 3172,1981 3276,1985 3375,1981 3479,1976 3579,1966 3678,1952 3777,1933 3871,1909 3961,1881 4051,1848 4141,1815 4226,1777 4306,1735 4386,1688 4461,1640 4533,1588 4599,1531 4665,1476 4727,1418 "
       style="stroke:#ff0000;stroke-width:32;stroke-linecap:butt;stroke-linejoin:round"
       id="polyline116" />
    <!-- Line -->
    <!--  spline  -->
    <polyline
       points="3782,-433 3783,-433 3785,-434 3791,-434 3793,-435 3794,-435 3796,-435 3798,-436 3801,-437 3804,-439 3807,-441 3808,-443 3808,-444 3809,-445 3812,-448 3814,-451 3815,-452 3816,-453 3816,-454 3818,-458 3819,-462 3820,-466 3820,-469 3820,-471 3820,-472 3819,-474 3819,-479 3818,-481 3818,-482 3817,-485 3816,-487 3814,-490 3812,-493 3809,-496 3808,-497 3807,-498 3804,-500 3801,-502 3800,-503 3799,-504 3798,-506 3794,-507 3790,-508 3786,-508 3784,-508 3782,-508 3781,-508 3778,-508 3774,-507 3771,-507 3770,-507 3767,-506 3765,-504 3762,-502 3759,-500 3756,-498 3755,-497 3754,-497 3753,-496 3751,-493 3749,-490 3748,-489 3748,-488 3746,-487 3745,-482 3744,-478 3743,-475 3743,-473 3743,-471 3743,-470 3744,-467 3744,-462 3745,-459 3745,-458 3746,-456 3746,-454 3749,-451 3751,-448 3753,-445 3754,-444 3755,-443 3756,-441 3759,-439 3762,-437 3763,-437 3764,-436 3765,-436 3770,-435 3774,-434 3777,-433 3780,-433 3782,-433 "
       style="fill:#00b0b0;stroke:#00b0b0;stroke-width:8;stroke-linecap:butt;stroke-linejoin:bevel"
       id="polyline118" />
  </g>
</svg>
